SplineFontDB: 3.2
FontName: font1
FullName: font1
FamilyName: Taarau
Weight: Regular
Copyright: 
Version: 
ItalicAngle: 0
UnderlinePosition: 0
UnderlineWidth: 0
Ascent: 800
Descent: 200
InvalidEm: 0
LayerCount: 3
Layer: 0 0 "Back" 1
Layer: 1 0 "Fore" 0
Layer: 2 0 "Back 2" 1
HasVMetrics: 1
XUID: [1021 845 -1735383543 7700570]
FSType: 0
OS2Version: 0
OS2_WeightWidthSlopeOnly: 0
OS2_UseTypoMetrics: 0
CreationTime: 1715245110
ModificationTime: 1749472216
PfmFamily: 17
TTFWeight: 400
TTFWidth: 5
LineGap: 90
VLineGap: 90
OS2TypoAscent: 0
OS2TypoAOffset: 1
OS2TypoDescent: 0
OS2TypoDOffset: 1
OS2TypoLinegap: 90
OS2WinAscent: 0
OS2WinAOffset: 1
OS2WinDescent: 0
OS2WinDOffset: 1
HheadAscent: 0
HheadAOffset: 1
HheadDescent: 0
HheadDOffset: 1
OS2Vendor: 'PfEd'
Lookup: 4 0 1 "'liga' Standard Ligatures in Latin lookup 2" { "'liga' Standard Ligatures in Latin lookup 2-1"  } ['liga' ('DFLT' <'dflt' > 'latn' <'dflt' > ) ]
Lookup: 4 0 1 "'liga' Standard Ligatures in Latin lookup 1" { "'liga' Standard Ligatures in Latin lookup 1-1"  } ['liga' ('DFLT' <'dflt' > 'latn' <'dflt' > ) ]
Lookup: 258 0 0 "kerning" { "kerning-1" [150,15,3] } ['kern' ('DFLT' <'dflt' > 'latn' <'dflt' > ) ]
Lookup: 260 0 0 "'mark' Mark Positioning in Latin lookup 2" { "'mark' Mark Positioning in Latin lookup 2-1"  } ['mark' ('DFLT' <'dflt' > 'latn' <'dflt' > ) ]
Lookup: 260 0 0 "gumpak sangau" { "gumpak sangau-1"  } ['mark' ('DFLT' <'dflt' > 'latn' <'dflt' > ) ]
MarkAttachClasses: 1
DEI: 91125
LangName: 1033
Encoding: Custom
UnicodeInterp: none
NameList: AGL For New Fonts
DisplaySize: -128
AntiAlias: 1
FitToEm: 0
WidthSeparation: 150
WinInfo: 168 14 6
BeginPrivate: 0
EndPrivate
Grid
-1000 630.5 m 0
 2000 630.5 l 1024
-1000 1859.99994457 m 0
 2000 1859.99994457 l 1024
-1000 458 m 0
 2000 458 l 1024
-1000 545.5 m 0
 2000 545.5 l 1024
432.75 1300 m 0
 432.75 -700 l 1024
-1000 558.666666667 m 0
 2000 558.666666667 l 1024
239 1300 m 0
 239 -700 l 1024
103 1300 m 0
 103 -700 l 1024
-1000 455 m 0
 2000 455 l 1024

StartChar: .notdef
Encoding: 0 -1 0
Width: 1000
VWidth: 1024
LayerCount: 3
Fore
SplineSet
0 0 m 1
 1000 0 l 1
 1000 1024 l 1
 0 1024 l 1
 0 0 l 1
EndSplineSet
Validated: 9
EndChar

StartChar: om
Encoding: 2 38 1
Width: 890
VWidth: 1024
Flags: W
HStem: 212.449 65.1318<372.62 635.413> 357.92 65.002<425.775 537.615> 591.824 65.001<427.614 525.042>
VStem: 326.089 65.0615<455.753 557.594> 540.352 65<425.912 469.925> 762.267 65.0684<370.939 502.989>
LayerCount: 3
Fore
SplineSet
326.088867188 505.784179688 m 1
 326.088867188 426.142578125 394.985351562 357.919921875 496.685546875 357.919921875 c 0
 510.948242188 357.919921875 548.717773438 358.73828125 577.155273438 387.1484375 c 0
 589.252929688 399.233398438 597.145507812 413.970703125 601.288085938 429.546875 c 0
 605.239257812 444.40234375 605.3515625 457.408203125 605.3515625 468.373046875 c 2
 605.3515625 584.25390625 l 1
 629.958984375 578.533203125 670.639648438 569.075195312 706.799804688 540.001953125 c 0
 725.154296875 525.245117188 762.266601562 488.6640625 762.266601562 434.131835938 c 0
 762.266601562 406.578125 749.834960938 339.08984375 635.8359375 299.411132812 c 0
 593.83984375 284.79296875 549.19140625 277.581054688 504.453125 277.581054688 c 0
 455.569335938 277.581054688 406.62109375 286.190429688 360.942382812 303.23046875 c 0
 341.783203125 310.376953125 269.53515625 337.346679688 243.84765625 398.873046875 c 0
 232.5625 425.901367188 231.35546875 459.75390625 231.35546875 496.947265625 c 2
 231.35546875 531.88671875 l 1
 166.35546875 531.88671875 l 1
 166.35546875 529.469726562 l 1
 165.20703125 529.599609375 l 1
 161.872070312 503.580078125 148.045898438 411.606445312 113.354492188 355.512695312 c 0
 96.69921875 328.583007812 73.23046875 305.5625 46 289.333007812 c 1
 77.0966796875 232.209960938 l 1
 115.356445312 254.483398438 155.546875 290.421875 183.318359375 348.375 c 2
 189.31640625 360.891601562 l 1
 208.419921875 329.341796875 238.602539062 279.494140625 338.217773438 242.334960938 c 0
 391.338867188 222.518554688 447.880859375 212.44921875 504.40234375 212.44921875 c 0
 596.848632812 212.44921875 697.610351562 240.848632812 759.272460938 294.453125 c 0
 785.672851562 317.404296875 827.334960938 364.6796875 827.334960938 434.4921875 c 0
 827.334960938 490.336914062 800.522460938 548.0546875 747.538085938 590.654296875 c 0
 707.293945312 623.010742188 659.98046875 640.752929688 611.508789062 649.526367188 c 2
 605.3515625 650.640625 l 1
 605.3515625 771.32421875 l 5
 540.3515625 771.32421875 l 5
 540.3515625 656.578125 l 1
 540.194335938 656.580078125 526.303710938 656.825195312 524.609375 656.825195312 c 0
 491.249023438 656.825195312 417.517578125 655.055664062 367.404296875 604.864257812 c 0
 353.27734375 590.71484375 326.087890625 556.850585938 326.087890625 505.784179688 c 1
 326.088867188 505.784179688 l 1
496.360351562 422.921875 m 1
 435.244140625 422.921875 391.150390625 459.086914062 391.150390625 506.002929688 c 0
 391.150390625 519.271484375 395.83984375 567.983398438 462.985351562 585.3984375 c 0
 481.890625 590.301757812 502.838867188 591.82421875 525.041992188 591.82421875 c 0
 526.094726562 591.82421875 527.149414062 591.821289062 528.208007812 591.813476562 c 0
 528.329101562 591.813476562 529.260742188 591.719726562 540.3515625 591.537109375 c 1
 540.3515625 469.924804688 l 2
 540.3515625 444.620117188 539.135742188 422.921875 496.360351562 422.921875 c 1
EndSplineSet
Validated: 9
EndChar

StartChar: sonsud
Encoding: 3 44 2
Width: 721
VWidth: 1024
VStem: 350 65.6914
LayerCount: 3
Fore
SplineSet
415.69140625 685.139648438 m 1
 350 685.139648438 l 1
 350 -600 l 1
 415.69140625 -600 l 1
 415.69140625 685.139648438 l 1
EndSplineSet
Validated: 9
EndChar

StartChar: duosud
Encoding: 4 46 3
Width: 503
VWidth: 1024
Flags: W
LayerCount: 3
Fore
SplineSet
377 685.139648438 m 1
 307.30859375 685.139648438 l 1
 307.30859375 -600 l 1
 377 -600 l 1
 377 685.139648438 l 1
197.69140625 685.139648438 m 1
 128 685.139648438 l 1
 128 -600 l 1
 197.69140625 -600 l 1
 197.69140625 685.139648438 l 1
EndSplineSet
Validated: 9
EndChar

StartChar: a_bas
Encoding: 5 65 4
Width: 702
VWidth: 1024
Flags: W
HStem: 166.649 65.0322<412.881 512.825> 667.999 65.0068<305.271 473.242>
VStem: 80 65.2705<272.527 491.578> 312 70.4844<265.142 429.812> 563.497 68.5029<298.849 556.278>
AnchorPoint: "pangnau" 848.484 329 basechar 0
AnchorPoint: "saau_maam" 322.484 32 basechar 0
AnchorPoint: "saau" 353.484 316.175 basechar 0
LayerCount: 3
Fore
SplineSet
463.2109375 231.681640625 m 4
 439.220703125 231.681640625 422.360351562 240.772460938 410.509765625 256 c 4
 382.216796875 292.354492188 382.484375 363.684570312 382.484375 429.78125 c 5
 382.484375 448.361328125 382.484375 461 382.484375 487 c 5
 312 487 l 5
 312 465 312 449.248046875 312 429.811523438 c 5
 312 334.953125 322 266 350.090820312 222 c 4
 366.11328125 196.903320312 402.077148438 166.649414062 462.775390625 166.649414062 c 4
 493.751953125 166.649414062 579 182 612 293 c 4
 626.418945312 341.498046875 632 386.721679688 632 437 c 4
 632 453.056640625 630.728515625 554.423828125 581 634 c 4
 563.095703125 662.650390625 508.212890625 733.005859375 396.208984375 733.005859375 c 4
 287.91015625 733.005859375 177.993164062 661.098632812 115.677734375 530.448242188 c 4
 92.69921875 482.271484375 80 428.715820312 80 375.177734375 c 4
 80 335.083007812 87.11328125 294.958007812 102.322265625 256.993164062 c 4
 128.39453125 191.915039062 176.94921875 137.134765625 240.102539062 103.349609375 c 5
 271.47265625 161.075195312 l 5
 239.948242188 177.965820312 145.270507812 240.944335938 145.270507812 374.943359375 c 4
 145.270507812 544.193359375 273.158203125 667.999023438 396 667.999023438 c 4
 525.672851562 667.999023438 563.497070312 530.909179688 563.497070312 437.900390625 c 4
 563.497070312 425 565.1640625 231.681640625 463.2109375 231.681640625 c 4
EndSplineSet
Validated: 1048617
EndChar

StartChar: i_bas
Encoding: 10 73 5
Width: 764
VWidth: 1024
Flags: W
HStem: 146.328 65.0596<197.515 290.093> 557.868 64.2578<525.859 611.499> 588.217 65.002<272.403 433.365> 642.893 21G<421.74 431.72> 786.792 72.542<515.895 614.912>
VStem: 83 65.1348<266.694 459.223> 308 69<227.541 365.822> 427.949 67.7217<644.418 767.204> 640.853 65.0137<650.832 762.584>
AnchorPoint: "pangnau" 760.396 333 basechar 0
AnchorPoint: "saau_maam" 284.948 32 basechar 0
AnchorPoint: "saau" 347.948 321.622 basechar 0
LayerCount: 3
Fore
SplineSet
546.188476562 557.12890625 m 5xcf80
 650.778320312 557.12890625 705.866210938 634.680664062 705.866210938 710.4765625 c 4
 705.866210938 793.567382812 643.44921875 858.106445312 567.551757812 859.314453125 c 4
 566.825195312 859.314453125 566.096679688 859.333984375 565.368164062 859.333984375 c 4
 498.92578125 859.333984375 427.94921875 812.018554688 427.94921875 705.895507812 c 4
 427.94921875 685.243164062 429.37109375 675.256835938 434.068359375 642.892578125 c 5xdf80
 409.411132812 648.1171875 385.341796875 653.21875 355.052734375 653.21875 c 4
 203.987304688 653.21875 83 518.024414062 83 361.600585938 c 4
 83 345.37890625 83.904296875 274.401367188 124.553710938 216.064453125 c 4
 137.517578125 197.459960938 179.442382812 146.328125 250.50390625 146.328125 c 4
 268.1484375 146.328125 314.286434463 151.069277229 347.462890625 190.321289062 c 4
 381 230 377 299 377 365 c 4
 377 434 377 415 377 476 c 5
 308 476 l 5
 308 413 308 415.2734375 308 365.822265625 c 4
 308 297 308.170238186 221.390075421 263.265625 212.555664062 c 4
 259.254882812 211.766601562 255.076171875 211.387695312 250.805664062 211.387695312 c 4
 194.119140625 211.387695312 148.134765625 273.666015625 148.134765625 360.79296875 c 4
 148.134765625 484.19921875 243.114257812 588.216796875 355.184570312 588.216796875 c 4xaf80
 381.208984375 588.216796875 403.20703125 582.91015625 450.384765625 571.529296875 c 5
 457.532226562 547.6171875 477.446289062 481.05859375 526.1328125 406.564453125 c 5
 582.98046875 441.811523438 l 5
 555.245117188 484.365234375 540.361328125 518.334960938 525.334960938 557.868164062 c 5
 546.064453125 557.133789062 546.064453125 557.133789062 546.189453125 557.133789062 c 5
 546.188476562 557.12890625 l 5xcf80
495.670898438 702.494140625 m 4
 495.670898438 769.25 536.573242188 786.791992188 564.958984375 786.791992188 c 4
 607.975585938 786.791992188 640.852539062 750.750976562 640.852539062 706.931640625 c 4
 640.852539062 692.106445312 637.064453125 677.262695312 629.841796875 664.625 c 4
 618.409179688 644.623046875 594.942382812 622.125976562 545.646484375 622.125976562 c 4
 531.653320312 622.125976562 520.061523438 623.760742188 506.077148438 625.893554688 c 5
 497.646484375 664.927734375 495.670898438 685.268554688 495.670898438 702.494140625 c 4
  Spiro
    507.305 753.981 o
    534.41 779.787 o
    564.959 786.792 o
    603.72 775.846 o
    630.755 747.076 o
    640.853 706.931 o
    639.605 692.197 o
    635.902 677.902 o
    629.842 664.625 o
    613.908 644.736 o
    586.81 628.687 o
    545.647 622.126 o
    532.289 622.628 o
    519.429 623.97 o
    506.077 625.893 v
    499.637 659.245 o
    496.494 683.674 o
    495.671 702.494 o
    0 0 z
  EndSpiro
EndSplineSet
Validated: 1048617
EndChar

StartChar: naan_saau
Encoding: 14 78 6
Width: 0
Flags: W
VStem: -0.826172 63.8262<716.537 778.838> 10.5703 34.7422<722.118 779.887>
AnchorPoint: "saau" 36 650 mark 0
LayerCount: 3
Fore
SplineSet
45.310546875 780 m 1x40
 10.5703125 779.88671875 l 1x40
 10.6787109375 757.2109375 9.3359375 754.462890625 -0.826171875 716.537109375 c 1
 -0.826171875 -179 l 1
 63 -179 l 1
 63 718.94921875 l 1x80
 47.26953125 787.8671875 45.3125 771.290039062 45.3125 780 c 1
 45.310546875 780 l 1x40
EndSplineSet
Validated: 41
EndChar

StartChar: o_bas
Encoding: 15 79 7
Width: 633
VWidth: 1024
Flags: W
HStem: 155.754 60.4941<136.892 249.685> 430.006 65.1543<183.949 285 356 439.331> 742.158 65.1914<260.932 449.829>
VStem: 50 65.0059<238.917 374.605> 285 69<254.408 386> 515.01 65.0371<561.845 684.68>
AnchorPoint: "pangnau" 686 356 basechar 0
AnchorPoint: "saau_maam" 248 32 basechar 0
AnchorPoint: "saau" 324 316 basechar 0
LayerCount: 3
Fore
SplineSet
580.046875 623.69140625 m 4
 580.046875 727.259765625 485.037109375 807.349609375 362.174804688 807.349609375 c 4
 266.80859375 807.349609375 169.399414062 761.680664062 107.640625 688.014648438 c 5
 158.405273438 647.3828125 l 5
 209.55078125 705.888671875 287.639648438 742.158203125 362.459960938 742.158203125 c 4
 448.640625 742.158203125 515.009765625 690.754882812 515.009765625 624.006835938 c 4
 515.009765625 566.504882812 470.833984375 520.171875 399.235351562 502.579101562 c 4
 386.395507812 499.474609375 377.513671875 498.010742188 354 495.16015625 c 5
 354 625 l 5
 285 625 l 5
 285 492.233398438 l 5
 229.881835938 491.263671875 203.309570312 487.608398438 172.606445312 476.896484375 c 4
 98.982421875 449.857421875 50 379.962890625 50 301.943359375 c 4
 50 216.26171875 108.8046875 155.75390625 192.073242188 155.75390625 c 4
 296 155.75390625 356 235 356 351 c 13
 356 430.005859375 l 5
 496.494140625 444.608398438 580.046875 516.838867188 580.046875 623.69140625 c 4
288 427 m 5
 288 386 l 22
 288 268.239257812 261 216.248046875 187.151367188 216.248046875 c 4
 143.19140625 216.248046875 115.005859375 249.7890625 115.005859375 302.100585938 c 4
 115.005859375 384.508789062 168.029296875 422.790039062 288 427 c 5
EndSplineSet
Validated: 1048585
EndChar

StartChar: u_bas
Encoding: 20 85 8
Width: 929
VWidth: 1024
Flags: W
HStem: 276 70<255.877 327>
VStem: 86.2178 64.7822<341.302 459.362> 462 70<460.119 695>
AnchorPoint: "pangnau" 862.687 250.438 basechar 0
AnchorPoint: "saau_maam" 293.687 -57.5625 basechar 0
AnchorPoint: "saau" 362.687 227.438 basechar 0
LayerCount: 3
Fore
SplineSet
462 695.076171875 m 1
 462 545.046875 470 458 480 416 c 1
 448 399 426 387 391 370 c 1
 389.591796875 395.793945312 380 469 344 506.620117188 c 0
 299.209267857 553.42657808 235 566 171.380859375 535.99609375 c 0
 105.897353795 505.112920179 87.6253160364 448.349906789 86.2177734375 403.953125 c 0
 84 334 135.356001872 268.768459215 202 258.953125 c 0
 256 251 288 266 327 276 c 1
 327.224609375 21.736328125 l 1
 390 20.953125 l 1
 390.775390625 300 l 1
 433.775390625 320 453 329 501 355 c 1
 545 212 621.057828338 192.742817393 683.26953125 196.234375 c 0
 786 202 839 284 834 361.953125 c 0
 827.718840573 459.880326193 767.837712579 502.529388939 713 509.325195312 c 0
 643 518 584 481 543 453 c 1
 531 502 532 585.713867188 532 695 c 1
 462 695.076171875 l 1
151 395.953125 m 0
 150 436 165.601047122 470.951145288 214 481.953125 c 0
 231.128996708 485.846863667 273 495 304.993591363 449.999999301 c 0
 325.329629108 421.396717402 327.145507812 363.268554688 327 346 c 1
 292 331 252 319 215.744140625 322.47265625 c 0
 179.878567662 325.907930113 152.147397417 350.003444082 151 395.953125 c 0
557 385 m 1
 591 416 645.269228165 442.733250704 699 441 c 0
 730 440 769 414 769.078125 369 c 0
 769.1825138 308.87205137 744.339248057 277.328181331 696 268.389435281 c 0
 629 256 591.625607456 280.918598634 557 385 c 1
EndSplineSet
Validated: 1048617
EndChar

StartChar: a_saau
Encoding: 22 97 9
Width: 702
VWidth: 1024
Flags: W
HStem: -434.351 65.0322<408.881 508.825> 66.999 65.0068<301.271 469.242> 213 52<330.383 374.265> 231 52<246.383 290.265 414.383 458.265> 278 52<172.383 216.265 488.383 532.265> 352 52<125.383 169.265 535.383 579.265> 436 52<107.383 151.265 553.383 597.265> 520 52<125.383 169.265 535.383 579.265> 594 52<172.383 216.265 488.383 532.265> 641 52<246.383 290.265 414.383 458.265> 659 52<330.383 374.265>
VStem: 76 65.2705<-328.473 -109.422> 107 52<436.383 480.265> 125 52<352.383 396.265 520.383 564.265> 172 52<278.383 322.265 594.383 638.265> 246 52<231.383 275.265 641.383 685.265> 308 70.4844<-335.858 -171.188> 330 52<213.383 257.265 659.383 703.265> 414 52<231.383 275.265 641.383 685.265> 488 52<278.383 322.265 594.383 638.265> 535 52<352.383 396.265 520.383 564.265> 553 52<436.383 480.265> 559.497 68.5029<-302.151 -44.7216>
LayerCount: 3
Fore
SplineSet
272 693 m 4xc74120
 279.333007812 693 285.5 690.5 290.5 685.5 c 4
 295.5 680.5 298 674.333007812 298 667 c 4
 298 660.333007812 295.5 654.333007812 290.5 649 c 4
 285.5 643.666992188 279.333007812 641 272 641 c 4
 265.333007812 641 259.333007812 643.666992188 254 649 c 4
 248.666992188 654.333007812 246 660.333007812 246 667 c 4
 246 674.333007812 248.666992188 680.5 254 685.5 c 4
 259.333007812 690.5 265.333007812 693 272 693 c 4xc74120
440 693 m 4
 447.333007812 693 453.5 690.5 458.5 685.5 c 4
 463.5 680.5 466 674.333007812 466 667 c 4
 466 660.333007812 463.5 654.333007812 458.5 649 c 4
 453.5 643.666992188 447.333007812 641 440 641 c 4
 433.333007812 641 427.333007812 643.666992188 422 649 c 4
 416.666992188 654.333007812 414 660.333007812 414 667 c 4
 414 674.333007812 416.666992188 680.5 422 685.5 c 4
 427.333007812 690.5 433.333007812 693 440 693 c 4
272 283 m 4xd70120
 279.333007812 283 285.5 280.5 290.5 275.5 c 4
 295.5 270.5 298 264.333007812 298 257 c 4
 298 250.333007812 295.5 244.333007812 290.5 239 c 4
 285.5 233.666992188 279.333007812 231 272 231 c 4
 265.333007812 231 259.333007812 233.666992188 254 239 c 4
 248.666992188 244.333007812 246 250.333007812 246 257 c 4
 246 264.333007812 248.666992188 270.5 254 275.5 c 4
 259.333007812 280.5 265.333007812 283 272 283 c 4xd70120
440 283 m 4
 447.333007812 283 453.5 280.5 458.5 275.5 c 4
 463.5 270.5 466 264.333007812 466 257 c 4
 466 250.333007812 463.5 244.333007812 458.5 239 c 4
 453.5 233.666992188 447.333007812 231 440 231 c 4
 433.333007812 231 427.333007812 233.666992188 422 239 c 4
 416.666992188 244.333007812 414 250.333007812 414 257 c 4
 414 264.333007812 416.666992188 270.5 422 275.5 c 4
 427.333007812 280.5 433.333007812 283 440 283 c 4
356 711 m 4xc72160
 363.333007812 711 369.5 708.5 374.5 703.5 c 4
 379.5 698.5 382 692.333007812 382 685 c 4
 382 678.333007812 379.5 672.333007812 374.5 667 c 4
 369.5 661.666992188 363.333007812 659 356 659 c 4
 349.333007812 659 343.333007812 661.666992188 338 667 c 4
 332.666992188 672.333007812 330 678.333007812 330 685 c 4
 330 692.333007812 332.666992188 698.5 338 703.5 c 4
 343.333007812 708.5 349.333007812 711 356 711 c 4xc72160
356 265 m 4xe70160
 363.333007812 265 369.5 262.5 374.5 257.5 c 4
 379.5 252.5 382 246.333007812 382 239 c 4
 382 232.333007812 379.5 226.333007812 374.5 221 c 4
 369.5 215.666992188 363.333007812 213 356 213 c 4
 349.333007812 213 343.333007812 215.666992188 338 221 c 4
 332.666992188 226.333007812 330 232.333007812 330 239 c 4
 330 246.333007812 332.666992188 252.5 338 257.5 c 4
 343.333007812 262.5 349.333007812 265 356 265 c 4xe70160
107 462 m 4xc70920
 107 469.333007812 109.666992188 475.5 115 480.5 c 4
 120.333007812 485.5 126.333007812 488 133 488 c 4
 140.333007812 488 146.5 485.5 151.5 480.5 c 4
 156.5 475.5 159 469.333007812 159 462 c 4
 159 455.333007812 156.5 449.333007812 151.5 444 c 4
 146.5 438.666992188 140.333007812 436 133 436 c 4
 126.333007812 436 120.333007812 438.666992188 115 444 c 4
 109.666992188 449.333007812 107 455.333007812 107 462 c 4xc70920
553 462 m 4xc70124
 553 469.333007812 555.666992188 475.5 561 480.5 c 4
 566.333007812 485.5 572.333007812 488 579 488 c 4
 586.333007812 488 592.5 485.5 597.5 480.5 c 4
 602.5 475.5 605 469.333007812 605 462 c 4
 605 455.333007812 602.5 449.333007812 597.5 444 c 4
 592.5 438.666992188 586.333007812 436 579 436 c 4
 572.333007812 436 566.333007812 438.666992188 561 444 c 4
 555.666992188 449.333007812 553 455.333007812 553 462 c 4xc70124
172 304 m 4xcf0320
 172 311.333007812 174.666992188 317.5 180 322.5 c 4
 185.333007812 327.5 191.333007812 330 198 330 c 4
 205.333007812 330 211.5 327.5 216.5 322.5 c 4
 221.5 317.5 224 311.333007812 224 304 c 4
 224 297.333007812 221.5 291.333007812 216.5 286 c 4
 211.5 280.666992188 205.333007812 278 198 278 c 4
 191.333007812 278 185.333007812 280.666992188 180 286 c 4
 174.666992188 291.333007812 172 297.333007812 172 304 c 4xcf0320
172 620 m 4
 172 627.333007812 174.666992188 633.5 180 638.5 c 4
 185.333007812 643.5 191.333007812 646 198 646 c 4
 205.333007812 646 211.5 643.5 216.5 638.5 c 4
 221.5 633.5 224 627.333007812 224 620 c 4
 224 613.333007812 221.5 607.333007812 216.5 602 c 4
 211.5 596.666992188 205.333007812 594 198 594 c 4xc78320
 191.333007812 594 185.333007812 596.666992188 180 602 c 4
 174.666992188 607.333007812 172 613.333007812 172 620 c 4
488 304 m 4xcf0130
 488 311.333007812 490.666992188 317.5 496 322.5 c 4
 501.333007812 327.5 507.333007812 330 514 330 c 4
 521.333007812 330 527.5 327.5 532.5 322.5 c 4
 537.5 317.5 540 311.333007812 540 304 c 4
 540 297.333007812 537.5 291.333007812 532.5 286 c 4
 527.5 280.666992188 521.333007812 278 514 278 c 4
 507.333007812 278 501.333007812 280.666992188 496 286 c 4
 490.666992188 291.333007812 488 297.333007812 488 304 c 4xcf0130
488 620 m 4
 488 627.333007812 490.666992188 633.5 496 638.5 c 4
 501.333007812 643.5 507.333007812 646 514 646 c 4
 521.333007812 646 527.5 643.5 532.5 638.5 c 4
 537.5 633.5 540 627.333007812 540 620 c 4
 540 613.333007812 537.5 607.333007812 532.5 602 c 4
 527.5 596.666992188 521.333007812 594 514 594 c 4xc78130
 507.333007812 594 501.333007812 596.666992188 496 602 c 4
 490.666992188 607.333007812 488 613.333007812 488 620 c 4
125 378 m 4xc70520
 125 385.333007812 127.666992188 391.5 133 396.5 c 4
 138.333007812 401.5 144.333007812 404 151 404 c 4
 158.333007812 404 164.5 401.5 169.5 396.5 c 4
 174.5 391.5 177 385.333007812 177 378 c 4
 177 371.333007812 174.5 365.333007812 169.5 360 c 4
 164.5 354.666992188 158.333007812 352 151 352 c 4
 144.333007812 352 138.333007812 354.666992188 133 360 c 4
 127.666992188 365.333007812 125 371.333007812 125 378 c 4xc70520
125 546 m 4
 125 553.333007812 127.666992188 559.5 133 564.5 c 4
 138.333007812 569.5 144.333007812 572 151 572 c 4
 158.333007812 572 164.5 569.5 169.5 564.5 c 4
 174.5 559.5 177 553.333007812 177 546 c 4
 177 539.333007812 174.5 533.333007812 169.5 528 c 4
 164.5 522.666992188 158.333007812 520 151 520 c 4
 144.333007812 520 138.333007812 522.666992188 133 528 c 4
 127.666992188 533.333007812 125 539.333007812 125 546 c 4
535 378 m 4xc70128
 535 385.333007812 537.666992188 391.5 543 396.5 c 4
 548.333007812 401.5 554.333007812 404 561 404 c 4
 568.333007812 404 574.5 401.5 579.5 396.5 c 4
 584.5 391.5 587 385.333007812 587 378 c 4
 587 371.333007812 584.5 365.333007812 579.5 360 c 4
 574.5 354.666992188 568.333007812 352 561 352 c 4
 554.333007812 352 548.333007812 354.666992188 543 360 c 4
 537.666992188 365.333007812 535 371.333007812 535 378 c 4xc70128
535 546 m 4
 535 553.333007812 537.666992188 559.5 543 564.5 c 4
 548.333007812 569.5 554.333007812 572 561 572 c 4
 568.333007812 572 574.5 569.5 579.5 564.5 c 4
 584.5 559.5 587 553.333007812 587 546 c 4
 587 539.333007812 584.5 533.333007812 579.5 528 c 4
 574.5 522.666992188 568.333007812 520 561 520 c 4
 554.333007812 520 548.333007812 522.666992188 543 528 c 4
 537.666992188 533.333007812 535 539.333007812 535 546 c 4
459.2109375 -369.318359375 m 0
 435.220703125 -369.318359375 418.360351562 -360.227539062 406.509765625 -345 c 0
 378.216796875 -308.645507812 378.484375 -237.315429688 378.484375 -171.21875 c 1
 378.484375 -152.638671875 378.484375 -140 378.484375 -114 c 1
 308 -114 l 1
 308 -136 308 -151.751953125 308 -171.188476562 c 1
 308 -266.046875 318 -335 346.090820312 -379 c 0
 362.11328125 -404.096679688 398.077148438 -434.350585938 458.775390625 -434.350585938 c 0
 489.751953125 -434.350585938 575 -419 608 -308 c 0
 622.418945312 -259.501953125 628 -214.278320312 628 -164 c 0
 628 -147.943359375 626.728515625 -46.576171875 577 33 c 0
 559.095703125 61.650390625 504.212890625 132.005859375 392.208984375 132.005859375 c 0
 283.91015625 132.005859375 173.993164062 60.0986328125 111.677734375 -70.5517578125 c 0
 88.69921875 -118.728515625 76 -172.284179688 76 -225.822265625 c 0
 76 -265.916992188 83.11328125 -306.041992188 98.322265625 -344.006835938 c 0
 124.39453125 -409.084960938 172.94921875 -463.865234375 236.102539062 -497.650390625 c 1
 267.47265625 -439.924804688 l 1
 235.948242188 -423.034179688 141.270507812 -360.055664062 141.270507812 -226.056640625 c 0
 141.270507812 -56.806640625 269.158203125 66.9990234375 392 66.9990234375 c 0
 521.672851562 66.9990234375 559.497070312 -70.0908203125 559.497070312 -163.099609375 c 0xc711a2
 559.497070312 -176 561.1640625 -369.318359375 459.2109375 -369.318359375 c 0
EndSplineSet
Validated: 41
EndChar

StartChar: baab
Encoding: 23 98 10
Width: 568
VWidth: 1024
Flags: W
HStem: 411.594 59.7354<196.125 327.553>
VStem: 53 66.0215<201.155 272.867 306.771 345.574>
LayerCount: 3
Fore
SplineSet
492.795898438 180.899414062 m 1
 492.795898438 675.26171875 l 1
 427.795898438 675.26171875 l 1
 427.795898438 180.899414062 l 1
 492.795898438 180.899414062 l 1
63.6533203125 181.79296875 m 1
 128.068359375 200.081054688 l 1
 121.712890625 222.762695312 119.021484375 259.9375 119.021484375 272.8671875 c 0
 119.021484375 286.166015625 120.450195312 299.654296875 124.73046875 312.592773438 c 0
 132.14453125 335.001953125 145.141601562 355.825195312 163.984375 372.009765625 c 4
 199.729492188 400.991210938 267.11328125 408.362304688 327.737304688 411.59375 c 1
 327.552734375 471.329101562 l 1
 264.3828125 467.21484375 193.377929688 462.096679688 132.920898438 423.75390625 c 0
 113.579101562 411.16796875 94.5166015625 393.083984375 82.568359375 376.084960938 c 0
 69.208984375 357.079101562 58.2431640625 320.326171875 56.0478515625 306.770507812 c 0
 54.4990234375 297.206054688 53 278.810546875 53 261.03125 c 0
 53 249.337890625 54.0712890625 220.466796875 63.6533203125 181.79296875 c 1
EndSplineSet
Validated: 9
EndChar

StartChar: daad
Encoding: 25 100 11
Width: 572
VWidth: 1024
Flags: W
HStem: 416.013 61.6533<243.734 377.214>
VStem: 451.775 66.3086<535.868 686.121>
LayerCount: 3
Fore
SplineSet
140 696.12890625 m 1
 75 696.12890625 l 1
 75 216.766601562 l 1
 140 216.766601562 l 1
 140 696.12890625 l 1
441.775390625 682.78515625 m 1
 447.354443758 665.074294194 451.775390625 635.141375429 451.775390625 615.078125 c 0
 451.775390625 517.018286849 401.722823434 483.987780295 243.548828125 477.666015625 c 1
 243.734375 416.012695312 l 1
 443.128087872 429.016096328 518.083984375 486.471949221 518.083984375 626.309570312 c 0
 518.083984375 647.497165426 514.22909635 673.459752046 507.357421875 698.552734375 c 1
 441.775390625 682.78515625 l 1
EndSplineSet
Validated: 9
EndChar

StartChar: gaag
Encoding: 28 103 12
Width: 560
VWidth: 1024
Flags: W
VStem: 71.8799 69.6865<468.498 567.763> 424 65<202 426.16>
LayerCount: 3
Fore
SplineSet
466 598 m 0
 434.844726562 662.909179688 338.847363428 722.327410393 219.543945312 685.905273438 c 0
 179.810616336 673.775086621 86.9237600131 632.830087387 71.18359375 512.494140625 c 0
 68.771484375 494.053710938 70.583984375 472.65234375 71.8798828125 456.705078125 c 1
 79.7470703125 458.603515625 132.592773438 467.453125 141.56640625 469.857421875 c 1
 136.556640625 496.818359375 140.624023438 535.322265625 157.217773438 561.491210938 c 0
 176.8671875 592.479492188 212.142578125 614.580078125 247.4609375 624.529296875 c 0
 310.759352567 642.357421904 424 625.9175305 424 477.885742188 c 2
 424 202 l 1
 443.729492187 202 463.2109375 202.000976562 489 202 c 1
 489 540.882891062 489.327148438 549.3984375 466 598 c 0
EndSplineSet
Validated: 41
EndChar

StartChar: haah
Encoding: 29 104 13
Width: 568
VWidth: 1024
Flags: W
HStem: 337.585 65.015<288.268 390.744> 607.137 63.4946<301.582 410.198>
VStem: 68 64.8613<470.877 568.022> 210.185 64.0291<411.229 578.776> 442.355 63.6653<450.776 574.905>
LayerCount: 3
Fore
SplineSet
506.020715382 516.369645415 m 0
 506.020715382 606.982116695 444.353985402 670.631305999 356.563789481 670.631305999 c 0
 266.740437975 670.631305999 210.185062895 609.761813768 210.185062895 513.086620845 c 0
 210.185062895 482.388679709 215.572411959 447.982868409 226.313476562 410.083984375 c 1
 167.683796771 428.496965804 132.861328125 487.348557128 132.861328125 568.022460938 c 5
 68 568.022460938 l 5
 68 130.614257812 l 1
 132.861328125 130.614257812 l 1
 132.861328125 395.716796875 l 1
 159.615159566 365.472351351 238.294088654 337.584541018 296.86788087 337.584541018 c 0
 419.989921078 337.584541018 506.020715382 411.124182864 506.020715382 516.369645415 c 0
274.214175411 512.428668976 m 0
 274.214175411 568.078093618 306.978031918 607.136722466 353.658876009 607.136722466 c 0
 403.281275984 607.136722466 442.355456704 565.36263831 442.355456704 512.311486006 c 0
 442.355456704 447.82858555 387.172762917 402.599535486 308.498986985 402.599535486 c 0
 303.352635804 402.599535486 298.572603873 402.884560768 294.200195312 403.452148438 c 1
 281.859097191 441.356355082 274.214175411 483.041341861 274.214175411 512.428668976 c 0
EndSplineSet
Validated: 9
EndChar

StartChar: i_saau
Encoding: 30 105 14
Width: 764
VWidth: 1024
Flags: W
HStem: -506.801 65.0596<219.327 311.904> -95.2607 64.2578<547.67 633.31> -64.9121 65.002<294.214 455.176> 133.663 72.542<537.707 636.724> 213 52<330.383 374.265> 231 52<246.383 290.265 414.383 458.265> 278 52<172.383 216.265 488.383 532.265> 352 52<125.383 169.265 535.383 579.265> 436 52<107.383 151.265 553.383 597.265> 520 52<125.383 169.265 535.383 579.265> 594 52<172.383 216.265 488.383 532.265> 641 52<246.383 290.265 414.383 458.265> 659 52<330.383 374.265>
VStem: 104.812 65.1348<-386.435 -193.906> 107 52<436.383 480.265> 125 52<352.383 396.265 520.383 564.265> 172 52<278.383 322.265 594.383 638.265> 246 52<231.383 275.265 641.383 685.265> 329.812 69<-425.588 -287.307> 330 52<213.383 257.265 659.383 703.265> 414 52<231.383 275.265 641.383 685.265> 449.761 67.7217<-8.71072 114.075> 488 52<278.383 322.265 594.383 638.265> 535 52<352.383 396.265 520.383 564.265> 553 52<436.383 480.265> 662.664 65.0137<-2.29735 109.455>
LayerCount: 3
Fore
SplineSet
272 693 m 4x91d04040
 279.333007812 693 285.5 690.5 290.5 685.5 c 4
 295.5 680.5 298 674.333007812 298 667 c 4
 298 660.333007812 295.5 654.333007812 290.5 649 c 4
 285.5 643.666992188 279.333007812 641 272 641 c 4
 265.333007812 641 259.333007812 643.666992188 254 649 c 4
 248.666992188 654.333007812 246 660.333007812 246 667 c 4
 246 674.333007812 248.666992188 680.5 254 685.5 c 4
 259.333007812 690.5 265.333007812 693 272 693 c 4x91d04040
440 693 m 4
 447.333007812 693 453.5 690.5 458.5 685.5 c 4
 463.5 680.5 466 674.333007812 466 667 c 4
 466 660.333007812 463.5 654.333007812 458.5 649 c 4
 453.5 643.666992188 447.333007812 641 440 641 c 4
 433.333007812 641 427.333007812 643.666992188 422 649 c 4
 416.666992188 654.333007812 414 660.333007812 414 667 c 4x91d04840
 414 674.333007812 416.666992188 680.5 422 685.5 c 4
 427.333007812 690.5 433.333007812 693 440 693 c 4
272 283 m 4x95c04040
 279.333007812 283 285.5 280.5 290.5 275.5 c 4
 295.5 270.5 298 264.333007812 298 257 c 4
 298 250.333007812 295.5 244.333007812 290.5 239 c 4
 285.5 233.666992188 279.333007812 231 272 231 c 4
 265.333007812 231 259.333007812 233.666992188 254 239 c 4
 248.666992188 244.333007812 246 250.333007812 246 257 c 4
 246 264.333007812 248.666992188 270.5 254 275.5 c 4
 259.333007812 280.5 265.333007812 283 272 283 c 4x95c04040
440 283 m 4
 447.333007812 283 453.5 280.5 458.5 275.5 c 4
 463.5 270.5 466 264.333007812 466 257 c 4
 466 250.333007812 463.5 244.333007812 458.5 239 c 4
 453.5 233.666992188 447.333007812 231 440 231 c 4
 433.333007812 231 427.333007812 233.666992188 422 239 c 4
 416.666992188 244.333007812 414 250.333007812 414 257 c 4x95c04840
 414 264.333007812 416.666992188 270.5 422 275.5 c 4
 427.333007812 280.5 433.333007812 283 440 283 c 4
356 711 m 4x91c85040
 363.333007812 711 369.5 708.5 374.5 703.5 c 4
 379.5 698.5 382 692.333007812 382 685 c 4
 382 678.333007812 379.5 672.333007812 374.5 667 c 4
 369.5 661.666992188 363.333007812 659 356 659 c 4
 349.333007812 659 343.333007812 661.666992188 338 667 c 4
 332.666992188 672.333007812 330 678.333007812 330 685 c 4
 330 692.333007812 332.666992188 698.5 338 703.5 c 4
 343.333007812 708.5 349.333007812 711 356 711 c 4x91c85040
356 265 m 4x99c05040
 363.333007812 265 369.5 262.5 374.5 257.5 c 4
 379.5 252.5 382 246.333007812 382 239 c 4
 382 232.333007812 379.5 226.333007812 374.5 221 c 4
 369.5 215.666992188 363.333007812 213 356 213 c 4
 349.333007812 213 343.333007812 215.666992188 338 221 c 4
 332.666992188 226.333007812 330 232.333007812 330 239 c 4
 330 246.333007812 332.666992188 252.5 338 257.5 c 4
 343.333007812 262.5 349.333007812 265 356 265 c 4x99c05040
107 462 m 4x91c24040
 107 469.333007812 109.666992188 475.5 115 480.5 c 4
 120.333007812 485.5 126.333007812 488 133 488 c 4
 140.333007812 488 146.5 485.5 151.5 480.5 c 4
 156.5 475.5 159 469.333007812 159 462 c 4
 159 455.333007812 156.5 449.333007812 151.5 444 c 4
 146.5 438.666992188 140.333007812 436 133 436 c 4
 126.333007812 436 120.333007812 438.666992188 115 444 c 4
 109.666992188 449.333007812 107 455.333007812 107 462 c 4x91c24040
553 462 m 4x91c040c0
 553 469.333007812 555.666992188 475.5 561 480.5 c 4
 566.333007812 485.5 572.333007812 488 579 488 c 4
 586.333007812 488 592.5 485.5 597.5 480.5 c 4
 602.5 475.5 605 469.333007812 605 462 c 4
 605 455.333007812 602.5 449.333007812 597.5 444 c 4
 592.5 438.666992188 586.333007812 436 579 436 c 4
 572.333007812 436 566.333007812 438.666992188 561 444 c 4
 555.666992188 449.333007812 553 455.333007812 553 462 c 4x91c040c0
172 304 m 4x93c0c040
 172 311.333007812 174.666992188 317.5 180 322.5 c 4
 185.333007812 327.5 191.333007812 330 198 330 c 4
 205.333007812 330 211.5 327.5 216.5 322.5 c 4
 221.5 317.5 224 311.333007812 224 304 c 4
 224 297.333007812 221.5 291.333007812 216.5 286 c 4
 211.5 280.666992188 205.333007812 278 198 278 c 4
 191.333007812 278 185.333007812 280.666992188 180 286 c 4
 174.666992188 291.333007812 172 297.333007812 172 304 c 4x93c0c040
172 620 m 4
 172 627.333007812 174.666992188 633.5 180 638.5 c 4
 185.333007812 643.5 191.333007812 646 198 646 c 4
 205.333007812 646 211.5 643.5 216.5 638.5 c 4
 221.5 633.5 224 627.333007812 224 620 c 4
 224 613.333007812 221.5 607.333007812 216.5 602 c 4
 211.5 596.666992188 205.333007812 594 198 594 c 4x91e0c040
 191.333007812 594 185.333007812 596.666992188 180 602 c 4
 174.666992188 607.333007812 172 613.333007812 172 620 c 4
488 304 m 4x93c04240
 488 311.333007812 490.666992188 317.5 496 322.5 c 4
 501.333007812 327.5 507.333007812 330 514 330 c 4
 521.333007812 330 527.5 327.5 532.5 322.5 c 4
 537.5 317.5 540 311.333007812 540 304 c 4
 540 297.333007812 537.5 291.333007812 532.5 286 c 4
 527.5 280.666992188 521.333007812 278 514 278 c 4
 507.333007812 278 501.333007812 280.666992188 496 286 c 4
 490.666992188 291.333007812 488 297.333007812 488 304 c 4x93c04240
488 620 m 4
 488 627.333007812 490.666992188 633.5 496 638.5 c 4
 501.333007812 643.5 507.333007812 646 514 646 c 4
 521.333007812 646 527.5 643.5 532.5 638.5 c 4
 537.5 633.5 540 627.333007812 540 620 c 4
 540 613.333007812 537.5 607.333007812 532.5 602 c 4
 527.5 596.666992188 521.333007812 594 514 594 c 4x91e04240
 507.333007812 594 501.333007812 596.666992188 496 602 c 4
 490.666992188 607.333007812 488 613.333007812 488 620 c 4
125 378 m 4x91c14040
 125 385.333007812 127.666992188 391.5 133 396.5 c 4
 138.333007812 401.5 144.333007812 404 151 404 c 4
 158.333007812 404 164.5 401.5 169.5 396.5 c 4
 174.5 391.5 177 385.333007812 177 378 c 4
 177 371.333007812 174.5 365.333007812 169.5 360 c 4
 164.5 354.666992188 158.333007812 352 151 352 c 4
 144.333007812 352 138.333007812 354.666992188 133 360 c 4
 127.666992188 365.333007812 125 371.333007812 125 378 c 4x91c14040
125 546 m 4
 125 553.333007812 127.666992188 559.5 133 564.5 c 4
 138.333007812 569.5 144.333007812 572 151 572 c 4
 158.333007812 572 164.5 569.5 169.5 564.5 c 4
 174.5 559.5 177 553.333007812 177 546 c 4
 177 539.333007812 174.5 533.333007812 169.5 528 c 4
 164.5 522.666992188 158.333007812 520 151 520 c 4
 144.333007812 520 138.333007812 522.666992188 133 528 c 4
 127.666992188 533.333007812 125 539.333007812 125 546 c 4
535 378 m 4x91c04140
 535 385.333007812 537.666992188 391.5 543 396.5 c 4
 548.333007812 401.5 554.333007812 404 561 404 c 4
 568.333007812 404 574.5 401.5 579.5 396.5 c 4
 584.5 391.5 587 385.333007812 587 378 c 4
 587 371.333007812 584.5 365.333007812 579.5 360 c 4
 574.5 354.666992188 568.333007812 352 561 352 c 4
 554.333007812 352 548.333007812 354.666992188 543 360 c 4
 537.666992188 365.333007812 535 371.333007812 535 378 c 4x91c04140
535 546 m 4
 535 553.333007812 537.666992188 559.5 543 564.5 c 4
 548.333007812 569.5 554.333007812 572 561 572 c 4
 568.333007812 572 574.5 569.5 579.5 564.5 c 4
 584.5 559.5 587 553.333007812 587 546 c 4
 587 539.333007812 584.5 533.333007812 579.5 528 c 4
 574.5 522.666992188 568.333007812 520 561 520 c 4
 554.333007812 520 548.333007812 522.666992188 543 528 c 4
 537.666992188 533.333007812 535 539.333007812 535 546 c 4
568 -96 m 1
 672.58984375 -96 727.677734375 -18.4482421875 727.677734375 57.34765625 c 0
 727.677734375 140.438476562 665.260742188 204.977539062 589.36328125 206.185546875 c 0
 588.63671875 206.185546875 587.908203125 206.205078125 587.1796875 206.205078125 c 0
 520.737304688 206.205078125 449.760742188 158.889648438 449.760742188 52.7666015625 c 0
 449.760742188 32.1142578125 451.182617188 22.1279296875 455.879882812 -10.236328125 c 1
 431.22265625 -5.01171875 407.153320312 0.08984375 376.864257812 0.08984375 c 0
 225.798828125 0.08984375 104.811523438 -135.104492188 104.811523438 -291.528320312 c 0
 104.811523438 -307.75 105.715820312 -378.727539062 146.365234375 -437.064453125 c 0
 159.329101562 -455.668945312 201.25390625 -506.80078125 272.315429688 -506.80078125 c 0
 289.959960938 -506.80078125 336.09765625 -502.059570312 369.274414062 -462.807617188 c 0
 402.811523438 -423.12890625 398.811523438 -354.12890625 398.811523438 -288.12890625 c 0
 398.811523438 -219.12890625 398.811523438 -238.12890625 398.811523438 -177.12890625 c 1
 329.811523438 -177.12890625 l 1
 329.811523438 -240.12890625 329.811523438 -237.85546875 329.811523438 -287.306640625 c 0
 329.811523438 -356.12890625 329.981445312 -431.739257812 285.077148438 -440.573242188 c 0
 281.06640625 -441.362304688 276.887695312 -441.741210938 272.6171875 -441.741210938 c 0
 215.930664062 -441.741210938 169.946289062 -379.462890625 169.946289062 -292.3359375 c 0
 169.946289062 -168.9296875 264.92578125 -64.912109375 376.99609375 -64.912109375 c 0xb1c46440
 403.020507812 -64.912109375 425.018554688 -70.21875 472.196289062 -81.599609375 c 1
 479.34375 -105.51171875 499.2578125 -172.0703125 547.944335938 -246.564453125 c 1
 604.791992188 -211.317382812 l 1
 577.056640625 -168.763671875 562.172851562 -134.793945312 547.146484375 -95.2607421875 c 1xd1c46440
 567.875976562 -95.9951171875 567.875976562 -95.9951171875 568.000976562 -95.9951171875 c 1
 568 -96 l 1
517.482421875 49.365234375 m 0
 517.482421875 116.12109375 558.384765625 133.663085938 586.770507812 133.663085938 c 0
 629.787109375 133.663085938 662.6640625 97.6220703125 662.6640625 53.802734375 c 0
 662.6640625 38.9775390625 658.875976562 24.1337890625 651.653320312 11.49609375 c 0
 640.220703125 -8.505859375 616.75390625 -31.0029296875 567.458007812 -31.0029296875 c 0xd1c04440
 553.46484375 -31.0029296875 541.873046875 -29.3681640625 527.888671875 -27.2353515625 c 1
 519.458007812 11.798828125 517.482421875 32.1396484375 517.482421875 49.365234375 c 0
  Spiro
    529.117 100.852 o
    556.222 126.658 o
    586.771 133.663 o
    625.532 122.717 o
    652.567 93.9471 o
    662.665 53.8021 o
    661.417 39.0681 o
    657.714 24.7731 o
    651.654 11.4961 o
    635.72 -8.39291 o
    608.622 -24.4419 o
    567.459 -31.0029 o
    554.101 -30.5009 o
    541.241 -29.1589 o
    527.889 -27.2359 v
    521.449 6.11609 o
    518.306 30.5451 o
    517.483 49.3651 o
    0 0 z
  EndSpiro
EndSplineSet
Validated: 41
EndChar

StartChar: kaak
Encoding: 32 107 15
Width: 740
VWidth: 1024
Flags: W
HStem: 460.492 64.998<392.12 551.137>
VStem: 253.229 65<599.72 649.598>
LayerCount: 3
Fore
SplineSet
693.40234375 600.875976562 m 5
 635.064453125 629.607421875 l 5
 601.386133204 566.879105817 536.60363621 525.490234375 472.098632812 525.490234375 c 0
 397.65593353 525.490234375 333.871903495 577.221425222 318.934570312 649.711914062 c 1
 253 649.59765625 l 1
 253.229492188 156.952148438 l 1
 318.229492188 156.778320312 l 1
 318.03125 519.826171875 l 1
 369.921139808 476.951411846 412.646098281 460.4921875 472.05078125 460.4921875 c 0
 563.493934227 460.4921875 647.607543667 513.838408388 693.40234375 600.876953125 c 5
 693.40234375 600.875976562 l 5
EndSplineSet
Validated: 5
EndChar

StartChar: laal
Encoding: 33 108 16
Width: 685
VWidth: 1024
Flags: W
HStem: 454.168 64.8691<157.73 309.582> 474.389 69.9941<374.572 541.007>
VStem: 60 64.9883<551.049 626.434>
LayerCount: 3
Fore
SplineSet
309.58203125 730.7578125 m 5x60
 309.58203125 521.26953125 l 1
 284.752929688 518.258789062 259.638671875 517.504882812 234.685546875 519.037109375 c 0
 209.1875 520.602539062 185.8359375 524.859375 167.724609375 534.466796875 c 0
 152.624023438 542.477539062 140.009765625 555.422851562 133.341796875 569.9609375 c 0
 126.793945312 584.235351562 124.98828125 603.827148438 124.98828125 626.43359375 c 2
 124.98828125 657.603515625 l 1
 124.98828125 696.41015625 l 1
 60 696.41015625 l 1
 60 657.603515625 l 1
 60 626.43359375 l 2
 60 601.340820312 60.9306640625 571.947265625 74.26953125 542.865234375 c 0
 87.48828125 514.046875 110.23046875 491.397460938 137.267578125 477.0546875 c 0
 168.09375 460.702148438 200.909179688 455.997070312 230.703125 454.16796875 c 0xa0
 256.995117188 452.553710938 283.395507812 453.181640625 309.58203125 455.921875 c 1
 309.58203125 178.439453125 l 1
 374.572265625 178.439453125 l 1
 374.572265625 474.388671875 l 1
 396.641601562 484.702148438 420.528320312 491.329101562 444.73828125 493.79296875 c 0
 470.267578125 496.391601562 494.721679688 493.491210938 512.330078125 483.40234375 c 0
 523.9609375 476.73828125 534.298828125 465.903320312 541.533203125 453.03515625 c 0
 548.744140625 440.208007812 553.611328125 423.58203125 558.328125 404.609375 c 2
 568.04296875 365.53125 l 1
 631.11328125 381.208984375 l 1
 621.3984375 420.287109375 l 2
 616.44140625 440.227539062 610.624023438 462.756835938 598.185546875 484.8828125 c 0
 585.770507812 506.966796875 567.797851562 526.5234375 544.63671875 539.79296875 c 0
 518.930664062 554.520507812 490.990234375 559.595703125 464.30078125 559.75390625 c 0
 455.404296875 559.806640625 446.647460938 559.313476562 438.158203125 558.44921875 c 0
 416.48046875 556.243164062 395.12890625 551.478515625 374.572265625 544.3828125 c 1
 374.572265625 730.7578125 l 5
 309.58203125 730.7578125 l 5x60
EndSplineSet
Validated: 41
EndChar

StartChar: maam
Encoding: 34 109 17
Width: 627
VWidth: 1024
Flags: W
HStem: 425.905 56.9199<278.435 285.772 354.38 426.531>
VStem: 511.303 65.0029<554.663 724.238>
LayerCount: 3
Fore
SplineSet
310.162109375 482.825195312 m 1
 288.283203125 482.825195312 188.498046875 483.201171875 88.6689453125 552.038085938 c 1
 88.6689453125 545.845703125 51 492.883789062 51 499.064453125 c 1
 79.734375 480.87890625 160.05859375 433.9296875 278.434570312 426.409179688 c 2
 285.772460938 425.905273438 l 1
 285.772460938 146.795898438 l 1
 354.379882812 146.795898438 l 1
 354.379882812 427.494140625 l 1
 380.129882812 429.985351562 432.4765625 435.048828125 481.526367188 458.482421875 c 1
 530.09765625 488.3515625 576.305664062 541.194335938 576.305664062 634.14453125 c 0
 576.305664062 678.173828125 563.54296875 721.763671875 539.609375 759.456054688 c 5
 539.609375 753.15625 484.98046875 717.856445312 484.98046875 724.155273438 c 5
 502.045898438 697.0859375 511.302734375 665.390625 511.302734375 633.970703125 c 0
 511.302734375 604.36328125 506.55078125 550.819335938 447.94140625 514.397460938 c 0
 429.30859375 503.581054688 383.951171875 482.825195312 310.163085938 482.825195312 c 1
 310.162109375 482.825195312 l 1
EndSplineSet
Validated: 37
EndChar

StartChar: naan
Encoding: 35 110 18
Width: 559
VWidth: 1024
Flags: W
HStem: 377.089 65.0029<167.376 278.518> 483.585 77.2051<366.763 421.152>
VStem: 66.6729 65.0049<478.122 573.712> 428.256 63.9795<410.288 474.923>
LayerCount: 3
Fore
SplineSet
66.6728515625 573.452148438 m 0
 66.6728515625 541.822265625 73.1337890625 487.650390625 83.6220703125 466.42578125 c 0
 110.19921875 412.638671875 164.81640625 377.088867188 224.704101562 377.088867188 c 0
 294.014648438 377.088867188 328.709960938 417.763671875 346.385742188 438.485351562 c 0
 377.190672842 474.576335702 386.635752235 483.584960938 399.826171875 483.584960938 c 0
 407.200195312 483.584960938 413.5859375 479.833984375 417.891601562 475.137695312 c 0
 422.05859375 470.591796875 428.1328125 463.362304688 428.1328125 420.02734375 c 0
 428.1328125 419.341796875 427.983398438 402.525390625 427.983398438 402.348632812 c 0
 427.787165099 309.331226472 427.656194453 247.249268553 428.255859375 180.220703125 c 1
 492.235351562 180.341796875 l 1
 492.217773438 183.8359375 492.209960938 187.634765625 492.209960938 191.669921875 c 0
 493 410.288085938 l 0
 493 441.831054688 492.6328125 501.49609375 451.34765625 540.98828125 c 0
 442.798828125 549.166015625 427.711914062 560.790039062 411.02734375 560.790039062 c 0
 396.684570312 560.790039062 376.69140625 552.586914062 364.936523438 544.7265625 c 0
 324.509924752 518.419839552 282.652297485 442.091796875 224.487304688 442.091796875 c 0
 191.61328125 442.091796875 158.130859375 462.358398438 141.885742188 495.234375 c 0
 134.208984375 510.770507812 131.677734375 552.921875 131.677734375 573.711914062 c 0
 131.677734375 575.948242188 131.688476562 577.764648438 131.885742188 581.198242188 c 2
 131.807617188 673.744140625 l 1
 67 673.689453125 l 1
 66.6728515625 573.452148438 l 0
EndSplineSet
Validated: 41
EndChar

StartChar: o_saau
Encoding: 36 111 19
Width: 633
VWidth: 1024
Flags: W
HStem: -493.406 60.4941<98.2251 211.018> -219.154 65.1543<145.282 246.333 317.333 400.664> 92.998 65.1914<222.265 411.162> 213 52<254.383 298.265> 231 52<170.383 214.265 338.383 382.265> 278 52<96.3828 140.265 412.383 456.265> 352 52<49.3828 93.2648 459.383 503.265> 436 52<31.3828 75.2648 477.383 521.265> 520 52<49.3828 93.2648 459.383 503.265> 594 52<96.3828 140.265 412.383 456.265> 641 52<170.383 214.265 338.383 382.265> 659 52<254.383 298.265>
VStem: 11.333 65.0059<-410.243 -274.556> 31 52<436.383 480.265> 49 52<352.383 396.265 520.383 564.265> 96 52<278.383 322.265 594.383 638.265> 170 52<231.383 275.265 641.383 685.265> 246.333 69<-394.752 -263.16> 254 52<213.383 257.265 659.383 703.265> 338 52<231.383 275.265 641.383 685.265> 412 52<278.383 322.265 594.383 638.265> 459 52<352.383 396.265 520.383 564.265> 476.343 65.0371<-87.3147 35.5195> 477 52<436.383 480.265>
LayerCount: 3
Fore
SplineSet
196 693 m 0xe3a090
 203.333007812 693 209.5 690.5 214.5 685.5 c 0
 219.5 680.5 222 674.333007812 222 667 c 0
 222 660.333007812 219.5 654.333007812 214.5 649 c 0
 209.5 643.666992188 203.333007812 641 196 641 c 0
 189.333007812 641 183.333007812 643.666992188 178 649 c 0
 172.666992188 654.333007812 170 660.333007812 170 667 c 0
 170 674.333007812 172.666992188 680.5 178 685.5 c 0
 183.333007812 690.5 189.333007812 693 196 693 c 0xe3a090
364 693 m 0
 371.333007812 693 377.5 690.5 382.5 685.5 c 0
 387.5 680.5 390 674.333007812 390 667 c 0
 390 660.333007812 387.5 654.333007812 382.5 649 c 0
 377.5 643.666992188 371.333007812 641 364 641 c 0
 357.333007812 641 351.333007812 643.666992188 346 649 c 0
 340.666992188 654.333007812 338 660.333007812 338 667 c 0
 338 674.333007812 340.666992188 680.5 346 685.5 c 0
 351.333007812 690.5 357.333007812 693 364 693 c 0
196 283 m 0xeb8090
 203.333007812 283 209.5 280.5 214.5 275.5 c 0
 219.5 270.5 222 264.333007812 222 257 c 0
 222 250.333007812 219.5 244.333007812 214.5 239 c 0
 209.5 233.666992188 203.333007812 231 196 231 c 0
 189.333007812 231 183.333007812 233.666992188 178 239 c 0
 172.666992188 244.333007812 170 250.333007812 170 257 c 0
 170 264.333007812 172.666992188 270.5 178 275.5 c 0
 183.333007812 280.5 189.333007812 283 196 283 c 0xeb8090
364 283 m 0
 371.333007812 283 377.5 280.5 382.5 275.5 c 0
 387.5 270.5 390 264.333007812 390 257 c 0
 390 250.333007812 387.5 244.333007812 382.5 239 c 0
 377.5 233.666992188 371.333007812 231 364 231 c 0
 357.333007812 231 351.333007812 233.666992188 346 239 c 0
 340.666992188 244.333007812 338 250.333007812 338 257 c 0
 338 264.333007812 340.666992188 270.5 346 275.5 c 0
 351.333007812 280.5 357.333007812 283 364 283 c 0
280 711 m 0xe390b0
 287.333007812 711 293.5 708.5 298.5 703.5 c 0
 303.5 698.5 306 692.333007812 306 685 c 0
 306 678.333007812 303.5 672.333007812 298.5 667 c 0
 293.5 661.666992188 287.333007812 659 280 659 c 0
 273.333007812 659 267.333007812 661.666992188 262 667 c 0
 256.666992188 672.333007812 254 678.333007812 254 685 c 0
 254 692.333007812 256.666992188 698.5 262 703.5 c 0
 267.333007812 708.5 273.333007812 711 280 711 c 0xe390b0
280 265 m 0xf380b0
 287.333007812 265 293.5 262.5 298.5 257.5 c 0
 303.5 252.5 306 246.333007812 306 239 c 0
 306 232.333007812 303.5 226.333007812 298.5 221 c 0
 293.5 215.666992188 287.333007812 213 280 213 c 0
 273.333007812 213 267.333007812 215.666992188 262 221 c 0
 256.666992188 226.333007812 254 232.333007812 254 239 c 0
 254 246.333007812 256.666992188 252.5 262 257.5 c 0
 267.333007812 262.5 273.333007812 265 280 265 c 0xf380b0
31 462 m 0xe38490
 31 469.333007812 33.6669921875 475.5 39 480.5 c 0
 44.3330078125 485.5 50.3330078125 488 57 488 c 0
 64.3330078125 488 70.5 485.5 75.5 480.5 c 0
 80.5 475.5 83 469.333007812 83 462 c 0
 83 455.333007812 80.5 449.333007812 75.5 444 c 0
 70.5 438.666992188 64.3330078125 436 57 436 c 0
 50.3330078125 436 44.3330078125 438.666992188 39 444 c 0
 33.6669921875 449.333007812 31 455.333007812 31 462 c 0xe38490
477 462 m 0xe38091
 477 469.333007812 479.666992188 475.5 485 480.5 c 0
 490.333007812 485.5 496.333007812 488 503 488 c 0
 510.333007812 488 516.5 485.5 521.5 480.5 c 0
 526.5 475.5 529 469.333007812 529 462 c 0
 529 455.333007812 526.5 449.333007812 521.5 444 c 0
 516.5 438.666992188 510.333007812 436 503 436 c 0
 496.333007812 436 490.333007812 438.666992188 485 444 c 0
 479.666992188 449.333007812 477 455.333007812 477 462 c 0xe38091
96 304 m 0xe78190
 96 311.333007812 98.6669921875 317.5 104 322.5 c 0
 109.333007812 327.5 115.333007812 330 122 330 c 0
 129.333007812 330 135.5 327.5 140.5 322.5 c 0
 145.5 317.5 148 311.333007812 148 304 c 0
 148 297.333007812 145.5 291.333007812 140.5 286 c 0
 135.5 280.666992188 129.333007812 278 122 278 c 0
 115.333007812 278 109.333007812 280.666992188 104 286 c 0
 98.6669921875 291.333007812 96 297.333007812 96 304 c 0xe78190
96 620 m 0
 96 627.333007812 98.6669921875 633.5 104 638.5 c 0
 109.333007812 643.5 115.333007812 646 122 646 c 0
 129.333007812 646 135.5 643.5 140.5 638.5 c 0
 145.5 633.5 148 627.333007812 148 620 c 0
 148 613.333007812 145.5 607.333007812 140.5 602 c 0
 135.5 596.666992188 129.333007812 594 122 594 c 0xe3c190
 115.333007812 594 109.333007812 596.666992188 104 602 c 0
 98.6669921875 607.333007812 96 613.333007812 96 620 c 0
412 304 m 0xe78098
 412 311.333007812 414.666992188 317.5 420 322.5 c 0
 425.333007812 327.5 431.333007812 330 438 330 c 0
 445.333007812 330 451.5 327.5 456.5 322.5 c 0
 461.5 317.5 464 311.333007812 464 304 c 0
 464 297.333007812 461.5 291.333007812 456.5 286 c 0
 451.5 280.666992188 445.333007812 278 438 278 c 0
 431.333007812 278 425.333007812 280.666992188 420 286 c 0
 414.666992188 291.333007812 412 297.333007812 412 304 c 0xe78098
412 620 m 0
 412 627.333007812 414.666992188 633.5 420 638.5 c 0
 425.333007812 643.5 431.333007812 646 438 646 c 0
 445.333007812 646 451.5 643.5 456.5 638.5 c 0
 461.5 633.5 464 627.333007812 464 620 c 0
 464 613.333007812 461.5 607.333007812 456.5 602 c 0
 451.5 596.666992188 445.333007812 594 438 594 c 0xe3c098
 431.333007812 594 425.333007812 596.666992188 420 602 c 0
 414.666992188 607.333007812 412 613.333007812 412 620 c 0
49 378 m 0xe38290
 49 385.333007812 51.6669921875 391.5 57 396.5 c 0
 62.3330078125 401.5 68.3330078125 404 75 404 c 0
 82.3330078125 404 88.5 401.5 93.5 396.5 c 0
 98.5 391.5 101 385.333007812 101 378 c 0
 101 371.333007812 98.5 365.333007812 93.5 360 c 0
 88.5 354.666992188 82.3330078125 352 75 352 c 0
 68.3330078125 352 62.3330078125 354.666992188 57 360 c 0
 51.6669921875 365.333007812 49 371.333007812 49 378 c 0xe38290
49 546 m 0
 49 553.333007812 51.6669921875 559.5 57 564.5 c 0
 62.3330078125 569.5 68.3330078125 572 75 572 c 0
 82.3330078125 572 88.5 569.5 93.5 564.5 c 0
 98.5 559.5 101 553.333007812 101 546 c 0
 101 539.333007812 98.5 533.333007812 93.5 528 c 0
 88.5 522.666992188 82.3330078125 520 75 520 c 0
 68.3330078125 520 62.3330078125 522.666992188 57 528 c 0
 51.6669921875 533.333007812 49 539.333007812 49 546 c 0
459 378 m 0xe38094
 459 385.333007812 461.666992188 391.5 467 396.5 c 0
 472.333007812 401.5 478.333007812 404 485 404 c 0
 492.333007812 404 498.5 401.5 503.5 396.5 c 0
 508.5 391.5 511 385.333007812 511 378 c 0
 511 371.333007812 508.5 365.333007812 503.5 360 c 0
 498.5 354.666992188 492.333007812 352 485 352 c 0
 478.333007812 352 472.333007812 354.666992188 467 360 c 0
 461.666992188 365.333007812 459 371.333007812 459 378 c 0xe38094
459 546 m 0
 459 553.333007812 461.666992188 559.5 467 564.5 c 0
 472.333007812 569.5 478.333007812 572 485 572 c 0
 492.333007812 572 498.5 569.5 503.5 564.5 c 0
 508.5 559.5 511 553.333007812 511 546 c 0
 511 539.333007812 508.5 533.333007812 503.5 528 c 0
 498.5 522.666992188 492.333007812 520 485 520 c 0
 478.333007812 520 472.333007812 522.666992188 467 528 c 0
 461.666992188 533.333007812 459 539.333007812 459 546 c 0
541.379882812 -25.46875 m 0xe388d2
 541.379882812 78.099609375 446.370117188 158.189453125 323.5078125 158.189453125 c 0
 228.141601562 158.189453125 130.732421875 112.520507812 68.9736328125 38.8544921875 c 1
 119.73828125 -1.77734375 l 1
 170.883789062 56.728515625 248.97265625 92.998046875 323.79296875 92.998046875 c 0
 409.973632812 92.998046875 476.342773438 41.5947265625 476.342773438 -25.1533203125 c 0
 476.342773438 -82.6552734375 432.166992188 -128.98828125 360.568359375 -146.581054688 c 0
 347.728515625 -149.685546875 338.846679688 -151.149414062 315.333007812 -154 c 1
 315.333007812 -24.16015625 l 1
 246.333007812 -24.16015625 l 1
 246.333007812 -156.926757812 l 1
 191.21484375 -157.896484375 164.642578125 -161.551757812 133.939453125 -172.263671875 c 0
 60.3154296875 -199.302734375 11.3330078125 -269.197265625 11.3330078125 -347.216796875 c 0
 11.3330078125 -432.8984375 70.1376953125 -493.40625 153.40625 -493.40625 c 0
 257.333007812 -493.40625 317.333007812 -414.16015625 317.333007812 -298.16015625 c 9
 317.333007812 -219.154296875 l 1
 457.827148438 -204.551757812 541.379882812 -132.321289062 541.379882812 -25.46875 c 0xe388d2
249.333007812 -222.16015625 m 1
 249.333007812 -263.16015625 l 18
 249.333007812 -380.920898438 222.333007812 -432.912109375 148.484375 -432.912109375 c 0
 104.524414062 -432.912109375 76.3388671875 -399.37109375 76.3388671875 -347.059570312 c 0
 76.3388671875 -264.651367188 129.362304688 -226.370117188 249.333007812 -222.16015625 c 1
EndSplineSet
Validated: 9
EndChar

StartChar: paap
Encoding: 37 112 20
Width: 683
VWidth: 1024
Flags: W
HStem: 370.293 71.4629<154.079 318.54 387.147 465.609>
VStem: 318.595 68.5586<448.883 572.255>
LayerCount: 3
Fore
SplineSet
537.768554688 736.084960938 m 1
 524.973632812 726.080078125 474.64453125 686.935546875 474.64453125 686.935546875 c 1
 486.956054688 673.813476562 507.067382812 657.390625 520.432617188 640.137695312 c 0
 561.467773438 587.16796875 574.973632812 532.170898438 525.138671875 485.365234375 c 0
 499.03125 464.282226562 453.215820312 450.427734375 387.147460938 442.375 c 1
 387.153320312 448.8828125 l 2
 387.153320312 504.936523438 383.462890625 544.841796875 375.907226562 572.263671875 c 0
 345.0546875 684.232421875 221.061523438 694.25390625 129.915039062 616.137695312 c 0
 98.3251953125 589.064453125 72.8251953125 549.399414062 67.3154296875 508.163085938 c 0
 50.06640625 379.059570312 206.145507812 359.66796875 318.793945312 370.29296875 c 1
 318.793945312 124.53515625 l 1
 386.883789062 124.53515625 l 1
 387.090820312 376.029296875 l 1
 387.090820312 376.953125 l 1
 654.03125 406.178710938 662.359375 571.899414062 572.276367188 698.119140625 c 0
 562.306640625 712.014648438 552.25 720.130859375 537.768554688 736.084960938 c 1
318.594726562 485.16796875 m 0
 318.594726562 480.5390625 318.594726562 454.384765625 318.540039062 441.755859375 c 1
 163.084960938 419.981445312 89.9482421875 471.958984375 166.034179688 559.575195312 c 0
 195.987304688 594.064453125 318.594726562 648.791992188 318.594726562 485.16796875 c 0
EndSplineSet
Validated: 41
EndChar

StartChar: raar
Encoding: 39 114 21
Width: 660
VWidth: 1024
Flags: W
VStem: 523.31 65<388.588 553.639>
LayerCount: 3
Fore
SplineSet
452.8203125 345.13671875 m 1
 448.456054688 356.78515625 435.095703125 399.296875 433.122070312 406.868164062 c 1
 409.986328125 399.41796875 383.525390625 391.860351562 370.375976562 388.484375 c 1
 369.553959635 389.739777975 313.237759522 480.06503738 318.666015625 529.3515625 c 0
 320.703125 547.836914062 326.698242188 567.748046875 339.733398438 581.01171875 c 0
 354.168945312 595.701171875 376.043945312 603.2109375 396.528320312 605.3359375 c 0
 523.313217291 618.489192497 523.311792854 495.85663056 523.310546875 388.587890625 c 2
 523.309570312 171.484375 l 1
 588.309570312 171.484375 l 1
 588.309570312 391.84765625 l 2
 588.309570312 515.513026563 588.309570312 615.862159436 473.666015625 661.569335938 c 0
 367.841331423 703.758552553 294.960680628 633.09186477 274.483398438 600.868164062 c 0
 263.124023438 582.994140625 256.06640625 561.962890625 253.314453125 540.96484375 c 0
 244.480085061 473.542746392 282.840684371 408.631355151 303.734375 373.276367188 c 1
 110.13630042 345.32041428 122.412216542 453.863238329 137.471679688 514.8515625 c 0
 141.705078125 531.994140625 147.497070312 546.4765625 155.939453125 564.501953125 c 1
 140.885742188 571.119140625 97.8388671875 587.53125 88.8486328125 591.728515625 c 1
 83.7275390625 575.88671875 74.2880859375 542.463867188 70.3583984375 517.157226562 c 0
 18.6039182618 183.850698792 448.904985357 343.634377096 452.8203125 345.13671875 c 1
EndSplineSet
Validated: 41
EndChar

StartChar: saas
Encoding: 40 115 22
Width: 648
VWidth: 1024
Flags: W
HStem: 525.16 65.7324<340.748 497.178>
VStem: 272.079 68.6689<157.66 354.937 406.087 518.794>
LayerCount: 3
Fore
SplineSet
340.62109375 725.612304688 m 1
 272.079101562 725.612304688 l 1
 272.079101562 584.755859375 l 1
 221.578125 582.157226562 211.3515625 580.108398438 56 561.327148438 c 1
 56 557.028320312 65.8671875 490.946289062 65.8671875 494.264648438 c 0
 140.6640625 504.489257812 233.159179688 516.737304688 271.536132812 518.793945312 c 1
 271.536132812 506.6484375 272.069335938 157.407226562 272.069335938 157.407226562 c 1
 340.622070312 157.407226562 l 1
 340.622070312 354.936523438 l 1
 352.052734375 337.229492188 373.09765625 325.211914062 393.466796875 318.931640625 c 0
 420.254882812 310.672851562 450.698242188 310.923828125 477.564453125 318.926757812 c 0
 630.84100087 364.591348821 588.918222167 498.810601913 558.673828125 536.821289062 c 0
 516.469971965 589.859858194 439.371482414 593.861608252 340.748046875 590.892578125 c 1
 340.62109375 725.612304688 l 1
503.375976562 498.75390625 m 0
 515.361328125 485.073242188 523.815429688 469.022460938 523.815429688 448.1640625 c 0
 523.815429688 377.198144369 407.399213233 361.841326984 360.98046875 406.083007812 c 0
 348.211914062 418.252929688 340.625 431.286132812 340.620117188 457.079101562 c 2
 340.620117188 525.16015625 l 1
 461.696885293 533.464160486 486.249068755 518.303214667 503.375976562 498.75390625 c 0
EndSplineSet
Validated: 41
EndChar

StartChar: taat
Encoding: 41 116 23
Width: 752
VWidth: 1024
Flags: W
HStem: 390.077 72.6094<437.67 585.372> 461.104 65.0098<184.967 314.854> 619.839 69.9883<463.632 525.781 526.952 533.636>
VStem: 370.113 67.5566<545.554 594.789> 630.166 66.2393<500.204 591.893>
LayerCount: 3
Fore
SplineSet
526.951171875 689.837890625 m 6xb8
 526.323242188 689.837890625 525.6953125 689.827148438 525.065429688 689.827148438 c 4
 436.897460938 688.904296875 369.946289062 624.56640625 369.946289062 545.553710938 c 0
 369.946289062 543.369140625 369.999023438 521.76953125 370.10546875 519.578125 c 2
 370.11328125 484.985351562 l 1
 322.668945312 509.474609375 290.431640625 526.114257812 245.9296875 526.114257812 c 0
 159.733398438 526.114257812 87.626953125 455.6875 60 373.735351562 c 1
 77 368 99 362 122.228515625 354.8203125 c 1
 141.689453125 410.5078125 190.7578125 461.104492188 246.219726562 461.104492188 c 0x78
 273.770507812 461.104492188 302.287109375 446.319335938 327.462890625 433.266601562 c 0
 344.315429688 424.528320312 351.796875 420.650390625 370.11328125 412.611328125 c 1
 370.11328125 138.172851562 l 1
 437.669921875 138.172851562 l 1
 437.669921875 393.462890625 l 1
 453.564453125 391.525390625 465.442382812 390.077148438 485.029296875 390.077148438 c 0
 512.125 390.077148438 585.56640625 393.84765625 637.98046875 431.9375 c 0
 656.946289062 445.719726562 696.405273438 481.362304688 696.405273438 539.345703125 c 0
 696.405273438 622.596679688 616.256835938 689.837890625 526.952148438 689.837890625 c 5
 526.951171875 689.837890625 l 6xb8
533.635742188 619.89453125 m 1
 533.635742188 619.624023438 l 1
 586.380859375 616.357421875 630.166015625 591.16015625 630.166015625 547.515625 c 0
 630.166015625 536.279296875 626.318359375 484.55859375 535.301757812 467.28515625 c 0
 518.90234375 464.239257812 502.262695312 462.686523438 485.763671875 462.686523438 c 0xb8
 465.337890625 462.686523438 452.37109375 464.721679688 437.669921875 467.209960938 c 1
 437.669921875 540.067382812 l 1
 437.682617188 549.356445312 l 2
 440.259765625 594.311523438 479.28125 619.505859375 525.78125 619.838867188 c 2
 533.635742188 619.89453125 l 1
EndSplineSet
Validated: 9
EndChar

StartChar: u_saau
Encoding: 42 117 24
Width: 929
VWidth: 1024
Flags: W
HStem: -274.953 70<181.916 252.333> 213 52<330.383 374.265> 231 52<246.383 290.265 414.383 458.265> 278 52<172.383 216.265 488.383 532.265> 352 52<125.383 169.265 535.383 579.265> 436 52<107.383 151.265 553.383 597.265> 520 52<125.383 169.265 535.383 579.265> 594 52<172.383 216.265 488.383 532.265> 641 52<246.383 290.265 414.383 458.265> 659 52<330.383 374.265>
VStem: 12.5508 64.7822<-209.651 -91.5914> 107 52<436.383 480.265> 125 52<352.383 396.265 520.383 564.265> 172 52<278.383 322.265 594.383 638.265> 246 52<231.383 275.265 641.383 685.265> 330 52<213.383 257.265 659.383 703.265> 388.333 70<-90.8346 144.047> 414 52<231.383 275.265 641.383 685.265> 488 52<278.383 322.265 594.383 638.265> 535 52<352.383 396.265 520.383 564.265> 553 52<436.383 480.265>
LayerCount: 3
Fore
SplineSet
272 693 m 4x8ea3
 279.333007812 693 285.5 690.5 290.5 685.5 c 4
 295.5 680.5 298 674.333007812 298 667 c 4
 298 660.333007812 295.5 654.333007812 290.5 649 c 4
 285.5 643.666992188 279.333007812 641 272 641 c 4
 265.333007812 641 259.333007812 643.666992188 254 649 c 4
 248.666992188 654.333007812 246 660.333007812 246 667 c 4
 246 674.333007812 248.666992188 680.5 254 685.5 c 4
 259.333007812 690.5 265.333007812 693 272 693 c 4x8ea3
440 693 m 4
 447.333007812 693 453.5 690.5 458.5 685.5 c 4
 463.5 680.5 466 674.333007812 466 667 c 4
 466 660.333007812 463.5 654.333007812 458.5 649 c 4
 453.5 643.666992188 447.333007812 641 440 641 c 4
 433.333007812 641 427.333007812 643.666992188 422 649 c 4
 416.666992188 654.333007812 414 660.333007812 414 667 c 4x8ea340
 414 674.333007812 416.666992188 680.5 422 685.5 c 4
 427.333007812 690.5 433.333007812 693 440 693 c 4
272 283 m 4xae23
 279.333007812 283 285.5 280.5 290.5 275.5 c 4
 295.5 270.5 298 264.333007812 298 257 c 4
 298 250.333007812 295.5 244.333007812 290.5 239 c 4
 285.5 233.666992188 279.333007812 231 272 231 c 4
 265.333007812 231 259.333007812 233.666992188 254 239 c 4
 248.666992188 244.333007812 246 250.333007812 246 257 c 4
 246 264.333007812 248.666992188 270.5 254 275.5 c 4
 259.333007812 280.5 265.333007812 283 272 283 c 4xae23
440 283 m 4
 447.333007812 283 453.5 280.5 458.5 275.5 c 4
 463.5 270.5 466 264.333007812 466 257 c 4
 466 250.333007812 463.5 244.333007812 458.5 239 c 4
 453.5 233.666992188 447.333007812 231 440 231 c 4
 433.333007812 231 427.333007812 233.666992188 422 239 c 4
 416.666992188 244.333007812 414 250.333007812 414 257 c 4xae2340
 414 264.333007812 416.666992188 270.5 422 275.5 c 4
 427.333007812 280.5 433.333007812 283 440 283 c 4
356 711 m 4x8e63
 363.333007812 711 369.5 708.5 374.5 703.5 c 4
 379.5 698.5 382 692.333007812 382 685 c 4
 382 678.333007812 379.5 672.333007812 374.5 667 c 4
 369.5 661.666992188 363.333007812 659 356 659 c 4
 349.333007812 659 343.333007812 661.666992188 338 667 c 4
 332.666992188 672.333007812 330 678.333007812 330 685 c 4
 330 692.333007812 332.666992188 698.5 338 703.5 c 4
 343.333007812 708.5 349.333007812 711 356 711 c 4x8e63
356 265 m 4xce23
 363.333007812 265 369.5 262.5 374.5 257.5 c 4
 379.5 252.5 382 246.333007812 382 239 c 4
 382 232.333007812 379.5 226.333007812 374.5 221 c 4
 369.5 215.666992188 363.333007812 213 356 213 c 4
 349.333007812 213 343.333007812 215.666992188 338 221 c 4
 332.666992188 226.333007812 330 232.333007812 330 239 c 4
 330 246.333007812 332.666992188 252.5 338 257.5 c 4
 343.333007812 262.5 349.333007812 265 356 265 c 4xce23
107 462 m 4x8e33
 107 469.333007812 109.666992188 475.5 115 480.5 c 4
 120.333007812 485.5 126.333007812 488 133 488 c 4
 140.333007812 488 146.5 485.5 151.5 480.5 c 4
 156.5 475.5 159 469.333007812 159 462 c 4
 159 455.333007812 156.5 449.333007812 151.5 444 c 4
 146.5 438.666992188 140.333007812 436 133 436 c 4
 126.333007812 436 120.333007812 438.666992188 115 444 c 4
 109.666992188 449.333007812 107 455.333007812 107 462 c 4x8e33
553 462 m 4x8e2308
 553 469.333007812 555.666992188 475.5 561 480.5 c 4
 566.333007812 485.5 572.333007812 488 579 488 c 4
 586.333007812 488 592.5 485.5 597.5 480.5 c 4
 602.5 475.5 605 469.333007812 605 462 c 4
 605 455.333007812 602.5 449.333007812 597.5 444 c 4
 592.5 438.666992188 586.333007812 436 579 436 c 4
 572.333007812 436 566.333007812 438.666992188 561 444 c 4
 555.666992188 449.333007812 553 455.333007812 553 462 c 4x8e2308
172 304 m 4x9e27
 172 311.333007812 174.666992188 317.5 180 322.5 c 4
 185.333007812 327.5 191.333007812 330 198 330 c 4
 205.333007812 330 211.5 327.5 216.5 322.5 c 4
 221.5 317.5 224 311.333007812 224 304 c 4
 224 297.333007812 221.5 291.333007812 216.5 286 c 4
 211.5 280.666992188 205.333007812 278 198 278 c 4
 191.333007812 278 185.333007812 280.666992188 180 286 c 4
 174.666992188 291.333007812 172 297.333007812 172 304 c 4x9e27
172 620 m 4
 172 627.333007812 174.666992188 633.5 180 638.5 c 4
 185.333007812 643.5 191.333007812 646 198 646 c 4
 205.333007812 646 211.5 643.5 216.5 638.5 c 4
 221.5 633.5 224 627.333007812 224 620 c 4
 224 613.333007812 221.5 607.333007812 216.5 602 c 4
 211.5 596.666992188 205.333007812 594 198 594 c 4x8f27
 191.333007812 594 185.333007812 596.666992188 180 602 c 4
 174.666992188 607.333007812 172 613.333007812 172 620 c 4
488 304 m 4x9e2320
 488 311.333007812 490.666992188 317.5 496 322.5 c 4
 501.333007812 327.5 507.333007812 330 514 330 c 4
 521.333007812 330 527.5 327.5 532.5 322.5 c 4
 537.5 317.5 540 311.333007812 540 304 c 4
 540 297.333007812 537.5 291.333007812 532.5 286 c 4
 527.5 280.666992188 521.333007812 278 514 278 c 4
 507.333007812 278 501.333007812 280.666992188 496 286 c 4
 490.666992188 291.333007812 488 297.333007812 488 304 c 4x9e2320
488 620 m 4
 488 627.333007812 490.666992188 633.5 496 638.5 c 4
 501.333007812 643.5 507.333007812 646 514 646 c 4
 521.333007812 646 527.5 643.5 532.5 638.5 c 4
 537.5 633.5 540 627.333007812 540 620 c 4
 540 613.333007812 537.5 607.333007812 532.5 602 c 4
 527.5 596.666992188 521.333007812 594 514 594 c 4x8f2320
 507.333007812 594 501.333007812 596.666992188 496 602 c 4
 490.666992188 607.333007812 488 613.333007812 488 620 c 4
125 378 m 4x8e2b
 125 385.333007812 127.666992188 391.5 133 396.5 c 4
 138.333007812 401.5 144.333007812 404 151 404 c 4
 158.333007812 404 164.5 401.5 169.5 396.5 c 4
 174.5 391.5 177 385.333007812 177 378 c 4
 177 371.333007812 174.5 365.333007812 169.5 360 c 4
 164.5 354.666992188 158.333007812 352 151 352 c 4
 144.333007812 352 138.333007812 354.666992188 133 360 c 4
 127.666992188 365.333007812 125 371.333007812 125 378 c 4x8e2b
125 546 m 4
 125 553.333007812 127.666992188 559.5 133 564.5 c 4
 138.333007812 569.5 144.333007812 572 151 572 c 4
 158.333007812 572 164.5 569.5 169.5 564.5 c 4
 174.5 559.5 177 553.333007812 177 546 c 4
 177 539.333007812 174.5 533.333007812 169.5 528 c 4
 164.5 522.666992188 158.333007812 520 151 520 c 4
 144.333007812 520 138.333007812 522.666992188 133 528 c 4
 127.666992188 533.333007812 125 539.333007812 125 546 c 4
535 378 m 4x8e2310
 535 385.333007812 537.666992188 391.5 543 396.5 c 4
 548.333007812 401.5 554.333007812 404 561 404 c 4
 568.333007812 404 574.5 401.5 579.5 396.5 c 4
 584.5 391.5 587 385.333007812 587 378 c 4
 587 371.333007812 584.5 365.333007812 579.5 360 c 4
 574.5 354.666992188 568.333007812 352 561 352 c 4
 554.333007812 352 548.333007812 354.666992188 543 360 c 4
 537.666992188 365.333007812 535 371.333007812 535 378 c 4x8e2310
535 546 m 4
 535 553.333007812 537.666992188 559.5 543 564.5 c 4
 548.333007812 569.5 554.333007812 572 561 572 c 4
 568.333007812 572 574.5 569.5 579.5 564.5 c 4
 584.5 559.5 587 553.333007812 587 546 c 4
 587 539.333007812 584.5 533.333007812 579.5 528 c 4
 574.5 522.666992188 568.333007812 520 561 520 c 4
 554.333007812 520 548.333007812 522.666992188 543 528 c 4
 537.666992188 533.333007812 535 539.333007812 535 546 c 4
388.333007812 144.123046875 m 1x8e2380
 388.333007812 -5.90625 396.333007812 -92.953125 406.333007812 -134.953125 c 1
 374.333007812 -151.953125 351.333007812 -163.953125 316.333007812 -180.953125 c 1
 314.924804688 -155.159179688 306.333007812 -81.953125 270.333007812 -44.3330078125 c 0
 225.541992188 2.4736328125 161.333007812 15.046875 97.7138671875 -14.95703125 c 0
 32.23046875 -45.83984375 13.9580078125 -102.603515625 12.55078125 -147 c 0
 10.3330078125 -216.953125 61.689453125 -282.184570312 128.333007812 -292 c 0
 182.333007812 -299.953125 213.333007812 -284.953125 252.333007812 -274.953125 c 1
 252.557617188 -529.216796875 l 1
 315.333007812 -530 l 1
 316.108398438 -250.953125 l 1
 359.108398438 -230.953125 379.333007812 -221.953125 427.333007812 -195.953125 c 1
 471.333007812 -338.953125 547.390625 -358.209960938 609.602539062 -354.71875 c 0
 712.333007812 -348.953125 765.333007812 -266.953125 760.333007812 -189 c 0
 754.051757812 -91.0732421875 694.170898438 -48.423828125 639.333007812 -41.6279296875 c 0
 569.333007812 -32.953125 510.333007812 -69.953125 469.333007812 -97.953125 c 1
 457.333007812 -48.953125 458.333007812 34.7607421875 458.333007812 144.046875 c 1
 388.333007812 144.123046875 l 1x8e2380
77.3330078125 -155 m 0
 76.3330078125 -114.953125 91.93359375 -80.001953125 140.333007812 -69 c 0
 157.461914062 -65.1064453125 199.333007812 -55.953125 231.326171875 -100.953125 c 0
 251.663085938 -129.556640625 252.478515625 -187.684570312 252.333007812 -204.953125 c 1
 217.333007812 -219.953125 178.333007812 -231.953125 142.077148438 -228.48046875 c 0
 106.211914062 -225.044921875 78.48046875 -200.94921875 77.3330078125 -155 c 0
483.333007812 -165.953125 m 1
 517.333007812 -134.953125 571.602539062 -108.219726562 625.333007812 -109.953125 c 0
 656.333007812 -110.953125 695.333007812 -136.953125 695.411132812 -181.953125 c 0
 695.515625 -242.081054688 670.671875 -273.625 622.333007812 -282.563476562 c 0
 555.333007812 -294.953125 517.958984375 -270.034179688 483.333007812 -165.953125 c 1
EndSplineSet
Validated: 41
EndChar

StartChar: waau
Encoding: 44 119 25
Width: 645
VWidth: 1024
Flags: W
VStem: 296.64 64.9883<447.233 527.82 580.268 582.652> 507.226 64.9902<439.673 579.532>
LayerCount: 3
Fore
SplineSet
316.737304688 642.8984375 m 5
 295.720188491 646.780189437 222.262118908 657.559702043 158.932617188 632.87109375 c 4
 136.2578125 624.03125 114.342773438 610.370117188 97.0478515625 590.482421875 c 4
 -3.66092226026 474.675097582 133.241876705 290.643627697 282.639648438 371.724609375 c 4
 312.181640625 387.7578125 337.3125 413.350585938 350.180664062 446.501953125 c 4
 361.391601562 475.383789062 361.404296875 503.487304688 361.627929688 527.208984375 c 4
 361.838867188 549.641601562 361.82421875 572.075195312 361.633789062 594.5078125 c 5
 397.160154854 615.237482659 469.040441891 624.041472334 497.934570312 559.34375 c 4
 505.840772102 541.643970174 507.10481269 500.720176432 507.225585938 439.672851562 c 6
 507.225585938 183.388671875 l 5
 572.215820312 183.388671875 l 5
 572.215820312 442.88671875 l 6
 572.132382266 511.462362666 572.082212505 552.695635427 557.274414062 585.84765625 c 4
 510.568903368 690.416105193 388.649790082 693.392384079 316.737304688 642.8984375 c 5
296.618164062 580.267578125 m 5
 296.702148438 562.78515625 296.8046875 545.301757812 296.639648438 527.8203125 c 4
 296.421875 504.6953125 295.336914062 484.809570312 289.594726562 470.017578125 c 4
 266.093095528 409.466107202 165.267051517 393.342570348 134.489257812 466.564453125 c 4
 128.810546875 480.07421875 126.756835938 495.3359375 128.766601562 509.48046875 c 4
 138.595530361 578.637424887 226.555475963 591.011928124 296.618164062 580.267578125 c 5
EndSplineSet
Validated: 41
EndChar

StartChar: ngaang
Encoding: 45 120 26
Width: 828
VWidth: 1024
Flags: W
HStem: 355.504 65.002<445.998 552.845>
VStem: 342.656 67.0908<456.56 552.127 628.756 652.104> 699 64<388.704 453.339>
LayerCount: 3
Fore
SplineSet
763 158.756835938 m 1
 763.490234375 388.704101562 l 0
 763.490234375 420.247070312 763.123046875 479.912109375 721.837890625 519.404296875 c 0
 638.617783007 599.011512811 583.941778256 420.505859375 502.455078125 420.505859375 c 0
 471.235351562 420.505859375 437.06640625 440.7734375 420.290039062 473.6484375 c 0
 412.361328125 489.184570312 409.747070312 531.337890625 409.747070312 552.126953125 c 0
 409.747070312 554.36328125 409.756835938 556.1796875 409.9609375 559.61328125 c 2
 409.880859375 652.159179688 l 1
 340.999023438 652.103515625 l 1
 330.907226562 630.063476562 271.8125 580.838867188 208.168945312 580.838867188 c 0
 190.989257812 580.838867188 172.747070312 584.401367188 151.427734375 592.434570312 c 0
 131.493164062 599.966796875 115.2734375 614.4921875 102.146484375 630.099609375 c 1
 51 590.013671875 l 1
 70.6328125 566.872070312 95.8984375 547.959960938 123.170898438 534.024414062 c 0
 176.475453599 506.787624963 245.648706275 501.797010203 330.708984375 555.133789062 c 2
 342.506835938 562.53125 l 1
 342.65625 548.915039062 l 2
 343.0078125 516.970703125 349.6171875 465.412109375 360.115234375 444.840820312 c 0
 387.563476562 391.0546875 443.971679688 355.50390625 502.662109375 355.50390625 c 0
 568.482421875 355.50390625 601.430664062 396.178710938 618.215820312 416.900390625 c 0
 645.853053141 451.101466251 656.297560525 462 670.31640625 462 c 0
 677.688476562 462 684.075195312 458.250976562 688.380859375 453.553710938 c 0
 692.548828125 449.0078125 698.623046875 441.764648438 698.623046875 398.458007812 c 0
 699 158.63671875 l 1
 763 158.756835938 l 1
EndSplineSet
Validated: 41
EndChar

StartChar: yaai
Encoding: 46 121 27
Width: 679
VWidth: 1024
Flags: W
HStem: 309.176 66.376<379.797 492.72> 493.314 67.6445<62.168 243.338>
VStem: 290 63.4922<402.651 517.742> 541.69 65<418.696 551.756>
LayerCount: 3
Fore
SplineSet
562.139648438 622.158203125 m 1
 507.91796875 571.686523438 l 1
 524.186523438 547.212890625 541.418945312 516.103515625 541.418945312 482.763671875 c 0
 541.418945312 457.250976562 530.928710938 431.401367188 514.8359375 412.151367188 c 0
 499.186523438 393.431640625 468.630859375 375.551757812 434.625 375.551757812 c 0
 422.921875 375.551757812 411.4375 377.713867188 400.8515625 382.466796875 c 0
 384.501953125 389.805664062 370.86328125 403.934570312 363.573242188 418.12890625 c 0
 356.756835938 431.40234375 353.4921875 452.353515625 353.4921875 468.665039062 c 0
 353.4921875 477.858398438 353.4921875 501.493164062 386.322265625 527.702148438 c 0
 402.62109375 540.71484375 420.3046875 549.301757812 431.138671875 553.109375 c 1
 425.49609375 616.376953125 l 1
 307.555664062 585.543945312 178.846679688 561.880859375 62 560.958984375 c 1
 62.16796875 493.314453125 l 1
 141.829101562 498.3984375 222.760742188 503.673828125 298.701171875 529.372070312 c 2
 324.02734375 537.94140625 l 1
 320 532 l 2
 311.333353271 519.214384409 290.817905018 492.037836361 290 448 c 0
 288.37962693 360.755488099 364.973556406 307.541967251 421.6875 309.17578125 c 0
 433.147589375 309.505923244 444.620117188 310.713867188 455.982421875 313.694335938 c 0
 480.18359375 320.041015625 511.0625 340.211914062 528.525390625 360.32421875 c 2
 541.690429688 375.486328125 l 1
 541.690429688 123.692382812 l 1
 606.690429688 123.692382812 l 1
 606.690429688 494.271484375 l 2
 606.690429688 544.521484375 583.655273438 594.631835938 562.139648438 622.158203125 c 1
EndSplineSet
Validated: 41
EndChar

StartChar: ka
Encoding: 48 57344 28
Width: 680
VWidth: 1024
GlyphClass: 1
Flags: W
HStem: 502 64.999<210.386 365.329>
VStem: 78.376 68<319.693 497.496 630.232 684.77> 545.376 65<349.957 501>
AnchorPoint: "u_sait" 726.702 331 basechar 0
AnchorPoint: "saau_maam" 260.209 -24.3877 basechar 0
AnchorPoint: "pangnau" 839.746 364.612 basechar 0
AnchorPoint: "saau" 117.076 350 basechar 0
LayerCount: 3
Fore
SplineSet
451.375976562 747 m 1
 435.375976562 667 391.375976562 566.999023438 297.418945312 566.999023438 c 0
 224.4296875 566.999023438 168.375976562 599 143.375976562 684.883789062 c 1
 78 684.76953125 l 1
 78.0107421875 682.380859375 78.3759765625 605.383789062 78.3759765625 481.612304688 c 1
 78.3759765625 379.612304688 84.3759765625 281.508789062 158.375976562 223.860351562 c 1
 222.375976562 175.508789062 297.489257812 158.122070312 386.375976562 174 c 0
 447.375976562 184.896484375 516.376953125 205 573.375976562 302 c 0
 605.788085938 357.158203125 612.375976562 455 610.375976562 505 c 1
 545.375976562 501 l 1
 548.375976562 431 537.375976562 366 510.375976562 323.188476562 c 0
 473.0546875 264.01171875 429.375976562 242.896484375 379.375976562 234.896484375 c 0
 286.904296875 220.100585938 225.375976562 244.508789062 182.375976562 296.508789062 c 1
 137.375976562 348.508789062 146.375976562 425 146.375976562 497.49609375 c 9
 146.375976562 555 l 1
 167.9296875 537.918945312 187.857421875 525.75390625 210.375976562 517.416992188 c 0
 243.228515625 505.25390625 278.337890625 501.239257812 314.375976562 502 c 0
 344.754882812 502.641601562 397.375976562 506 455.375976562 570.666992188 c 0
 482.452148438 600.85546875 514.375976562 680 526.375976562 727 c 1
 451.375976562 747 l 1
EndSplineSet
Validated: 1048617
Ligature2: "'liga' Standard Ligatures in Latin lookup 1-1" kaak a_saau
LCarets2: 1 0
EndChar

StartChar: ki
Encoding: 49 57345 29
Width: 843
VWidth: 1024
Flags: W
HStem: 168.908 67.0477<187.36 333.197> 473 65<504.115 654.034> 742 73.0449<299.37 394.485>
VStem: 363 66<266.994 375 608.786 655.925>
AnchorPoint: "u_sait" 583 375 basechar 0
AnchorPoint: "pangnau" 887 362 basechar 0
AnchorPoint: "saau_maam" 484 46 basechar 0
AnchorPoint: "saau" 400.6 370 basechar 0
LayerCount: 3
Fore
SplineSet
363 375 m 17
 363 296 350.621272648 235.956054688 275.299804688 235.956054688 c 0
 227.392174983 235.956054688 175 242 140 313 c 0
 111.029850526 371.768017504 115.477197233 459.398580433 141.391937469 539.999995966 c 0
 153.203865029 576.738086831 171.456378421 613.006150738 196.779296875 646.286132812 c 0
 220.923495455 678.017013176 293 741 402 742 c 1
 393.688476562 815.044921875 l 1
 336 810 227.151430521 789.869823377 147.182617188 688.3203125 c 0
 130.099539034 666.627127888 94 626 72 555 c 0
 50.2462652086 484.794764991 33.8302398177 376.778364843 74 289 c 0
 101 230 152.283554232 163.711246116 274.99999802 168.908389341 c 0
 348 172 429 206 429 349.16796875 c 2
 429 526.153320312 l 1
 476 487 536.667818464 472.117966438 594 473 c 0
 659 474 705.673331018 500.284012597 735.319335938 534.052734375 c 0
 766 569 802 650 812 688 c 1
 737 712 l 1
 719 634 684 539 584.04296875 538 c 0
 511.057363265 537.2698302 444.23828125 587.993164062 430.217773438 656.038085938 c 1
 363.282226562 655.924804688 l 1
 363 375 l 17
EndSplineSet
Validated: 1048617
LCarets2: 1 0
Ligature2: "'liga' Standard Ligatures in Latin lookup 1-1" kaak i_saau
EndChar

StartChar: ku
Encoding: 50 57346 30
Width: 871
VWidth: 1024
Flags: W
HStem: 151.256 65.0117<518.769 664.305> 368.883 64.916<465.175 679.029> 503.596 65<531.764 689.771> 687.111 30.0781G<397.684 472.354 769.087 848.084>
VStem: 398.115 64.9785<415.225 557.227 635.703 687> 705.195 65.2129<255.173 342.679> 775.088 72.9961<670.013 720.011>
AnchorPoint: "u_sait" 907 360 basechar 0
AnchorPoint: "pangnau" 1023.63 335.404 basechar 0
AnchorPoint: "saau_maam" 520.63 21.4043 basechar 0
AnchorPoint: "saau" 434.63 345.404 basechar 0
LayerCount: 3
Fore
SplineSet
775.087890625 737.189453125 m 1
 848.083984375 718.189453125 l 1
 839.083984375 676.189453125 799.084960938 594.59375 767.71875 565.126953125 c 0
 741.815429688 540.791992188 697.083984375 505.595703125 617.083984375 503.595703125 c 0
 542.31640625 501.7265625 489.084960938 536.594726562 462.712890625 557.2265625 c 1
 463.048828125 460.0078125 463.048828125 460.0078125 463.08203125 424.8984375 c 2
 463.09375 415.224609375 l 1
 507.135742188 426.591796875 544.624023438 433.798828125 589.138671875 433.798828125 c 0
 724.831054688 433.798828125 770.408203125 361.793945312 770.408203125 303.19140625 c 0
 770.408203125 221.119140625 688.306640625 151.255859375 591.220703125 151.255859375 c 0
 510.958007812 151.255859375 421.422851562 200.422851562 397.76953125 308.802734375 c 2
 395.759765625 318.265625 l 1
 395.399414062 317.950195312 395.048828125 317.623046875 394.671875 317.330078125 c 0
 378.809570312 307.396484375 354.1796875 290.30078125 326.486328125 263.556640625 c 0
 300.252929688 238.221679688 252.596679688 190.373046875 224.30078125 156.978515625 c 1
 201.9140625 175.751953125 149.787109375 222.629882812 116.212890625 257.955078125 c 0
 86.5283203125 289.186523438 44.8671875 339.163085938 24 358.40625 c 1
 78.8125 408.634765625 l 1
 92.5439453125 385.327148438 120.158203125 350.100585938 148.0078125 321.62890625 c 0
 168.1640625 301.022460938 205.614257812 261.850585938 221.888671875 251.9453125 c 1
 247.419921875 281.555664062 276.11328125 307.22265625 301.923828125 328.689453125 c 0
 326.662109375 349.263671875 371.823242188 378.489257812 394.998046875 388.044921875 c 2
 397.98828125 389.18359375 l 2
 398.028320312 390.249023438 398.077148438 391.069335938 398.115234375 392.15625 c 0
 397.877929688 646.342773438 397.877929688 646.34375 397.68359375 687 c 1
 463.619140625 687.111328125 l 1
 481.087890625 621.594726562 523.087890625 568.595703125 620.087890625 568.595703125 c 0
 716.086914062 568.595703125 763.086914062 670.189453125 775.087890625 737.189453125 c 1
583.857421875 368.8828125 m 1
 549.3828125 368.107421875 508.63671875 361.389648438 463.041015625 347.265625 c 1
 462.725585938 242.670898438 547.7578125 216.267578125 590.884765625 216.267578125 c 0
 650.96484375 216.267578125 705.197265625 256.693359375 705.197265625 303.291015625 c 1
 705.1953125 303.291015625 l 1
 705.1953125 343.534179688 659.703125 370.58984375 583.857421875 368.8828125 c 1
EndSplineSet
Validated: 1048609
LCarets2: 1 0
Ligature2: "'liga' Standard Ligatures in Latin lookup 1-1" kaak u_saau
EndChar

StartChar: ko
Encoding: 51 57347 31
Width: 869
VWidth: 1024
Flags: W
HStem: 155.806 58.9443<226.048 360.889> 407.617 65.0449<224.954 391.956> 507.363 61.3789<528.246 680.046>
VStem: 115.97 65.1367<257.516 368.091> 393.526 64.2949<246.937 351.742 637.252 687> 761.001 73<667.622 723.572>
AnchorPoint: "u_sait" 716 359 basechar 0
AnchorPoint: "pangnau" 872.822 369.742 basechar 0
AnchorPoint: "saau_maam" 391.822 23.7422 basechar 0
AnchorPoint: "saau" 431.971 347.742 basechar 0
LayerCount: 3
Fore
SplineSet
761.000976562 740.75 m 1
 750.000976562 665.75 703.975585938 568.7421875 614.969726562 568.7421875 c 0
 527.969726562 568.7421875 473.10546875 619.069335938 459.0859375 687.11328125 c 1
 393.151367188 687 l 1
 393.526367188 459.17578125 l 1
 372.131835938 465.49609375 347.872070312 472.662109375 310.879882812 472.662109375 c 0
 209.609375 472.662109375 115.969726562 415.215820312 115.969726562 316.3203125 c 0
 115.969726562 228.901367188 194.65234375 155.805664062 291.969726562 155.805664062 c 0
 311.23828125 155.805664062 369.250976562 155.805664062 413.177734375 196.7421875 c 0
 456.958984375 237.54296875 456.969726562 297.25390625 456.969726562 351.7421875 c 1
 485.000976562 334.75 534.000976562 307.75 570.000976562 263.75 c 1
 616.000976562 321.75 l 1
 541.000976562 383.75 490.000976562 410.75 457.821289062 428.680664062 c 1
 458.18359375 557.228515625 l 1
 484.229492188 535.708007812 530.762695312 508.419921875 605.782226562 507.36328125 c 0
 676.782226562 506.36328125 719.782226562 526.86328125 760.000976562 568.75 c 0
 795.545898438 605.768554688 823.000976562 666.75 834.000976562 721.75 c 1
 761.000976562 740.75 l 1
288.981445312 214.75 m 0
 230.033203125 214.75 181.106445312 264.086914062 181.106445312 315.619140625 c 0
 181.106445312 391.670898438 273.897460938 408.124023438 310.921875 407.6171875 c 0
 326.17578125 407.6171875 350.721679688 407.6171875 393.969726562 389.0234375 c 1
 393.969726562 324.219726562 394.470703125 293.7421875 386.290039062 269.7421875 c 0
 383.584960938 261.806640625 365.901367188 214.75 288.981445312 214.75 c 0
EndSplineSet
Validated: 1048617
LCarets2: 1 0
Ligature2: "'liga' Standard Ligatures in Latin lookup 1-1" kaak o_saau
EndChar

StartChar: ga
Encoding: 52 57348 32
Width: 850
VWidth: 1024
Flags: W
HStem: 742 45.5684G<58 138.144 430.159 440.222>
VStem: 70.5078 70.9141<598.4 736.647> 422.375 65<263.461 523.304>
AnchorPoint: "u_sait" 894 349 basechar 0
AnchorPoint: "pangnau" 1025.38 459 basechar 0
AnchorPoint: "saau_maam" 410.375 46 basechar 0
AnchorPoint: "saau" 458.375 370 basechar 0
LayerCount: 3
Fore
SplineSet
436.375 807.568359375 m 1
 444.068359375 805.64453125 494.393554688 790.51953125 552.375 764.564453125 c 0
 614.971679688 736.54296875 687.663085938 690.455078125 734.95703125 621.568359375 c 0
 795.374023438 533.568359375 808.809570312 395.483398438 771.375 301.568359375 c 0
 725.536132812 186.568359375 579.337890625 152.474609375 492.375 194.431640625 c 0
 451.456054688 214.173828125 422.375 251.971679688 422.375 309.568359375 c 2
 422.375 333.345703125 l 1
 422.552734375 410.568359375 l 2
 422.552734375 444.770507812 419.228515625 488.934570312 406.3046875 513.486328125 c 0
 393.567382812 537.68359375 373.905273438 560.846679688 349.04296875 572.23046875 c 0
 281.073242188 603.352539062 191.401367188 571.928710938 155.591796875 515.455078125 c 0
 138.998046875 489.286132812 137.375 451.568359375 147.375 406.568359375 c 1
 143.5078125 406.391601562 113.033203125 402.983398438 91.673828125 400.158203125 c 2
 65.748046875 395.474609375 l 1
 68.3203125 442.942382812 71.8623046875 522.567382812 70.5078125 586.123046875 c 0
 69.1513671875 649.780273438 63.724609375 700.266601562 58 738.4453125 c 1
 136.375 742 l 1
 139.913085938 709.709960938 141.708007812 661.708984375 141.421875 598.400390625 c 1
 142.500976562 599.303710938 143.427734375 600.232421875 144.5390625 601.130859375 c 0
 219.892578125 662.03125 325.1640625 662.990234375 393.12890625 619.4296875 c 0
 425.40625 598.7421875 450.321289062 572.049804688 464.048828125 543.44921875 c 0
 487.421875 494.752929688 487.375 457.568359375 487.375 329.578125 c 2
 487.375 321.927734375 l 2
 487.375 285.9921875 500.629882812 264.938476562 520.375 254 c 0
 557.059570312 233.676757812 678.374023438 232.568359375 716.0078125 343.568359375 c 0
 743.004882812 423.194335938 711.91796875 534.563476562 673.57421875 589.568359375 c 0
 648.22265625 625.936523438 612.403320312 653.78515625 575.375 674.84765625 c 0
 502.654296875 716.211914062 425.274414062 731.405273438 413.375 733.568359375 c 1
 436.375 807.568359375 l 1
EndSplineSet
Validated: 1048609
LCarets2: 1 0
Ligature2: "'liga' Standard Ligatures in Latin lookup 1-1" gaag a_saau
EndChar

StartChar: gi
Encoding: 53 57349 33
Width: 799
VWidth: 1024
Flags: W
HStem: 711 37G<139.604 210.101 301.726 381.971>
VStem: 144.101 66<600.003 697.591> 305.284 74.4336<438.869 552.951 625.545 764.447> 314.187 70.7871<437.137 557.749 625.545 762.66> 633.101 65.3066<317.153 545.364>
AnchorPoint: "u_sait" 812 399 basechar 0
AnchorPoint: "pangnau" 947.793 414 basechar 0
AnchorPoint: "saau_maam" 419.793 46 basechar 0
AnchorPoint: "saau" 670.793 370 basechar 0
LayerCount: 3
Fore
SplineSet
380.100585938 768 m 1xd8
 383.840820312 733.86328125 385.662109375 693.517578125 385.057617188 629.666015625 c 0
 385.045898438 628.427734375 384.991210938 626.830078125 384.973632812 625.544921875 c 1xd8
 479.051757812 705.40625 626.7421875 658.587890625 674.631835938 561.595703125 c 0
 695.827148438 518.66796875 698.407226562 491.421875 698.407226562 419.94921875 c 0
 698.407226562 372.639648438 698.40625 297.65234375 627.639648438 231.2578125 c 0
 562.623046875 170.256835938 459.203125 143.74609375 366.100585938 149.046875 c 0
 232.310546875 156.666015625 156.787109375 225.766601562 123.298828125 333 c 0
 101.717773438 402.106445312 104.576171875 469.2734375 114.629882812 549.046875 c 0
 121.759765625 605.620117188 135.106445312 666.356445312 144.100585938 711 c 1
 210.100585938 696 l 1
 199.849609375 656.168945312 187.421875 592.44140625 180.100585938 540 c 0
 170.548828125 471.584960938 165.088867188 421.16796875 183.305664062 365 c 0
 215.661132812 265.240234375 275.310546875 215.291992188 402.100585938 216.999023438 c 0
 468.170898438 217.887695312 538.458007812 236.702148438 582.125976562 277.671875 c 0
 611.583007812 305.30859375 630.02734375 344.17578125 632.391601562 387.296875 c 0
 633.0859375 399.948242188 633.100585938 410.881835938 633.100585938 450 c 0
 633.100585938 484.201171875 629.786132812 507.6640625 617.999023438 533.30859375 c 0
 577.361328125 621.719726562 433.067382812 654.575195312 385.311523438 519.2265625 c 0
 378.3984375 495.734375 376.564453125 466.0546875 379.717773438 439.078125 c 1
 367.459960938 437 323.91796875 430 305.284179688 426.880859375 c 1xe8
 313.93359375 479.872070312 314.973632812 561.1015625 314.186523438 628.302734375 c 0
 313.44140625 691.969726562 307.450195312 726.268554688 301.725585938 764.447265625 c 1
 380.100585938 768 l 1xd8
EndSplineSet
Validated: 1048609
LCarets2: 1 0
Ligature2: "'liga' Standard Ligatures in Latin lookup 1-1" gaag i_saau
EndChar

StartChar: gu
Encoding: 54 57350 34
Width: 914
VWidth: 1024
Flags: W
HStem: 179.879 65.1836<611.937 749.258> 763 20G<160.625 240.87>
VStem: 164.977 77.2617<474.022 577.306 652.752 779.447> 172.316 70.5684<474.329 579.701 652.752 777.677> 514.67 64.5684<491.223 593.079> 798.691 65.002<292.429 404.64>
AnchorPoint: "u_sait" 976 375 basechar 0
AnchorPoint: "saau_maam" 491.746 46.1211 basechar 0
AnchorPoint: "kaas" 320.746 746.121 basechar 0
AnchorPoint: "pangnau" 1048.75 358.121 basechar 0
AnchorPoint: "saau" 542.746 350.121 basechar 0
LayerCount: 3
Fore
SplineSet
239 783 m 1xdc
 242.740234375 748.86328125 243.807417007 731.329967333 243.1875 667.478515625 c 0
 243.14453125 663.052734375 242.993164062 657.73046875 242.884765625 652.751953125 c 1xdc
 320.010742188 716.23046875 432.958007812 716.393554688 494.14453125 678.078125 c 0
 579.239257812 624.791992188 579.23828125 560.4609375 579.23828125 491.22265625 c 1
 579.9921875 491.111328125 l 1
 658.051757812 505.663085938 721.29296875 503.223632812 770.0078125 483.513671875 c 0
 856.09765625 448.681640625 863.693359375 375.76171875 863.693359375 351.107421875 c 0
 863.693359375 258.676757812 778.452148438 179.87890625 679.396484375 179.87890625 c 0
 605.444335938 179.87890625 560.056640625 211.288085938 532.21484375 248.826171875 c 0
 504.887695312 285.671875 499.052734375 337.982421875 505.751953125 396.013671875 c 1
 483.661132812 385.083984375 451.072265625 364.547851562 430.27734375 346.01171875 c 0
 371.676757812 293.780273438 328.405273438 230.784179688 283.939453125 161.498046875 c 1
 239.984375 200.411132812 208.271484375 229.861328125 169.009765625 262.3671875 c 0
 127.641601562 296.616210938 72.2578125 341.578125 42 361.49609375 c 1
 93.6875 423.833984375 l 1
 112.943359375 404.946289062 155.325195312 369.315429688 188.412109375 340.791015625 c 0
 215.150390625 317.739257812 253.624023438 283.184570312 277.6328125 260.572265625 c 1
 307.4609375 304.245117188 326.885742188 335.594726562 389.828125 391.80859375 c 0
 424.499023438 422.774414062 484.459960938 456.094726562 513.28125 469.59765625 c 0
 513.130859375 470.500976562 513.077148438 471.2109375 512.91015625 472.150390625 c 2
 514.669921875 500.751953125 l 2
 514.719726562 535.469726562 514.81640625 602.936523438 444.134765625 630.611328125 c 0
 377.538085938 656.689453125 291.754882812 623.340820312 257.888671875 569.931640625 c 0
 241.293945312 543.76171875 237.227539062 505.256835938 242.23828125 478.296875 c 0
 238.508789062 477.297851562 226.807617188 475.1328125 214.30078125 472.869140625 c 2
 164.9765625 461.373046875 l 1xec
 173.625 514.365234375 173.400467228 597.833009028 172.31640625 666.115234375 c 0
 171.305664062 729.779296875 166.348632812 741.268554688 160.625 779.447265625 c 1
 239 783 l 1xdc
667.005859375 434.51953125 m 0
 619.040039062 433.654296875 576.122070312 423.498046875 575.123046875 423.2578125 c 0
 570.263671875 383.802734375 562.938476562 324.330078125 589.08203125 288.931640625 c 0
 619.640625 247.556640625 667.56640625 245.0625 678.669921875 245.0625 c 0
 745.840820312 245.0625 798.690429688 297.326171875 798.69140625 350.9609375 c 0
 798.69140625 421.38671875 728.67578125 435.631835938 667.005859375 434.51953125 c 0
EndSplineSet
Validated: 33
LCarets2: 1 0
Ligature2: "'liga' Standard Ligatures in Latin lookup 1-1" gaag u_saau
EndChar

StartChar: go
Encoding: 55 57351 35
Width: 860
VWidth: 1024
Flags: W
HStem: 171.209 65<366.413 511.675> 749 20G<108.625 188.871>
VStem: 119.289 70.5508<618.672 763.661> 273.525 65.25<262.662 363.378> 541.002 64.998<267.607 401.209 478 569.252>
AnchorPoint: "u_sait" 938 417 basechar 0
AnchorPoint: "pangnau" 999.67 392 basechar 0
AnchorPoint: "saau_maam" 407.665 46 basechar 0
AnchorPoint: "saau" 577.665 354 basechar 0
LayerCount: 3
Fore
SplineSet
187 769 m 1
 190.741210938 734.862304688 190.759765625 698.083984375 190.16015625 634.232421875 c 0
 190.116210938 629.555664062 189.958984375 623.9609375 189.83984375 618.671875 c 1
 240.87109375 678.170898438 290.247070312 705.3828125 354.333984375 711.208984375 c 0
 453.333984375 720.208984375 508.076171875 688.125 551.294921875 639.208984375 c 0
 581.334960938 605.208984375 606.234375 536.208984375 606.234375 472.5234375 c 1
 702 456.208984375 790.76 402 834 356 c 1
 776 297 l 1
 739.231884058 356 650 396.208984375 606 401.208984375 c 1
 606 335.208984375 l 2
 606 276.208984375 577.000976562 171.208984375 441.146484375 171.208984375 c 0
 343.2578125 171.208984375 273.525390625 231.5859375 273.525390625 312.322265625 c 0
 273.525390625 488.376953125 534.8203125 478.256835938 538 478 c 1
 538 511.208984375 526.716796875 574.639648438 496 606.451171875 c 0
 465.334960938 638.208984375 421.335972068 653.208673255 358.3359375 646.208984375 c 0
 293.223632812 638.974609375 248.020507812 598.931640625 210 537 c 0
 181.145507812 490 182.28515625 448 183 422 c 1
 163 426 130 433 108.3359375 437.208984375 c 1
 110 445 110.66796875 448.115234375 111.984375 454.330078125 c 0
 118.506835938 506.026367188 119.813476562 574.275390625 119.2890625 632.8671875 c 0
 118.719726562 696.536132812 114.349609375 727.266601562 108.625 765.4453125 c 1
 187 769 l 1
534.01953125 413.259765625 m 2
 449.272460938 413.259765625 338.775390625 389.646484375 338.775390625 312.208984375 c 0
 338.775390625 263.984375 383.596679688 236.208984375 441.0546875 236.208984375 c 0
 539.284179688 236.208984375 541.001953125 308.208984375 541.001953125 358.208984375 c 0
 541.174804688 373.80859375 541.001953125 391.956054688 541.001953125 413.259765625 c 1
 534.01953125 413.259765625 l 2
EndSplineSet
Validated: 1048609
LCarets2: 1 0
Ligature2: "'liga' Standard Ligatures in Latin lookup 1-1" gaag o_saau
EndChar

StartChar: ba
Encoding: 56 57352 36
Width: 891
VWidth: 1024
Flags: W
HStem: 446.968 59.7363<197.515 317.949>
VStem: 414.795 65<282.974 371.864> 775.46 65.0312<339.548 506.045>
AnchorPoint: "u_sait" 976 383 basechar 0
AnchorPoint: "pangnau" 1066.52 408 basechar 0
AnchorPoint: "saau_maam" 388.52 46 basechar 0
AnchorPoint: "saau" 450.799 370 basechar 0
LayerCount: 3
Fore
SplineSet
775.459960938 437.49609375 m 0
 775.459960938 388.231152466 767.115510312 346.464101743 725.712890625 299.002929688 c 0
 641.797716453 202.80948526 540.566948898 245.333437446 514.705078125 267.786132812 c 0
 481.381713361 296.719353631 479.794921875 351.027581234 479.794921875 369.608398438 c 2
 479.794921875 717 l 1
 414.794921875 717 l 1
 414.794921875 371.864257812 l 2
 414.794921875 330.039131329 426.679915029 259.518902089 469.052734375 223.830078125 c 0
 544.323194989 160.439225397 681.170776243 157.730739953 770.8984375 255.861328125 c 0
 793.855188831 280.969242665 840.491210938 343.561678639 840.491210938 437.69140625 c 0
 840.491210938 466.779296875 835.87890625 495.838867188 826.7734375 523.568359375 c 1
 765.569335938 501.586914062 l 1
 774.381835938 473.891601562 775.373046875 454.142578125 775.459960938 437.49609375 c 0
139 236 m 5
 131 258 112.44094532 304.773421836 126.731445312 347.966796875 c 4
 134.145507812 370.375976562 147.142578125 391.200195312 165.984375 407.384765625 c 4
 199.717773438 436.360351562 262.004882812 443.733398438 318.120117188 446.967773438 c 5
 317.94921875 506.704101562 l 5
 259.5234375 502.58984375 193.8515625 497.47265625 134.920898438 459.127929688 c 4
 104.191058655 439.131657089 67.9395721096 403.204806956 58.0478515625 342.143554688 c 4
 54.6845045145 321.371811726 50.9426470135 276.540787406 65.654296875 217.16796875 c 5
 139 236 l 5
EndSplineSet
Validated: 1048617
LCarets2: 1 0
Ligature2: "'liga' Standard Ligatures in Latin lookup 1-1" baab a_saau
EndChar

StartChar: bi
Encoding: 57 57353 37
Width: 726
VWidth: 1024
Flags: W
HStem: 150.431 65.0273<222.902 468.87> 521.264 59.7363<387.565 508>
VStem: 64 64.9189<303.75 489.327> 586.273 64.8604<313.169 408.768>
AnchorPoint: "u_sait" 788 395 basechar 0
AnchorPoint: "pangnau" 890 394 basechar 0
AnchorPoint: "saau_maam" 360 -28 basechar 0
AnchorPoint: "saau" 622.94 370 basechar 0
LayerCount: 3
Fore
SplineSet
329.05078125 310.295898438 m 1
 321.05078125 332.295898438 302.4921875 379.069335938 316.782226562 422.262695312 c 0
 324.196289062 444.671875 337.193359375 465.49609375 356.03515625 481.680664062 c 0
 389.768554688 510.65625 452.055664062 518.029296875 508.170898438 521.263671875 c 1
 508 581 l 1
 449.57421875 576.885742188 383.90234375 571.768554688 324.971679688 533.423828125 c 0
 294.2421875 513.427734375 257.990234375 477.500976562 248.098632812 416.439453125 c 0
 244.735351562 395.66796875 240.993164062 350.836914062 255.705078125 291.463867188 c 1
 329.05078125 310.295898438 l 1
100.248046875 534.270507812 m 1
 93.580078125 521.987304688 64 464.005859375 64 401.869140625 c 0
 64 373.9375 69.6171875 341.344726562 76.8125 314.9296875 c 0
 92.8544921875 256.0390625 147.477539062 150.430664062 332.921875 150.430664062 c 0
 343.580078125 150.430664062 354.147460938 150.752929688 364.58203125 151.286132812 c 0
 418.233398438 154.0234375 475.9296875 159.923828125 526.684570312 188.080078125 c 0
 572.958984375 213.75 602.123046875 237.6015625 624.125 274.654296875 c 0
 643.987304688 308.1015625 651.133789062 355.92759655 651.133789062 391.657226562 c 2
 651.133789062 730 l 1
 586.111328125 730 l 1
 586.2734375 489.5234375 l 0
 586.2734375 463.806640625 586.219726562 437.22265625 586.059570312 408.767578125 c 0
 585.973632812 368.640625 584.740234375 295.274414062 492.461914062 247.735351562 c 0
 472.37109375 237.385742188 426.213867188 215.458007812 333.553710938 215.458007812 c 0
 281.979492188 215.458007812 169.013671875 223.759765625 139.526367188 332.008789062 c 0
 134.340820312 351.044921875 128.918945312 377.376953125 128.918945312 400.627929688 c 0
 128.918945312 416.971679688 133.380859375 458.329101562 156.609375 501.838867188 c 1
 100.248046875 534.270507812 l 1
EndSplineSet
Validated: 1048617
LCarets2: 1 0
Ligature2: "'liga' Standard Ligatures in Latin lookup 1-1" baab i_saau
EndChar

StartChar: bu
Encoding: 58 57354 38
Width: 914
VWidth: 1024
Flags: W
HStem: 177.233 65.0352<601.164 750.529> 435.771 65.2188<573.606 749.754> 525.206 59.7344<335.049 446.767>
VStem: 493.072 64.7939<283.748 416.418> 493.072 10.4873<372.987 375.911> 792.515 65.2344<283.198 395.854>
AnchorPoint: "u_sait" 984 377 basechar 0
AnchorPoint: "pangnau" 1075.94 378 basechar 0
AnchorPoint: "saau_maam" 419.939 46 basechar 0
AnchorPoint: "saau" 525.939 370 basechar 0
LayerCount: 3
Fore
SplineSet
857.749023438 338.67578125 m 1xf4
 857.749023438 423.465820312 785.220703125 500.989257812 674.290039062 500.989257812 c 0
 639.72265625 500.989257812 605.708984375 494.032226562 567.782226562 481.115234375 c 2
 557.866210938 477.737304688 l 1
 557.866210938 746.912109375 l 1xf4
 493.072265625 746.912109375 l 1
 493.072265625 449.275390625 l 1xec
 493.072265625 375.911132812 l 2
 493.072265625 350.694335938 488.840820312 280.200195312 539.250976562 230.310546875 c 0
 580.072265625 189.911132812 629.072265625 177.233398438 675.938476562 177.233398438 c 0
 781.913085938 177.233398438 857.749023438 249.59375 857.749023438 338.674804688 c 1
 857.749023438 338.67578125 l 1xf4
270 333 m 1
 263.643554688 355.684570312 261.838867188 364.145507812 261.838867188 386.477539062 c 0
 261.838867188 438.913085938 289.641601562 470.883789062 306.80078125 485.623046875 c 0
 340.540039062 514.604492188 390.875976562 521.974609375 446.936523438 525.206054688 c 1
 446.766601562 584.940429688 l 1
 388.3359375 580.825195312 334.662109375 575.706054688 275.737304688 537.366210938 c 0
 256.396484375 524.780273438 237.3359375 506.696289062 225.38671875 489.698242188 c 0
 212.02734375 470.692382812 201.061523438 433.938476562 198.865234375 420.381835938 c 0
 190.556640625 369.0859375 193.647460938 336.85546875 197.802734375 320.548828125 c 1
 270 333 l 1
674.653320312 435.770507812 m 1
 751.916015625 435.770507812 792.514648438 385.147460938 792.514648438 340.014648438 c 0
 792.514648438 319.172851562 785.126953125 297.505859375 771.659179688 281.567382812 c 0
 750.836914062 256.92578125 714.229492188 242.268554688 676.734375 242.268554688 c 0
 642.26953125 242.268554688 607.68359375 254.271484375 584.734375 276.748046875 c 0
 557.866210938 303.063476562 557.866210938 344.045898438 557.866210938 407.844726562 c 1
 578.771484375 416.475585938 625.5078125 435.770507812 674.653320312 435.770507812 c 1
 674.65234375 435.770507812 l 1
 674.653320312 435.770507812 l 1
503.760742188 444.290039062 m 1
 469.798828125 424.494140625 404.915039062 377.541992188 359.752929688 339.793945312 c 0
 333.994140625 318.264648438 267.418945312 260.548828125 241.88671875 230.938476562 c 1
 225.61328125 240.844726562 183.951171875 278.68359375 165.254882812 300.623046875 c 0
 137.864257812 332.762695312 118.044921875 359.735351562 98.810546875 387.627929688 c 1
 44 337.400390625 l 1
 64.8671875 318.157226562 102.858398438 270.473632812 132.54296875 239.241210938 c 0
 166.1171875 203.916992188 221.913085938 154.745117188 244.299804688 135.971679688 c 1
 280.849609375 186.333007812 364.901367188 258.837890625 391.953125 283.294921875 c 0
 426.34375 314.38671875 487.62890625 363.092773438 503.559570312 372.987304688 c 1xec
 503.760742188 444.290039062 l 1
EndSplineSet
Validated: 1048613
LCarets2: 1 0
Ligature2: "'liga' Standard Ligatures in Latin lookup 1-1" baab u_saau
EndChar

StartChar: bo
Encoding: 59 57355 39
Width: 811
VWidth: 1024
Flags: W
HStem: 433 61.2227<338.2 486> 545.5 59.7344<188.558 321.83>
VStem: 41.7334 68.0254<326.374 481.956> 486.896 65<283.546 389>
AnchorPoint: "u_sait" 922 406 basechar 0
AnchorPoint: "pangnau" 968 386 basechar 0
AnchorPoint: "saau_maam" 350 46 basechar 0
AnchorPoint: "saau" 523.638 370 basechar 0
LayerCount: 3
Fore
SplineSet
486.896484375 761 m 1
 486.896484375 494.22265625 l 1
 423 502 365.580818881 490.602277931 323.999997647 473.534392543 c 0
 298.067555022 462.889774533 277.687635597 447.336588171 259.999998364 428.728526476 c 0
 246 414 222.903860532 384.053264889 221.118164062 336 c 0
 220.497547287 319.299142495 223.680278561 267.805059123 260.476551777 228.000001087 c 0
 282.351039447 204.336864168 316.104595651 184.80464369 367.999997653 179.168723504 c 0
 402.957131982 175.372325145 438.961664173 181.808360106 469.595703125 200.03515625 c 0
 481.633684493 207.197575568 518 227 538 281 c 0
 548.069569472 308.187837575 551.896484375 334 551.896484375 389 c 9
 551.896484375 418.224609375 l 1
 569.429827483 414.278887153 607.83203125 395.016601562 636 367 c 0
 660.924804688 342.209960938 681.229688019 311.141246739 701 269 c 1
 763 303 l 1
 739 348 718.66918277 376.734061149 694 404 c 0
 656 446 600.414971993 473.618446868 551.896484375 485.458984375 c 1
 551.896484375 761 l 1
 486.896484375 761 l 1
321.830078125 605.234375 m 1
 263.40234375 601.120117188 179.647460938 597.61328125 121.80078125 557.66015625 c 0
 68.880859375 521.109375 47.9931640625 467.163085938 41.7333984375 410.109375 c 0
 38.880859375 384.109375 40 344 40 317 c 1
 113 326 l 1
 110.932617188 333.377929688 105.145507812 379.090820312 109.758789062 420.109375 c 0
 113.1875 450.594726562 124.543945312 482.899414062 152.865234375 505.916015625 c 0
 187.380859375 533.966796875 265.930664062 542.268554688 322 545.5 c 1
 321.830078125 605.234375 l 1
486 433 m 1
 486 354 l 1
 486 318 476.078671245 297.446859075 464.16015625 281.43359375 c 0
 441.271239639 250.680912325 406.323934134 238.862145353 374.000001385 241.487101023 c 0
 344.678777631 243.868213282 317.516171903 258.134209218 303.470703125 280.93359375 c 0
 288.561127633 305.135644264 283.639623883 336.502044787 293.294989847 363.99999873 c 0
 301.38803613 387.048551707 321.115507939 404.04607335 350.999998596 418.495112169 c 0
 381 433 452 440.83203125 486 433 c 1
EndSplineSet
Validated: 1048617
LCarets2: 1 0
Ligature2: "'liga' Standard Ligatures in Latin lookup 1-1" baab o_saau
EndChar

StartChar: da
Encoding: 60 57356 40
Width: 686
VWidth: 1024
Flags: W
HStem: 405 61.6523<214 297.706>
VStem: 59 65.999<305.53 444> 362.639 66.3105<531.694 642.06> 529.219 64.7812<338.256 473.521>
AnchorPoint: "u_sait" 718 390 basechar 0
AnchorPoint: "pangnau" 817 314 basechar 0
AnchorPoint: "saau_maam" 269 -6 basechar 0
AnchorPoint: "saau" 96 370 basechar 0
LayerCount: 3
Fore
SplineSet
543.865234375 803 m 5
 594.865234375 755 l 5
 546.865234375 689 472.865234375 659 427.931640625 637.408203125 c 5
 428.7734375 627.543945312 428.94921875 620.0078125 428.94921875 615.30078125 c 4
 428.94921875 549.846679688 408.721679688 513.532226562 399.380859375 500.244140625 c 4
 351.736328125 432.46484375 292.671875 410.5390625 214 405 c 5
 213.828125 466.65234375 l 5
 270.424804688 469.520507812 306.732421875 482.192382812 339.25390625 528.833984375 c 4
 362.638671875 562.370117188 362.638671875 593.119140625 362.638671875 604.060546875 c 4
 362.638671875 641.877929688 352.845703125 678.336914062 352.638671875 679.064453125 c 5
 371.017578125 683.484375 l 5
 371.01953125 683.484375 l 5
 417.865234375 699 503.865234375 742 543.865234375 803 c 5
59 694 m 5
 59 611 59 840.234375 59 443 c 5
 59 364.34375 64 297 104 250.766601562 c 4
 120.319335938 231.904296875 145.845703125 211.193359375 184 195 c 4
 237.748046875 172.188476562 331.608398438 166.017578125 403.750976562 185.112304688 c 4
 444.581054688 195.919921875 526.192382812 219.18359375 570.020507812 324 c 4
 588 367 594.719726562 413.525390625 594 479 c 5
 529.21875 473.521484375 l 5
 534.5390625 384.03125 510.9140625 330.618164062 480.069335938 298 c 4
 446.704101562 262.715820312 404.890625 251.765625 382.134765625 245.806640625 c 4
 370.022460938 242.634765625 303.946289062 223.12109375 227.114257812 249.698242188 c 4
 219.57421875 252.306640625 172.344726562 266.463867188 149 300.14453125 c 4
 129 329 124.999023438 385.059570312 124.999023438 444 c 5
 124.999023438 506 124.999023438 567 124.999023438 694.000976562 c 5
 114.3359375 693.99609375 64 694 59 694 c 5
EndSplineSet
Validated: 1048617
LCarets2: 1 0
Ligature2: "'liga' Standard Ligatures in Latin lookup 1-1" daad a_saau
EndChar

StartChar: di
Encoding: 61 57357 41
Width: 914
VWidth: 1024
Flags: W
HStem: 176.845 65.3945<233.115 382.819> 406 61.6523<602 685.706>
VStem: 143.701 62.8086<436.122 545.263> 436.895 65.0186<307.358 457> 750.639 66.3105<532.694 643.06>
AnchorPoint: "u_sait" 664 344 basechar 0
AnchorPoint: "pangnau" 996.895 326 basechar 0
AnchorPoint: "saau_maam" 434.895 46 basechar 0
AnchorPoint: "saau" 473.895 370 basechar 0
LayerCount: 3
Fore
SplineSet
931.865234375 804 m 5
 982.865234375 756 l 5
 934.865234375 690 860.865234375 660 815.931640625 638.408203125 c 5
 816.7734375 628.543945312 816.94921875 621.0078125 816.94921875 616.30078125 c 4
 816.94921875 550.846679688 796.721679688 514.532226562 787.380859375 501.244140625 c 4
 739.736328125 433.46484375 680.671875 411.5390625 602 406 c 5
 601.828125 467.65234375 l 5
 658.424804688 470.520507812 694.732421875 483.192382812 727.25390625 529.833984375 c 4
 750.638671875 563.370117188 750.638671875 594.119140625 750.638671875 605.060546875 c 4
 750.638671875 642.877929688 740.845703125 679.336914062 740.638671875 680.064453125 c 5
 759.017578125 684.484375 l 5
 759.01953125 684.484375 l 5
 805.865234375 700 891.865234375 743 931.865234375 804 c 5
436.9140625 708 m 5
 436.89453125 457 l 21
 436.89453125 357.543945312 422.381835938 300.90234375 391.53125 271 c 4
 371.8203125 251.89453125 345.439453125 243.705078125 311.913085938 242.239257812 c 4
 291.676757812 241.353515625 243.913085938 248 218.119140625 276.470703125 c 4
 181.23828125 317.178710938 181.166015625 391.759765625 189.029296875 453.884765625 c 4
 192.848632812 484.067382812 198.693359375 514 206.509765625 543.40234375 c 5
 143.701171875 560.099609375 l 5
 135.138671875 527.888671875 128.737304688 495.110351562 124.552734375 462.044921875 c 4
 117.135742188 403.448242188 111.08984375 299.880859375 169.279296875 233.595703125 c 4
 200.483398438 198.047851562 248.819335938 178.151367188 292.913085938 176.844726562 c 4
 341.705078125 175.3984375 394.887695312 181.145507812 435.39453125 218 c 4
 474.586914062 253.658203125 501.913085938 318.4375 501.913085938 434 c 5
 501.913085938 499 501.913085938 543.427734375 501.913085938 708 c 5
 436.9140625 708 l 5
EndSplineSet
Validated: 1048617
LCarets2: 1 0
Ligature2: "'liga' Standard Ligatures in Latin lookup 1-1" daad i_saau
EndChar

StartChar: du
Encoding: 62 57358 42
Width: 929
VWidth: 1024
Flags: WO
HStem: 173.908 65.0586<487.06 648.651> 350.6 69.5352<440.227 507.638> 383.092 64.9766<469.122 669.135> 489 61.6523<528.135 611.841> 685.928 20G<375.227 440.227>
VStem: 375.227 65<420.135 705.928> 676.773 66.3105<615.694 726.06> 691.229 65.1621<278.328 363.081>
AnchorPoint: "u_sait" 880.135 390 basechar 0
AnchorPoint: "pangnau" 1003.21 427 basechar 0
AnchorPoint: "saau_maam" 483.214 46 basechar 0
AnchorPoint: "saau" 413.214 370 basechar 0
LayerCount: 3
Fore
SplineSet
858 887 m 5x9e
 909 839 l 5
 861 773 787 743 742.06640625 721.408203125 c 5
 742.908203125 711.543945312 743.083984375 704.0078125 743.083984375 699.30078125 c 4
 743.083984375 633.846679688 722.856445312 597.532226562 713.515625 584.244140625 c 4
 665.87109375 516.46484375 606.806640625 494.5390625 528.134765625 489 c 5
 527.962890625 550.65234375 l 5
 584.559570312 553.520507812 620.8671875 566.192382812 653.388671875 612.833984375 c 4
 676.7734375 646.370117188 676.7734375 677.119140625 676.7734375 688.060546875 c 4
 676.7734375 725.877929688 666.98046875 762.336914062 666.7734375 763.064453125 c 5
 685.15234375 767.484375 l 5
 685.154296875 767.484375 l 5
 732 783 818 826 858 887 c 5x9e
375.2265625 705.927734375 m 5
 440.2265625 705.927734375 l 5
 440.2265625 420.134765625 l 5xdd
 450.041015625 423.3203125 l 6
 508.852539062 442.409179688 559.038085938 449.592773438 600.734375 448.068359375 c 4
 705.217773438 444.25 756.390625 385.75 756.390625 322.849609375 c 4xbd
 756.390625 241.834960938 673.493164062 173.908203125 563.541015625 173.908203125 c 5
 563.541015625 173.90625 l 5
 522.333007812 173.90625 480.182617188 184.294921875 444.826171875 210.02734375 c 4
 394.041992188 246.989257812 382.224609375 295.086914062 376.6640625 318.97265625 c 5
 363.611328125 309.732421875 348.099609375 297.479492188 330.619140625 280.59765625 c 4
 304.385742188 255.263671875 256.731445312 207.413085938 228.435546875 174.017578125 c 5
 206.048828125 192.791992188 153.919921875 239.669921875 120.345703125 274.994140625 c 4
 90.6611328125 306.2265625 49.001953125 356.205078125 28.134765625 375.447265625 c 5
 82.9453125 425.673828125 l 5
 96.6767578125 402.3671875 124.291015625 367.141601562 152.140625 338.669921875 c 4
 172.296875 318.064453125 209.747070312 278.890625 226.021484375 268.984375 c 5
 251.552734375 298.594726562 280.24609375 324.263671875 306.056640625 345.73046875 c 4
 323.801757812 360.490234375 352.095703125 379.734375 375.2265625 392.9609375 c 4
 375.2265625 393.06640625 375.2265625 393.170898438 375.2265625 393.275390625 c 6
 375.2265625 705.927734375 l 5
591.71484375 383.091796875 m 5xbd
 524.25 383.091796875 461.563476562 358.919921875 439.986328125 350.599609375 c 5xdd
 441.018554688 327.85546875 442.647460938 292.006835938 483.087890625 262.57421875 c 4
 505.106445312 246.548828125 534.408203125 238.966796875 564.4609375 238.966796875 c 4
 632.30859375 238.966796875 691.228515625 276.166992188 691.228515625 323.435546875 c 4
 691.228515625 343.8125 674.405273438 383.091796875 591.716796875 383.091796875 c 6
 591.71484375 383.091796875 l 5xbd
EndSplineSet
Validated: 1048609
LCarets2: 1 0
Ligature2: "'liga' Standard Ligatures in Latin lookup 1-1" daad u_saau
EndChar

StartChar: do
Encoding: 63 57359 43
Width: 819
VWidth: 1024
Flags: W
HStem: 177.669 65.0059<157.229 289.066> 421.095 65.0771<162.726 333.819> 446 61.6523<479 562.706>
VStem: 60 65.082<274.798 387.891> 627.639 66.3105<572.694 683.06>
AnchorPoint: "u_sait" 704 390 basechar 0
AnchorPoint: "pangnau" 864 378 basechar 0
AnchorPoint: "saau_maam" 350 46 basechar 0
AnchorPoint: "saau" 372 370 basechar 0
LayerCount: 3
Fore
SplineSet
808.865234375 844 m 5xb8
 859.865234375 796 l 5
 811.865234375 730 737.865234375 700 692.931640625 678.408203125 c 5
 693.7734375 668.543945312 693.94921875 661.0078125 693.94921875 656.30078125 c 4
 693.94921875 590.846679688 673.721679688 554.532226562 664.380859375 541.244140625 c 4
 616.736328125 473.46484375 557.671875 451.5390625 479 446 c 5
 478.828125 507.65234375 l 5
 535.424804688 510.520507812 571.732421875 523.192382812 604.25390625 569.833984375 c 4
 627.638671875 603.370117188 627.638671875 634.119140625 627.638671875 645.060546875 c 4
 627.638671875 682.877929688 617.845703125 719.336914062 617.638671875 720.064453125 c 5
 636.017578125 724.484375 l 5
 636.01953125 724.484375 l 5
 682.865234375 740 768.865234375 783 808.865234375 844 c 5xb8
60 334.772460938 m 5
 60 250.796875 120 177.668945312 224.072265625 177.668945312 c 4
 315.333333333 177.668945312 368.456054688 234.684570312 392.278320312 313.951171875 c 6
 394.590820312 321.647460938 l 5
 420.3984375 311.91015625 492 276 544 208 c 5
 598 266 l 5
 547 318 463.804744584 367.573630138 405.984375 386.295898438 c 6
 400.793945312 387.9765625 l 5
 400.793945312 721 l 5
 335.793945312 721 l 5
 335.793945312 471.177734375 l 5
 314.119140625 478.581054688 291.89453125 486.171875 255.004882812 486.171875 c 4xd8
 159.078125 486.171875 60 441 60 334.771484375 c 5
 60 334.772460938 l 5
125.081054688 335.188476562 m 5
 125.081054688 401 193.088867188 421.094726562 255.037109375 421.094726562 c 4
 297.383789062 421.094726562 322.743164062 406.03125 335.794921875 398.279296875 c 5
 335.861398304 385.517648304 335.942772636 372.770897636 336 360 c 5
 336 302 292 242.674804688 223.684570312 242.674804688 c 4
 157.5 242.674804688 125.08203125 285.37890625 125.08203125 335.188476562 c 5
 125.081054688 335.188476562 l 5
EndSplineSet
Validated: 1048581
LCarets2: 1 0
Ligature2: "'liga' Standard Ligatures in Latin lookup 1-1" daad o_saau
EndChar

StartChar: ta
Encoding: 64 57360 44
Width: 1053
VWidth: 1024
Flags: W
HStem: 406.225 77.1328<468.67 621.724> 477.252 65.0098<215.708 345.854> 636.041 69.9336<493.769 631.428>
VStem: 111.152 66.2539<507.91 544.637> 402.639 65.2734<287.507 383.879 535.725 610.894> 661.166 66.2402<517.456 609.182> 897 65<385.036 523.879>
AnchorPoint: "u_sait" 1032 338 basechar 0
AnchorPoint: "saau_maam" 567.436 -25 basechar 0
AnchorPoint: "pangnau" 1115.44 332 basechar 0
AnchorPoint: "saau" 438.936 350 basechar 0
LayerCount: 3
Fore
SplineSet
556.064453125 705.974609375 m 0xbe
 541.282226562 705.8203125 401.103515625 695.87890625 401.103515625 535.724609375 c 2
 401.11328125 501.1328125 l 1
 353.669921875 525.622070312 321.431640625 542.26171875 276.9296875 542.26171875 c 0
 239.5390625 542.26171875 204.81640625 528.979492188 175.208984375 507.283203125 c 1
 176.236328125 520.672851562 177.037109375 533.362304688 177.40625 544.63671875 c 1
 111.15234375 547.58984375 l 1
 112.985351562 518.546875 108.333007812 449.592773438 102.2734375 401.025390625 c 0
 96.685546875 356.237304688 89.20703125 311.0390625 77 268 c 1
 148.619140625 256.587890625 l 1
 148.619140625 256.587890625 160.366210938 348.663085938 164.759765625 395.8125 c 0
 164.801757812 396.258789062 164.854492188 396.772460938 164.896484375 397.220703125 c 0
 188.715820312 441.586914062 230.680664062 477.251953125 277.220703125 477.251953125 c 0x7e
 304.772460938 477.251953125 333.288085938 462.465820312 358.462890625 449.4140625 c 0
 375.315429688 440.67578125 384.321289062 436.8046875 402.638671875 428.765625 c 1
 402.638671875 361.919921875 l 2
 402.638671875 326.877929688 404.58203125 177.315429688 599 165.87890625 c 0
 684.606445312 160.842773438 753.038085938 174.581054688 804 205.306640625 c 0
 931 281.877929688 961 401.87890625 962 523.87890625 c 1
 897 523.87890625 l 1
 897.634765625 407.067382812 861.59375 311.61328125 779 263.892578125 c 0
 731.494140625 236.444335938 668.586914062 224.786132812 588.3984375 233.935546875 c 0
 468.318359375 247.637695312 467.912109375 340.87890625 467.912109375 383.87890625 c 2
 467.912109375 409.880859375 l 1
 483.806640625 407.943359375 496.442382812 406.224609375 516.029296875 406.224609375 c 0
 643.91796875 406.224609375 727.40625 470.474609375 727.40625 555.4921875 c 0
 727.40625 634.43359375 653.170898438 705.974609375 556.064453125 705.974609375 c 0xbe
564.63671875 636.041015625 m 0
 617.440429688 634.45703125 661.166015625 607.306640625 661.166015625 563.662109375 c 0
 661.166015625 505.403320312 576.543945312 465.09765625 468.669921875 483.357421875 c 1xbe
 468.68359375 553.87890625 l 2
 468.68359375 604.943359375 497.1171875 638.06640625 564.63671875 636.041015625 c 0
EndSplineSet
Validated: 1048617
LCarets2: 1 0
Ligature2: "'liga' Standard Ligatures in Latin lookup 1-1" taat a_saau
EndChar

StartChar: ti
Encoding: 65 57361 45
Width: 955
VWidth: 1024
Flags: W
HStem: 418.246 72.6074<631.248 778.949> 489.271 65.0098<378.043 508.43> 648.062 69.9316<652.918 794.024> 763.064 20G<424.572 442.398>
VStem: 273.152 64.6934<518.087 559.512> 565.086 65.1504<275.841 423.406 513.152 621.293> 823.744 66.2363<528.372 620.894>
AnchorPoint: "u_sait" 784 362 basechar 0
AnchorPoint: "pangnau" 1027.31 384 basechar 0
AnchorPoint: "saau_maam" 535.312 46 basechar 0
AnchorPoint: "saau" 602.312 370 basechar 0
LayerCount: 3
Fore
SplineSet
438.619140625 783.064453125 m 1xbe
 452.171875 711.333984375 l 1
 421.5390625 706.885742188 303.317382812 679.868164062 223.6484375 593.365234375 c 0
 177.805664062 543.58984375 161.01953125 488.22265625 157.013671875 424.34375 c 0
 151.889648438 342.642578125 187.236328125 257.107421875 264.53125 218.103515625 c 0
 347.799804688 176.0859375 497.634765625 213.450195312 537.759765625 267.259765625 c 0
 553.752929688 288.708984375 565.0859375 321.4453125 565.0859375 369.708984375 c 2
 565.0859375 440.888671875 l 1
 546.768554688 448.927734375 537.891601562 452.6953125 521.0390625 461.43359375 c 0
 495.86328125 474.486328125 467.34765625 489.271484375 439.796875 489.271484375 c 0
 391.296875 489.271484375 347.690429688 450.579101562 324.4921875 403.626953125 c 1
 319.700195312 354.998046875 309.05859375 271.462890625 309.05859375 271.462890625 c 1
 239 284 l 1
 251.20703125 327.0390625 258.685546875 372.237304688 264.2734375 417.025390625 c 0
 270.333007812 465.592773438 274.985351562 534.546875 273.15234375 563.58984375 c 1
 337.845703125 559.51171875 l 1
 337.43359375 546.9140625 336.4765625 532.532226562 335.265625 517.376953125 c 1
 365.418945312 540.194335938 401.040039062 554.28125 439.5078125 554.28125 c 0x7e
 484.008789062 554.28125 516.245117188 537.641601562 563.689453125 513.15234375 c 1
 563.681640625 547.74609375 l 2
 563.681640625 717.986328125 703.853515625 717.83984375 718.640625 717.994140625 c 2
 718.642578125 717.994140625 l 2
 815.791992188 717.993164062 889.98046875 646.418945312 889.98046875 567.513671875 c 0
 889.98046875 509.530273438 850.522460938 473.887695312 831.556640625 460.10546875 c 0
 779.142578125 422.015625 705.703125 418.24609375 678.607421875 418.24609375 c 0
 659.020507812 418.24609375 646.130859375 421.46875 630.236328125 423.40625 c 1
 630.236328125 376.861328125 l 2
 630.236328125 326.3984375 622.787109375 288.810546875 605.85546875 253.49609375 c 0
 548.921875 139.913085938 340.2578125 83.97265625 200.017578125 182.822265625 c 0
 128.018554688 233.571289062 93.2529296875 315.501953125 93.98828125 427.013671875 c 0
 94.5146484375 506.834960938 131.346679688 583.198242188 183.61328125 645.220703125 c 0
 268.932617188 746.465820312 410.524414062 773.291992188 438.619140625 783.064453125 c 1xbe
727.212890625 648.0625 m 0
 693.333984375 647.818359375 631.259765625 647.370117188 631.259765625 560.990234375 c 2
 631.248046875 495.376953125 l 1
 645.94921875 492.888671875 658.916992188 490.853515625 679.341796875 490.853515625 c 0xbe
 695.841796875 490.853515625 712.479492188 492.407226562 728.87890625 495.453125 c 0
 819.895507812 512.7265625 823.744140625 564.447265625 823.744140625 575.68359375 c 0
 823.744140625 619.328125 779.958984375 644.524414062 727.212890625 648.0625 c 0
EndSplineSet
Validated: 1048609
LCarets2: 1 0
Ligature2: "'liga' Standard Ligatures in Latin lookup 1-1" taat i_saau
EndChar

StartChar: tu
Encoding: 66 57362 46
Width: 891
VWidth: 1024
Flags: W
HStem: 232.225 65.0293<565.895 721.361> 462.568 63.4316<537.431 693.568> 533.643 64.7695<284.448 429.692> 688.217 64.6426<556.226 694.848>
VStem: 185.175 61.6348<564.375 607.521> 470 65.7236<326.783 430 557.654 665.366> 727.396 64.9492<557.36 657.318> 769.271 65.1191<340.696 448.997>
AnchorPoint: "u_sait" 950 404 basechar 0
AnchorPoint: "pangnau" 1048.1 421 basechar 0
AnchorPoint: "saau_maam" 486.101 105 basechar 0
AnchorPoint: "saau" 507.101 429 basechar 0
LayerCount: 3
Fore
SplineSet
626.415039062 752.859375 m 2xfd
 626.416992188 752.859375 l 2
 694 752.859375 792.344726562 697.096679688 792.344726562 613.158203125 c 0xfe
 792.344726562 568.502929688 772.591796875 539.340820312 759.834960938 523.98046875 c 1
 766.575195312 519.31640625 l 2
 831.064453125 474.697265625 834.389648438 423.366210938 834.389648438 394.89453125 c 0
 834.389648438 309.381835938 760.416992188 232.224609375 637.999023438 232.224609375 c 0
 487.279296875 232.224609375 470 359.182527351 470 378.220703125 c 2
 470 378.220703125 470 387.8046875 470 430 c 1
 449.400390625 412.384765625 414 382 362 323 c 0
 326.886243302 283.159391439 298 236 264 174 c 1
 179.872070312 221.19921875 72 276.778320312 44 290 c 1
 86.4140625 358.982421875 l 1
 113 339.403320312 173.736328125 297.3515625 241 262 c 1
 258.127929688 290.845703125 273 322 338.5 393 c 0
 369.426315528 426.523181717 422.598632812 472.58984375 456 499 c 1
 449.313476562 502.244140625 442.750976562 505.536132812 435.283203125 509.560546875 c 0
 411.060546875 522.61328125 371.528320312 533.642578125 345.018554688 533.642578125 c 0
 300.859375 533.642578125 257.53515625 498.447265625 233.778320312 454.859375 c 1
 229.151367188 406.794921875 221 351 221 351 c 1
 154 364 l 1
 171.805856 426.779174851 189.688208069 540.552137434 185.174804688 612.064453125 c 1
 246.809570312 607.521484375 l 1
 246.380859375 594.438476562 245.370117188 579.443359375 244.088867188 563.634765625 c 1
 273.99609375 585.295898438 309.00390625 598.654296875 346.237304688 598.412109375 c 0
 389.0546875 598.133789062 424.3515625 582.142578125 470 557.654296875 c 1
 469.184570312 597.3125 l 2
 466.868532418 709.95237893 551 752.859375 626.415039062 752.859375 c 2xfd
631.817382812 688.216796875 m 0
 603.525390625 688.008789062 536.860351562 691.540039062 536.860351562 606.3125 c 2
 536.797851562 534.703125 l 1
 550 528 583.34765625 526 603 526 c 0
 711 526 727.395507812 579.33203125 727.395507812 615.099609375 c 0
 727.395507812 649 683.048828125 687.9453125 631.817382812 688.216796875 c 0
699.409179688 483.505859375 m 0
 658.051757812 467.279296875 612.485351562 462.54296875 583.581054688 462.568359375 c 0
 564.693359375 462.584960938 546.98046875 466.612304688 535.723632812 468.412109375 c 1
 535.723632812 391.3125 l 2
 535.723632812 311.759765625 595.067382812 297.25390625 638.350585938 297.25390625 c 0
 718.251953125 297.25390625 769.270507812 341.055664062 769.270507812 394.728515625 c 2
 769.270507812 394.73046875 l 2xfd
 769.270507812 455.202148438 700.466796875 483.108398438 699.409179688 483.505859375 c 0
EndSplineSet
Validated: 1048609
LCarets2: 1 0
Ligature2: "'liga' Standard Ligatures in Latin lookup 1-1" taat u_saau
EndChar

StartChar: to
Encoding: 67 57363 47
Width: 883
VWidth: 1024
Flags: HMW
VStem: 475.725 65<286.903 384.902 550 627.181> 738.725 65<527.749 609.718>
AnchorPoint: "u_sait" 728 352 basechar 0
AnchorPoint: "pangnau" 955.724 382 basechar 0
AnchorPoint: "saau_maam" 433.724 46 basechar 0
AnchorPoint: "saau" 511.724 370 basechar 0
LayerCount: 3
Fore
SplineSet
624.8046875 718.7265625 m 0
 547.016601562 715.727539062 473.8046875 667.06640625 473.8046875 563.875 c 2
 473.8046875 502.875 l 1
 427.852539062 528.103515625 328.936523438 582.939453125 165.697265625 481.384765625 c 1
 166.196289062 489.201171875 169.7734375 525.06640625 170 532 c 1
 105.365234375 534.54296875 l 1
 107.198242188 505.5 99.3916015625 408.256835938 93.33203125 359.689453125 c 0
 89.4976530918 328.956958533 87.20703125 318.0390625 75 275 c 1
 145 264 l 1
 145 264 149.807617188 307.739257812 154.201171875 354.888671875 c 0
 155.4140625 367.911132812 156.8203125 382.087890625 158.1953125 395.943359375 c 1
 167.709960938 403.134765625 176.915039062 409.516601562 204.029296875 428.3828125 c 1
 183.58984375 400.874023438 182.693359375 338.409179688 190.58984375 302.875 c 0
 212.58984375 203.875 286.58984375 171.875 358.08984375 171.875 c 0
 408.599609375 171.875 460.0625 193.821289062 494.58984375 229.875 c 0
 530.563476562 267.439453125 540.8046875 317.827148438 540.8046875 384.875 c 2
 540.8046875 411.875 l 1
 589.826171875 405.338867188 681.348632812 405.390625 739.458984375 447.619140625 c 0
 758.424804688 461.401367188 807 500.875 807 565.875 c 0
 807 666.874023438 712.963867188 722.125976562 624.8046875 718.7265625 c 0
633.51171875 650.212890625 m 0
 689.356445312 649.94140625 743.8046875 614.874023438 743.8046875 564.734375 c 0
 743.8046875 501.874023438 629.8046875 461.875 541.8046875 485.875 c 1
 541.8046875 549.875 l 2
 541.8046875 622.875 566.760742188 649.712890625 633.51171875 650.212890625 c 0
343.810546875 474.3515625 m 0
 385.903320312 473.18359375 431.919921875 452.75 475.8046875 425.875 c 1
 475.8046875 368.875 l 2
 475.8046875 325.875 470.248046875 302.920898438 452.591796875 279.73046875 c 0
 431.732421875 252.333984375 394.754882812 237.014648438 359.08984375 238.109375 c 0
 301.58984375 239.875 268.620117188 275.84375 255.58984375 323.875 c 0
 246.7578125 356.4296875 250.58984375 418.875 273.58984375 452.875 c 1
 294.711914062 468.817382812 318.5546875 475.051757812 343.810546875 474.3515625 c 0
EndSplineSet
Validated: 1048617
LCarets2: 1 0
Ligature2: "'liga' Standard Ligatures in Latin lookup 1-1" taat o_saau
EndChar

StartChar: pa
Encoding: 68 57364 48
Width: 922
VWidth: 1024
Flags: W
HStem: 378.188 68.7891<191.98 351.27>
VStem: 352.76 63.8545<281.154 380.646 452.729 582.839>
AnchorPoint: "u_sait" 1000 408 basechar 0
AnchorPoint: "pangnau" 1082.61 422 basechar 0
AnchorPoint: "saau_maam" 422.614 46 basechar 0
AnchorPoint: "saau" 388.614 370 basechar 0
LayerCount: 3
Fore
SplineSet
564.857421875 744.999023438 m 1
 552.0625 734.994140625 508.611328125 697.2890625 508.611328125 697.2890625 c 1
 549.188476562 658.78125 645.95703125 565.856445312 559.10546875 495.71875 c 0
 533.000976562 474.637695312 481.184570312 460.78125 415.11328125 452.728515625 c 1
 415.119140625 459.236328125 l 2
 415.119140625 545.278320312 420.356445312 612.30859375 348.2734375 658.802734375 c 0
 300.811523438 689.416015625 228.424804688 683.0078125 163.880859375 626.490234375 c 0
 132.58203125 599.083007812 106.791015625 559.751953125 101.28125 518.515625 c 0
 93.552734375 460.672851562 116.5546875 384.180664062 288.859375 378.1875 c 0
 310.163085938 377.446289062 320.631835938 377.616210938 352.759765625 380.646484375 c 1
 352.759765625 301.026367188 352.759765625 267.903320312 390.94140625 229.198242188 c 0
 482.733398438 136.140625 734.783203125 168 826.98828125 334.146484375 c 0
 874.823242188 420.33984375 871.569335938 541.228515625 837.51953125 618.48046875 c 1
 771.387695312 599.569335938 l 1
 798.202148438 537.48828125 801.709960938 431.723632812 770.549804688 368.44140625 c 0
 700.806640625 226.814453125 480.908203125 214.486328125 438.45703125 279.60546875 c 0
 422.614257812 303.908203125 416.614257812 319.249023438 416.614257812 378.205078125 c 2
 416.614257812 387.48828125 l 1
 496.212890625 396.1796875 634.9609375 426.55078125 653.515625 534.875 c 0
 658.705078125 565.172851562 669.720703125 629.479492188 564.857421875 744.999023438 c 1
307.947265625 598.64453125 m 0
 353.051757812 576.000976562 352.947265625 552.260742188 352.505859375 452.109375 c 1
 327.127929688 448.5546875 301.38671875 445.544921875 275.80078125 446.9765625 c 0
 221.734375 450.002929688 160.754882812 464.913085938 171.404296875 518.123046875 c 0
 176.727539062 544.71875 203.133789062 582.99609375 237.74609375 598.326171875 c 0
 259.09375 607.78125 289.926757812 607.692382812 307.947265625 598.64453125 c 0
EndSplineSet
Validated: 1048617
LCarets2: 1 0
Ligature2: "'liga' Standard Ligatures in Latin lookup 1-1" paap a_saau
EndChar

StartChar: pi
Encoding: 69 57365 49
Width: 929
VWidth: 1024
Flags: W
HStem: 166.27 66.832<306.166 517.781> 396.529 71.4629<400.77 566.048 630.714 711.309>
VStem: 130.237 70.457<332.854 546.221> 566.288 64.4258<277.368 394.088 468.611 597.841>
AnchorPoint: "u_sait" 782 342 basechar 0
AnchorPoint: "pangnau" 1024.71 394 basechar 0
AnchorPoint: "saau_maam" 447.714 46 basechar 0
AnchorPoint: "saau" 603.714 370 basechar 0
LayerCount: 3
Fore
SplineSet
778.399414062 760.880859375 m 1
 765.60546875 750.875976562 722.153320312 713.171875 722.153320312 713.171875 c 1
 789.45703125 641.436523438 851.298828125 575.1171875 772.647460938 511.6015625 c 0
 746.54296875 490.520507812 695.306640625 476.6640625 629.235351562 468.611328125 c 1
 629.245117188 475.119140625 l 2
 629.33984375 538 633.90234375 628.19140625 561.819335938 674.685546875 c 0
 514.358398438 705.298828125 441.970703125 698.890625 377.426757812 642.373046875 c 0
 346.127929688 614.965820312 320.337890625 575.634765625 314.827148438 534.3984375 c 0
 297.721679688 406.375976562 451.309570312 385.64453125 566.713867188 396.529296875 c 1
 566.288085938 364 l 2
 565.725585938 321.0078125 568.713867188 233.1015625 421.709960938 233.1015625 c 0
 343.985351562 233.1015625 287.706054688 255.135742188 251.370117188 292 c 0
 215.009765625 328.888671875 198.619140625 380.627929688 200.694335938 440 c 0
 202.729492188 498.2578125 222.54296875 563.86328125 258.713867188 630 c 1
 195.833007812 665.615234375 l 1
 146.631835938 575.986328125 127.608398438 496.140625 130.237304688 428 c 0
 133.55078125 342.126953125 171.250976562 274.844726562 226.272460938 230 c 0
 278.888671875 187.1171875 347.345703125 164.645507812 416.713867188 166.26953125 c 0
 618.713867188 171 630.713867188 287 630.713867188 394.087890625 c 2
 630.713867188 403.37109375 l 1
 710.469726562 412.080078125 848.514648438 442.479492188 867.061523438 550.7578125 c 0
 872.25 581.048828125 883.267578125 645.368164062 778.403320312 760.880859375 c 1
 778.399414062 760.880859375 l 1
554.139648438 585.201171875 m 0
 566.408203125 562.737304688 566.047851562 538 566.047851562 467.9921875 c 1
 546.78515625 465.293945312 366.619140625 442.430664062 384.946289062 534.005859375 c 0
 390.26953125 560.6015625 416.67578125 598.87890625 451.288085938 614.208984375 c 0
 487.049804688 630.047851562 535.431640625 619.45703125 554.139648438 585.201171875 c 0
EndSplineSet
Validated: 1048617
LCarets2: 1 0
Ligature2: "'liga' Standard Ligatures in Latin lookup 1-1" paap i_saau
EndChar

StartChar: pu
Encoding: 70 57366 50
Width: 845
Flags: W
HStem: 158.326 65.0508<539.715 601.367 601.369 674.395> 710.002 20G<628.883 648.033> 710.002 20G<628.883 648.033>
VStem: 185.402 65.2637<471.779 563.028> 437.447 65.0039<259.165 339.504 458.023 593.683> 675.891 65.0742<524.608 628.132> 723.008 65.0254<266.988 322.518 322.52 376.797>
AnchorPoint: "u_sait" 921 364 basechar 0
AnchorPoint: "saau_maam" 440.543 46 basechar 0
AnchorPoint: "pangnau" 1018.54 305 basechar 0
AnchorPoint: "saau" 470.543 370 basechar 0
LayerCount: 3
Fore
SplineSet
645.033203125 730.001953125 m 1xdc
 651.033203125 726.001953125 737.487304688 672.641601562 740.96484375 580.740234375 c 0xdc
 743.294921875 519.177734375 702.794921875 480.815429688 683.5703125 461.515625 c 1
 768.603515625 425.602539062 788.033203125 367.670898438 788.033203125 322.21484375 c 0xda
 788.033203125 233.4296875 705.33203125 158.32421875 601.369140625 158.32421875 c 1
 601.3671875 158.326171875 l 1
 511.4375 158.326171875 470.897460938 214.495117188 456.078125 243.119140625 c 0
 438.69140625 276.702148438 437.447265625 294.001953125 437.447265625 329.001953125 c 2
 437.447265625 339.50390625 l 1
 416.477539062 326.495117188 374.545898438 299.936523438 349.021484375 275.287109375 c 0
 322.788085938 249.953125 255.596679688 186.484375 227.30078125 153.08984375 c 1
 204.9140625 171.86328125 152.787109375 218.7421875 119.212890625 254.06640625 c 0
 89.5283203125 285.297851562 47.8671875 335.276367188 27 354.51953125 c 1
 81.8125 404.74609375 l 1
 95.5439453125 381.438476562 123.158203125 346.211914062 151.0078125 317.740234375 c 0
 171.1640625 297.133789062 208.614257812 257.962890625 224.888671875 248.056640625 c 1
 250.419921875 277.666992188 298.6484375 318.953125 324.458984375 340.419921875 c 0
 336.42578125 350.373046875 359.438476562 365.936523438 382.69140625 380.46875 c 1
 368.123046875 381.407226562 353.5625 382.102539062 343.142578125 385.115234375 c 0
 302.899414062 389.7421875 185.40234375 403.25390625 185.40234375 512.607421875 c 0
 185.40234375 619.21875 330.78515625 725.811523438 433.166015625 664.564453125 c 0
 502.28125 623.217773438 502.23828125 549.650390625 502.189453125 466.40625 c 2
 502.18359375 458.0234375 l 1
 668.927734375 476.461914062 675.890625 564.0078125 675.890625 578.505859375 c 0
 675.890625 620.407226562 629.034179688 654.000976562 598.306640625 672.13671875 c 1
 645.033203125 730.001953125 l 1xdc
364.900390625 617.521484375 m 0
 311.560546875 616.247070312 250.666015625 559.776367188 250.666015625 512.77734375 c 0
 250.666015625 451.112304688 333.856445312 446.271484375 437.205078125 450.80859375 c 1
 437.583007812 541.223632812 437.770507812 586.063476562 399.779296875 608.791015625 c 0
 389.116210938 615.170898438 377.209960938 617.815429688 364.900390625 617.521484375 c 0
628.0546875 405.73828125 m 0
 597.25 406.630859375 556.4609375 399.758789062 502.451171875 380.140625 c 1
 502.451171875 329 l 2
 502.451171875 277 531.734375 223.376953125 602.255859375 223.376953125 c 0
 666.333007812 223.376953125 723.0078125 267.5390625 723.0078125 322.517578125 c 1x9a
 723.009765625 322.51953125 l 1
 723.009765625 330.495117188 720.467773438 403.059570312 628.0546875 405.73828125 c 0
EndSplineSet
Validated: 1048609
LCarets2: 1 0
Ligature2: "'liga' Standard Ligatures in Latin lookup 1-1" paap u_saau
EndChar

StartChar: po
Encoding: 71 57367 51
Width: 741
VWidth: 1024
Flags: W
VStem: 352.93 68.6094<267.741 409.076 479.292 607.669> 628 80<181.55 218.029>
AnchorPoint: "u_sait" 827 342 basechar 0
AnchorPoint: "pangnau" 953 328 basechar 0
AnchorPoint: "saau_maam" 304 46 basechar 0
AnchorPoint: "saau" 393 370 basechar 0
LayerCount: 3
Fore
SplineSet
565.28125 771.563476562 m 1
 553 761 509.03515625 723.852539062 509.03515625 723.852539062 c 1
 544.095703125 686.486328125 576.333007812 652.12890625 588.750976562 618 c 0
 602.76953125 579.471679688 606.189453125 501.795898438 421.5390625 479.291992188 c 1
 421.548828125 485.799804688 l 2
 421.548828125 570.759765625 421.548828125 638.383789062 348.703125 685.366210938 c 0
 256.768554688 744.665039062 115.598632812 649.014648438 101.7109375 545.079101562 c 0
 97.677734375 514.890625 97.0732421875 481.111328125 139.107421875 446.717773438 c 1
 83.7275390625 412.438476562 46.5087890625 346.737304688 64.48046875 282.139648438 c 0
 96.4638671875 167.18359375 269.423828125 148.3671875 361.696289062 210.663085938 c 0
 417 248 423.017578125 305 423.017578125 409.083007812 c 1
 460 394 529.342171299 338.533402774 562 294 c 0
 606 234 624 179 628 156 c 1
 708 184 l 1
 700 214 661.085325426 289.759628085 611 347 c 0
 590 371 550 411 518.51171875 433.174804688 c 1
 602.076171875 459.387695312 650 510 662 561 c 0
 680.311523438 638.822265625 596.346679688 738.482421875 565.28515625 771.563476562 c 1
 565.28125 771.563476562 l 1
341.0234375 595.881835938 m 0
 353.280273438 573.4375 352.9296875 522 352.9296875 478.672851562 c 1
 333.671875 475.975585938 153.499023438 453.110351562 171.828125 544.686523438 c 0
 188.079101562 625.883789062 303.014648438 665.483398438 341.0234375 595.881835938 c 0
353.189453125 407.209960938 m 1
 353.189453125 292 353.189453125 244.075195312 251 236.861328125 c 0
 156.74609375 230.20703125 87.9423828125 299.76953125 146.7265625 368.690429688 c 0
 164.376953125 389.387695312 192.8046875 422.720703125 353.189453125 407.209960938 c 1
EndSplineSet
Validated: 1048617
LCarets2: 1 0
Ligature2: "'liga' Standard Ligatures in Latin lookup 1-1" paap o_saau
EndChar

StartChar: ha
Encoding: 72 57368 52
Width: 737
VWidth: 1024
Flags: W
VStem: 90 66.8613<294.169 405.986 528.868 602.986> 598.104 65.8965<320.108 490.17>
AnchorPoint: "u_sait" 786 390 basechar 0
AnchorPoint: "pangnau" 846 285.986 basechar 0
AnchorPoint: "saau_maam" 320 43.9863 basechar 0
AnchorPoint: "saau" 128 347.986 basechar 0
LayerCount: 3
Fore
SplineSet
282 675.986328125 m 0
 272.37890625 651.173828125 268.049804688 620.1953125 270.206054688 592.986328125 c 0
 273.817382812 547.426757812 287.369140625 504.852539062 293 484.986328125 c 1
 256 486.986328125 157.5 484.358398438 157.5 602.986328125 c 1
 90.638671875 602.986328125 l 1
 90 405.986328125 l 2
 89.775390625 336.775390625 91.9990234375 211.05859375 243.52734375 165.793945312 c 0
 310.341796875 145.834960938 423.478515625 148.63671875 505.94140625 186.142578125 c 0
 691.009765625 270.315429688 690 426.986328125 664 505.986328125 c 1
 598.103515625 490.169921875 l 1
 602 472.986328125 654.143554688 324.326171875 480.716796875 246.037109375 c 0
 407.981445312 213.202148438 306.811523438 211.34765625 253.75 231.399414062 c 0
 156.861328125 268.012695312 156.861328125 349.986328125 156.861328125 405.986328125 c 2
 156.861328125 464.814453125 l 1
 283.154296875 388.013671875 448 423.986328125 512.41015625 489 c 0
 548.767578125 525.698242188 562.559570312 572.426757812 559.625976562 616.986328125 c 0
 556.583007812 663.203125 535.450195312 707.181640625 502.438476562 735.60546875 c 0
 466.443359375 766.598632812 420.51953125 774.780273438 379 764.59765625 c 0
 334.365234375 753.650390625 301 724.986328125 282 675.986328125 c 0
485.15625 553.767578125 m 0
 456.037109375 504.9609375 400 491.986328125 352 486.986328125 c 1
 344.762695312 509.21484375 335.629882812 552.041015625 333.380859375 579.83203125 c 0
 331.168945312 607.16015625 326.646484375 663.020507812 370.27734375 690.19921875 c 0
 391.3203125 703.307617188 413.778320312 704.998046875 434 698.725585938 c 0
 465.650390625 688.908203125 491.8203125 659.581054688 498.502929688 623.986328125 c 0
 502.642578125 601.935546875 499.303710938 577.48046875 485.15625 553.767578125 c 0
EndSplineSet
Validated: 1048617
LCarets2: 1 0
Ligature2: "'liga' Standard Ligatures in Latin lookup 1-1" haah a_saau
EndChar

StartChar: hi
Encoding: 73 57369 53
Width: 917
VWidth: 1024
Flags: W
VStem: 417.662 65.3379<247.128 347.064 481.996 529.064>
AnchorPoint: "u_sait" 646 312 basechar 0
AnchorPoint: "pangnau" 986 350.065 basechar 0
AnchorPoint: "saau_maam" 480 -1.93545 basechar 0
AnchorPoint: "saau" 455 322.065 basechar 0
LayerCount: 3
Fore
SplineSet
675.087890625 706.009765625 m 0
 649.892578125 692.517578125 620 660.064453125 606.844726562 608.064453125 c 0
 593.344726562 554.706054688 601 499.064453125 618 436.064453125 c 1
 547 446.064453125 483 475.064453125 483 529.064453125 c 1
 483 543.064453125 483 557.684570312 483 560.064453125 c 1
 417.662109375 560.064453125 l 1
 417.662109375 347.064453125 l 2
 417.662109375 287.587890625 409.856445312 222.609375 333.330078125 208.623046875 c 0
 280.9140625 199.045898438 198.997070312 217.83203125 158.779296875 270.080078125 c 0
 110.801757812 332.413085938 123.848632812 430.0625 165.375 504.736328125 c 1
 106 534.064453125 l 1
 59 432.064453125 38.640625 319.609375 107.279296875 230.439453125 c 0
 170.935546875 147.7421875 288.686523438 132.52734375 345.013671875 144.69140625 c 0
 482.5234375 174.387695312 483 304.791992188 483 330.064453125 c 2
 483 420.064453125 l 1
 637 334.064453125 772 386.064453125 830 432 c 0
 910.696289062 495.91015625 917.333984375 621.224609375 838 690.064453125 c 0
 794.493164062 727.81640625 724.274414062 732.348632812 675.087890625 706.009765625 c 0
809.31640625 632.064453125 m 0
 841.52734375 599.293945312 840.930664062 546.447265625 820.158203125 511.630859375 c 0
 791.040039062 462.826171875 721 442.064453125 680 440.064453125 c 1
 667.017578125 479.943359375 653.250976562 542.498046875 663.608398438 590.064453125 c 0
 682.0234375 674.641601562 770 672.064453125 809.31640625 632.064453125 c 0
EndSplineSet
Validated: 1048617
LCarets2: 1 0
Ligature2: "'liga' Standard Ligatures in Latin lookup 1-1" haah i_saau
EndChar

StartChar: hu
Encoding: 74 57370 54
Width: 958
VWidth: 1024
Flags: W
HStem: 455 61<516.387 608.289> 718.365 63.998<682.896 791.195>
VStem: 401.727 62.5625<402.797 486 556.357 600>
AnchorPoint: "u_sait" 870 408 basechar 0
AnchorPoint: "pangnau" 994.289 403 basechar 0
AnchorPoint: "saau_maam" 514.289 70 basechar 0
AnchorPoint: "saau" 438.289 394 basechar 0
LayerCount: 3
Fore
SplineSet
742.025390625 782.36328125 m 0
 779.32421875 780.794921875 813.716796875 767.0234375 833.30078125 750.744140625 c 0
 868.541992188 721.448242188 888.528320312 668.208984375 882.837890625 615 c 0
 875.938476562 550.5 841.2890625 476 706.2890625 460 c 1
 733.2890625 412 749.010742188 322.583007812 709.2890625 263 c 0
 683.2890625 224 647.2890625 200 593.2890625 193 c 0
 483.729492188 178.797851562 411.096679688 234.950195312 402.208984375 342.177734375 c 1
 386.28125 332.27734375 362.619140625 316.997070312 333.486328125 288.86328125 c 0
 307.252929688 263.529296875 259.596679688 215.677734375 231.30078125 182.283203125 c 1
 208.9140625 201.056640625 156.78515625 247.935546875 123.2109375 283.259765625 c 0
 93.5263671875 314.491210938 51.8671875 364.469726562 31 383.712890625 c 1
 85.8125 433.939453125 l 1
 99.5439453125 410.631835938 127.158203125 375.405273438 155.0078125 346.93359375 c 0
 175.1640625 326.327148438 212.614257812 287.15625 228.888671875 277.25 c 1
 254.419921875 306.860351562 283.11328125 332.52734375 308.923828125 353.994140625 c 0
 333.540039062 374.467773438 378.450195312 403.572265625 401.7265625 413.2734375 c 1
 401.99609375 429.708984375 402.2890625 445.151367188 402.2890625 467.076171875 c 2
 401.2890625 600 l 1
 464.2890625 600 l 1
 464.2890625 532 579.17578125 517.3671875 608.2890625 516 c 1
 584.905273438 598.506835938 585.896484375 665.020507812 609.041015625 707.291015625 c 0
 641.30859375 766.223632812 694.069335938 784.379882812 742.025390625 782.36328125 c 0
733.220703125 718.365234375 m 0
 719.529296875 718.126953125 706.01171875 714.459960938 694.0859375 707.03125 c 0
 635.903320312 670.787109375 656.096679688 573.947265625 675.2890625 515 c 1
 738.890625 506.744140625 832.942382812 544.91015625 822.708984375 636.873046875 c 0
 816.916992188 688.9296875 774.293945312 719.079101562 733.220703125 718.365234375 c 0
464.2890625 486 m 1
 464.2890625 442.373046875 459.700195312 369.341796875 466.2890625 334 c 0
 477.2890625 275 516.477539062 250.786132812 576.2890625 257 c 0
 653.2890625 265 677.947265625 308.404296875 671.2890625 363 c 0
 666.2890625 404 646.2890625 439 633.2890625 455 c 1
 544.2890625 458 505.2890625 468 464.2890625 486 c 1
EndSplineSet
Validated: 1048609
LCarets2: 1 0
Ligature2: "'liga' Standard Ligatures in Latin lookup 1-1" haah u_saau
EndChar

StartChar: ho
Encoding: 75 57371 55
Width: 834
VWidth: 1024
Flags: W
HStem: 369.152 67.9043<150.787 335.229>
VStem: 59.127 64.9316<237.579 339.784> 335.229 64.8613<240.79 333 369.152 375.602 514.675 585> 546 58<466 664.466>
AnchorPoint: "u_sait" 564 312 basechar 0
AnchorPoint: "pangnau" 918 333 basechar 0
AnchorPoint: "saau_maam" 380 13 basechar 0
AnchorPoint: "saau" 372 337 basechar 0
LayerCount: 3
Fore
SplineSet
542.232421875 666.47265625 m 0
 519.095703125 624.215820312 522.610351562 547.510742188 546 465 c 1
 516 465 400.08984375 470 400.08984375 585 c 1
 335.228515625 585 l 1
 335.228515625 437.056640625 l 1
 203.456054688 472.041992188 53.7529296875 413.022460938 59.126953125 284.87109375 c 0
 62.552734375 203.1171875 132.194335938 139.077148438 219 132.619140625 c 0
 258.538085938 129.676757812 298.645507812 139.299804688 330.6171875 162.98828125 c 0
 395.865234375 211.33203125 399.857421875 297.62890625 399.91796875 333 c 2
 400.08984375 434 l 1
 506 391 670 381 769.41015625 465.013671875 c 0
 841.71484375 526.120117188 836.717773438 651.546875 766.490234375 709.92578125 c 0
 721.723632812 747.138671875 599.595703125 771.240234375 542.232421875 666.47265625 c 0
731.31640625 650.216796875 m 0
 762.704101562 616.670898438 762.9375 564.611328125 742.15625 529.78125 c 0
 713.036132812 480.9765625 647 465 604 466 c 1
 584.80859375 524.9453125 569.09375 629.971679688 627.27734375 666.21484375 c 0
 655.642578125 683.883789062 701.400390625 682.1875 731.31640625 650.216796875 c 0
335.228515625 369.15234375 m 1
 335.228515625 327 l 2
 335.228515625 289 330.309570312 270.665039062 323.45703125 255.697265625 c 0
 313.063476562 232.994140625 283.85546875 189.009765625 216 198.471679688 c 0
 163.751953125 205.7578125 125.927734375 242.954101562 124.05859375 287.591796875 c 0
 123.329101562 304.978515625 127.861328125 337.544921875 166.576171875 360.0234375 c 0
 169.376953125 361.649414062 240.706054688 402.188476562 335.228515625 369.15234375 c 1
EndSplineSet
Validated: 1048617
LCarets2: 1 0
Ligature2: "'liga' Standard Ligatures in Latin lookup 1-1" haah o_saau
EndChar

StartChar: ra
Encoding: 76 57372 56
Width: 1015
VWidth: 1024
Flags: W
HStem: 161.75 67.0605<642.739 784.245> 732 65<573.277 643.767>
VStem: 565.441 67.6055<237.838 290.963 379.061 510.645>
AnchorPoint: "u_sait" 1062 380 basechar 0
AnchorPoint: "pangnau" 1138.05 356 basechar 0
AnchorPoint: "saau_maam" 512.047 -16 basechar 0
AnchorPoint: "saau" 605.047 308 basechar 0
LayerCount: 3
Fore
SplineSet
575 797 m 1
 559 732 l 1
 627 718 684.524414062 705.66015625 758 650.368164062 c 0
 805 615 850.021484375 566.58203125 864.23828125 467 c 0
 865.711914062 456.68359375 876 380 843.966796875 314.484375 c 0
 806.576171875 238.01171875 732.465820312 228.810546875 687.857421875 228.810546875 c 0
 633.399414062 228.810546875 633.046875 272.530273438 633.046875 288.8046875 c 1
 633.046875 334.990234375 633.046875 366 633.046875 403 c 1
 633.046875 491 620.248046875 524.274414062 583.83984375 565.140625 c 0
 581.415039062 567.862304688 541.66015625 611.607421875 482.046875 622.405273438 c 0
 409.244140625 635.590820312 344.877929688 590.642578125 319.34375 550.462890625 c 0
 303.604492188 525.698242188 272.526367188 451.598632812 348.595703125 322.87109375 c 1
 319.4765625 318.666015625 221.376953125 304.500976562 186.4375 361.41796875 c 0
 168.8359375 390.086914062 168.852539062 445.884765625 200.80078125 514.09765625 c 1
 185.747070312 520.71484375 142.701171875 537.126953125 133.7109375 541.32421875 c 1
 123.571289062 509.959960938 91.26171875 397.8515625 124.982421875 335.357421875 c 0
 147.004882812 294.541015625 196.680664062 252.072265625 308.36328125 255.646484375 c 0
 310.294921875 255.708007812 408.536132812 260.526367188 497.681640625 294.732421875 c 1
 493.317382812 306.380859375 479.958007812 348.891601562 477.984375 356.462890625 c 1
 454.848632812 349.012695312 428.387695312 341.456054688 415.23828125 338.080078125 c 1
 389.532226562 377.337890625 327.330078125 472.334960938 384.595703125 530.607421875 c 0
 411.202148438 557.682617188 470.293945312 564.663085938 509.35546875 542.8515625 c 0
 569.081054688 509.5 567.62890625 436.1171875 566.5 379.060546875 c 2
 565.44140625 290.962890625 l 2
 565.862304688 250.844726562 579.131835938 161.75 688.69921875 161.75 c 0
 756.189453125 161.75 852.522460938 183.876953125 902 281 c 0
 929 334 943.209960938 401.19921875 926.811523438 497 c 0
 915 566 865.462890625 651.194335938 794 707.5078125 c 0
 735 754 626 788 575 797 c 1
EndSplineSet
Validated: 1048617
LCarets2: 1 0
Ligature2: "'liga' Standard Ligatures in Latin lookup 1-1" raar a_saau
EndChar

StartChar: ri
Encoding: 77 57373 57
Width: 852
VWidth: 1024
Flags: W
HStem: 152.353 66.9385<331.388 594.585>
VStem: 111.217 69.7773<385.909 605.021> 710.025 65.1582<319.121 408.182 425.09 614.408>
AnchorPoint: "u_sait" 904 392 basechar 0
AnchorPoint: "pangnau" 1024.29 373.508 basechar 0
AnchorPoint: "saau_maam" 418.292 29.5078 basechar 0
AnchorPoint: "saau" 748.292 353.508 basechar 0
LayerCount: 3
Fore
SplineSet
461.40625 650.18359375 m 0
 410.712890625 570.411132812 460.729492188 477.274414062 490.658203125 422.591796875 c 1
 461.544921875 418.387695312 363.444335938 404.221679688 328.5 461.138671875 c 0
 310.942382812 489.739257812 310.854492188 545.4765625 342.86328125 613.818359375 c 1
 327.809570312 620.435546875 284.76171875 636.84765625 275.771484375 641.044921875 c 1
 265.65234375 609.7421875 233.318359375 497.583007812 267.04296875 435.078125 c 0
 289.068359375 394.260742188 338.74609375 351.793945312 450.42578125 355.3671875 c 0
 452.358398438 355.428710938 550.59765625 360.247070312 639.744140625 394.453125 c 1
 635.380859375 406.1015625 622.018554688 448.612304688 620.044921875 456.18359375 c 1
 596.909179688 448.733398438 570.450195312 441.176757812 557.30078125 437.80078125 c 1
 534.026367188 461.276367188 499.6796875 525.0390625 505.58984375 578.66796875 c 0
 516.958984375 681.831054688 673.693359375 686.41015625 701.916992188 586 c 0
 710.025390625 557.154296875 710.025390625 513.254882812 710.025390625 425.08984375 c 2
 710.025390625 408.181640625 l 2
 710.025390625 321.950195312 666.126953125 222.952148438 466.18359375 219.291015625 c 0
 385.91796875 217.821289062 260.908203125 237.23046875 201.153320312 360 c 0
 167.239257812 429.676757812 164.810546875 532.009765625 180.994140625 605.021484375 c 1
 111.216796875 618.548828125 l 1
 99.9072265625 568.84375 84.470703125 434.39453125 136.9296875 330 c 0
 170.520507812 263.151367188 258.416015625 148.4765625 465.18359375 152.352539062 c 0
 580.983398438 154.5234375 775.18359375 204.2421875 775.18359375 386 c 9
 775.234375 441.1640625 l 0
 775.234375 546 775.234375 590.190429688 750.583984375 636 c 0
 696.43359375 736.629882812 530.974609375 759.649414062 461.40625 650.18359375 c 0
EndSplineSet
Validated: 1048617
LCarets2: 1 0
Ligature2: "'liga' Standard Ligatures in Latin lookup 1-1" raar i_saau
EndChar

StartChar: ru
Encoding: 78 57374 58
Width: 926
VWidth: 1024
Flags: W
HStem: 151.947 65.0605<607.452 747.619> 398.967 65.0137<608.151 764.516> 611.045 20G<70.5303 80.085>
VStem: 510.053 65.0215<253.464 324.232 434.467 605.425> 795.902 65.0254<260.493 367.972>
AnchorPoint: "u_sait" 1028 380 basechar 0
AnchorPoint: "pangnau" 1066.74 370.549 basechar 0
AnchorPoint: "saau_maam" 392.741 18.5488 basechar 0
AnchorPoint: "saau" 545 342.549 basechar 0
LayerCount: 3
Fore
SplineSet
407.208984375 714.3046875 m 0
 450.955078125 713.018554688 493.998046875 695.672851562 524 662 c 0
 573.58984375 606.337890625 575.2421875 552.317382812 575.07421875 434.466796875 c 1
 645.826171875 463.98046875 676.428710938 463.98046875 697.041015625 463.98046875 c 0
 797.7421875 463.98046875 860.927734375 391.993164062 860.927734375 316.166015625 c 2
 860.927734375 316.1640625 l 2
 860.927734375 226.850585938 778.189453125 151.947265625 673.494140625 151.947265625 c 0
 546.579101562 151.947265625 516.2265625 253.75390625 509.451171875 315.029296875 c 0
 509.451171875 318.260742188 509.455078125 321.322265625 509.4609375 324.232421875 c 1
 488.673828125 309.563476562 436.756835938 266.481445312 409.880859375 240.52734375 c 0
 383.647460938 215.193359375 311.786132812 143.943359375 283.490234375 110.548828125 c 1
 261.103515625 129.322265625 233.73828125 152.35546875 200.1640625 187.6796875 c 0
 170.479492188 218.911132812 136.615234375 257.424804688 115.748046875 276.66796875 c 1
 170.55859375 326.896484375 l 1
 184.290039062 303.588867188 204.109375 279.827148438 231.958984375 251.35546875 c 0
 252.115234375 230.749023438 264.801757812 215.421875 281.076171875 205.515625 c 1
 306.607421875 235.125976562 359.5078125 284.193359375 385.318359375 305.66015625 c 0
 408.869140625 325.248046875 482.455078125 382.465820312 510.052734375 396.716796875 c 0
 510.052734375 397.0390625 510.052734375 397.36328125 510.052734375 397.689453125 c 2
 510.052734375 427.904296875 l 2
 510.052734375 521.62109375 520 584 472.607421875 624 c 0
 426.490234375 662.923828125 340.703125 659.565429688 313.611328125 600 c 0
 297.162109375 563.83203125 300.399414062 514.421875 357.1171875 427.80078125 c 1
 370.266601562 431.176757812 396.727539062 438.733398438 419.86328125 446.18359375 c 1
 421.836914062 438.612304688 435.197265625 396.1015625 439.560546875 384.453125 c 1
 350.41015625 350.245117188 252.173828125 345.428710938 250.2421875 345.3671875 c 0
 138.5625 341.79296875 88.8857421875 384.259765625 66.861328125 425.076171875 c 0
 33.13671875 487.583984375 65.470703125 599.741210938 75.58984375 631.044921875 c 1
 84.580078125 626.84765625 127.625976562 610.435546875 142.6796875 603.818359375 c 1
 110.706054688 535.54296875 110.737304688 479.778320312 128.318359375 451.138671875 c 0
 163.262695312 394.221679688 261.346679688 408.385742188 290.474609375 412.591796875 c 1
 259.338867188 466.680664062 212.834960938 564.03515625 261.224609375 640.18359375 c 0
 293.559570312 691.0625 350.96484375 715.958007812 407.208984375 714.3046875 c 0
694.171875 398.966796875 m 0
 662.466796875 398.329101562 622.958984375 387.701171875 575.103515625 361.609375 c 1
 575.103515625 304.010742188 575.103515625 217.0078125 674.51953125 217.0078125 c 0
 738.790039062 217.0078125 795.90234375 260.709960938 795.90234375 316.4609375 c 0
 795.90234375 353.4296875 763.921875 400.37109375 694.171875 398.966796875 c 0
EndSplineSet
Validated: 1048609
LCarets2: 1 0
Ligature2: "'liga' Standard Ligatures in Latin lookup 1-1" raar u_saau
EndChar

StartChar: ro
Encoding: 79 57375 59
Width: 860
VWidth: 1024
Flags: W
HStem: 406.939 65.2207<589.174 696.603>
VStem: 524.051 65<258.871 322.612 472.16 618.546>
AnchorPoint: "u_sait" 932 352 basechar 0
AnchorPoint: "pangnau" 1022.74 382.844 basechar 0
AnchorPoint: "saau_maam" 406.741 26.8438 basechar 0
AnchorPoint: "saau" 559.741 350.844 basechar 0
LayerCount: 3
Fore
SplineSet
275.224609375 664.18359375 m 0
 220.689901797 578.377694671 278.37733059 480.756643662 304.474609375 436.59375 c 1
 275.34971921 432.388057047 177.260217932 418.22512165 142.318359375 475.138671875 c 0
 124.741911408 503.767316585 124.699965333 559.53823077 156.6796875 627.818359375 c 1
 141.625976562 634.436523438 98.580078125 650.848632812 89.58984375 655.044921875 c 1
 79.4696530943 623.738718058 47.1377126858 511.581801009 80.861328125 449.078125 c 0
 103.011202163 408.025333581 153.209334763 365.14422389 266.61328125 369.484375 c 1
 261.628963273 357.13205837 225.883735127 260.750401542 294.904296875 193.98046875 c 0
 349.937304239 140.741982856 450.012599083 142.62808849 511.546875 180.517578125 c 0
 535.230016553 195.100379873 589.05078125 237.168887703 589.05078125 318.334960938 c 2
 589.05078125 406.939453125 l 1
 666 410 748 374 798 306 c 1
 846 370 l 1
 785 438 705 472 589.173828125 472.16015625 c 1
 589.767859248 563.741274477 590.146621738 622.259919671 539.71875 678.861328125 c 0
 461.51723981 766.636510131 329.964422518 750.312209649 275.224609375 664.18359375 c 0
473.541015625 653.357421875 m 0
 524.05078125 619.729802954 524.05078125 531.084541956 524.05078125 451.904296875 c 2
 524.05078125 322.634765625 l 1
 523.509765625 322.612304688 l 1
 523.933666787 312.776781715 523.554411507 264.233752472 477.47265625 235.860351562 c 0
 441.603963466 213.775324748 373.123055298 208.73990021 340.091796875 240.692382812 c 0
 309.34959893 270.430563913 308.910369825 333.614123668 347.83203125 379.905273438 c 1
 394.775110181 389.047635283 426.632732872 398.120676883 453.560546875 408.454101562 c 1
 449.196289062 420.1015625 435.836914062 462.61328125 433.86328125 470.184570312 c 1
 410.727539062 462.734375 384.266601562 455.176757812 371.1171875 451.801757812 c 1
 356.72825062 473.776869956 285.878677785 588.776577745 340.474609375 644.329101562 c 0
 370.588762167 674.970893752 437.42560704 677.40178601 473.541015625 653.357421875 c 0
EndSplineSet
Validated: 1048617
LCarets2: 1 0
Ligature2: "'liga' Standard Ligatures in Latin lookup 1-1" raar o_saau
EndChar

StartChar: sa
Encoding: 80 57376 60
Width: 824
VWidth: 1024
Flags: W
HStem: 177 63.2747<389.619 579.961>
VStem: 264 66<295.63 378 431.374 495> 674.349 64.6338<353.983 571.097>
AnchorPoint: "u_sait" 876 325 basechar 0
AnchorPoint: "pangnau" 958 435 basechar 0
AnchorPoint: "saau_maam" 320 46 basechar 0
AnchorPoint: "saau" 302 370 basechar 0
LayerCount: 3
Fore
SplineSet
264.8359375 773 m 1
 265 615 l 1
 212.270507812 609.612304688 199 608 54 590 c 1
 55 585.56640625 63.375 533.833984375 64 528 c 1
 138.796875 538.224609375 225.623046875 550.943359375 264 553 c 1
 264 540.854492188 264 378 264 378 c 2
 264 275.272748223 307.622070312 183.814453125 468 177 c 0
 618 170.625976562 706 257 737 339 c 0
 760.7256298 401.758117535 756.927752979 479.123958529 738.982421875 584.736328125 c 1
 674.348632812 569.440429688 l 1
 689.255029675 485.402070264 702.377859433 411.418994806 677.142548073 352.00000782 c 0
 645.763620887 278.115281795 553.344239399 236.058565086 467.000002523 240.274714403 c 0
 428.169354218 242.170797074 329 258.067804959 329 371 c 2
 329 385 l 1
 364 344 425.49748219 332.927492367 477 355 c 0
 582 400 593 502 546 562 c 0
 510.586202848 607.209102748 441 630 330 620 c 1
 330 773 l 1
 264.8359375 773 l 1
489 532 m 0
 535 480 499.116107617 416.439603673 451 408 c 0
 393.626412664 397.936626996 362 420 348 435 c 0
 336.892663613 446.900717558 330 467.784461763 330 495 c 2
 330 557 l 1
 379 563 457.579101562 567.51953125 489 532 c 0
EndSplineSet
Validated: 1048617
LCarets2: 1 0
Ligature2: "'liga' Standard Ligatures in Latin lookup 1-1" saas a_saau
EndChar

StartChar: si
Encoding: 81 57377 61
Width: 833
VWidth: 1024
Flags: W
HStem: 172.01 64.7129<224.65 407.337> 771 20G<454.999 520.141>
VStem: 455.242 64.8984<284.912 389 435.392 557 624 791>
AnchorPoint: "u_sait" 672 291 basechar 0
AnchorPoint: "pangnau" 904 350 basechar 0
AnchorPoint: "saau_maam" 380 46 basechar 0
AnchorPoint: "saau" 495 370 basechar 0
LayerCount: 3
Fore
SplineSet
455 791 m 1
 454.999023438 791 l 1
 520.140625 791 l 1
 520.140625 624 l 1
 612.140625 628 677.443359375 624.877929688 728.140625 575 c 0
 773.422851562 530.44921875 789.190429688 414.369140625 674.140625 362 c 0
 598.708984375 327.6640625 546.140625 360 519.140625 389 c 1
 519.09765625 368 l 2
 518.453125 308.986328125 516.958007812 172.009765625 300.140625 172.009765625 c 0
 189.260742188 172.009765625 119.314453125 239.3203125 89.931640625 310.419921875 c 0
 58.3330078125 386.880859375 51.7490234375 462.934570312 65.4462890625 537.98828125 c 0
 76.4697265625 598.384765625 110.6015625 654.100585938 148.56640625 702.348632812 c 0
 184.303710938 747.764648438 226.370117188 781.125976562 280.538085938 814.783203125 c 1
 280.538085938 814.783203125 300.134765625 774.8515625 314.1640625 749.745117188 c 1
 264.0234375 736.46875 225.510742188 697.443359375 193.796875 658.282226562 c 0
 163.375976562 620.716796875 141.0078125 574.590820312 131.977539062 527.103515625 c 0
 120.861328125 468.650390625 123.518554688 404.76171875 143.4921875 348.97265625 c 0
 170.88671875 272.453125 239.58984375 238.072265625 308.140625 236.72265625 c 0
 449.669921875 233.9375 451.784179688 314.295898438 453.43359375 377 c 0
 454.456054688 415.85546875 454.456054688 469.358398438 454.456054688 557 c 1
 416.079101562 554.944335938 328.938476562 542.224609375 254.141601562 532 c 1
 254.141601562 533 245.141601562 591 244.141601562 594 c 1
 383.141601562 611 402.512695312 613.611328125 455.2421875 619 c 1
 455 791 l 1
674.141601562 540 m 0
 636.504882812 572.447265625 550.709960938 564.197265625 520.141601562 561 c 1
 520.141601562 492 l 2
 520.141601562 460.506835938 533.141601562 444 547.141601562 430 c 0
 556.229492188 420.913085938 610.244140625 392.610351562 662.141601562 420 c 0
 698.141601562 439 725.090820312 496.077148438 674.141601562 540 c 0
EndSplineSet
Validated: 1048613
LCarets2: 1 0
Ligature2: "'liga' Standard Ligatures in Latin lookup 1-1" saas i_saau
EndChar

StartChar: su
Encoding: 82 57378 62
Width: 813
VWidth: 1024
Flags: W
HStem: 802 20G<400.582 465.58>
VStem: 400.582 64.998<300.025 427.672 489.019 590 659 822> 697.232 64<305.292 412.337>
AnchorPoint: "u_sait" 860 306 basechar 0
AnchorPoint: "pangnau" 973.232 417 basechar 0
AnchorPoint: "saau_maam" 435.232 83 basechar 0
AnchorPoint: "saau" 437.232 407 basechar 0
LayerCount: 3
Fore
SplineSet
400.58203125 822 m 1
 465.580078125 822 l 1
 465.580078125 659 l 1
 564.232421875 667 645.018554688 652.155273438 683.232421875 599 c 0
 726.54296875 538.756835938 705.298828125 497.76953125 699.232421875 474 c 1
 725.232421875 450 753.232421875 430 761.232421875 371 c 1
 763.232421875 297 726.431640625 244.649414062 671.232421875 218 c 0
 585.750976562 176.73046875 496.232421875 201 458.232421875 233 c 0
 419.150390625 265.911132812 400.232421875 298 400.232421875 385 c 2
 400.232421875 427.671875 l 1
 364.833007812 429.40625 333.541015625 413.962890625 311.322265625 391.767578125 c 0
 283.120117188 363.594726562 270.569335938 321.302734375 268.900390625 289.8359375 c 0
 267.231445312 258.369140625 278.208007812 218.748046875 291.080078125 194.5625 c 1
 230.271484375 174.607421875 l 1
 212 208 172 257 146 285 c 0
 116.409179688 316.8671875 75.259765625 368.3203125 36 402.65625 c 1
 85.58984375 459.5859375 l 1
 129.119140625 401.983398438 199.6484375 327.845703125 212.833984375 314.337890625 c 1
 218 355 231.86328125 396.696289062 264 431 c 0
 297.541992188 466.803710938 348 487 400.32421875 497.173828125 c 0
 400.594726562 497.2265625 400.32421875 488.724609375 400.32421875 489 c 2
 400.0859375 590 l 1
 363.668945312 587.904296875 273.896484375 575.392578125 199.232421875 565 c 1
 190.232421875 629 l 1
 298.232421875 642 351.232421875 650 400.58203125 654 c 1
 400.58203125 822 l 1
523.201171875 597.517578125 m 0
 505.924804688 597.465820312 486.743164062 596.25 465.580078125 594 c 1
 465.580078125 527.740234375 l 2
 465.580078125 502.329101562 476.775390625 483.623046875 489.232421875 469 c 0
 512.232421875 442 575.431640625 439.3125 608.232421875 455 c 0
 631.232421875 466 668.705078125 513.788085938 629.232421875 563 c 0
 609.702148438 587.348632812 575.029296875 597.673828125 523.201171875 597.517578125 c 0
465.58203125 435.09765625 m 1
 465.58203125 406.999023438 465.232421875 402 465.232421875 379 c 0
 464.727539062 336.049804688 480.479492188 300.322265625 502.982421875 283 c 0
 539.326171875 255.024414062 596.484375 257.333984375 638.232421875 278 c 0
 670.08984375 293.76953125 697.232421875 315 697.232421875 360 c 0
 697.232421875 397 681.231445312 412 655.322265625 424.90625 c 1
 650.587890625 421.505859375 l 2
 611.333007812 393.310546875 571.029296875 389.740234375 553.150390625 389.740234375 c 0
 497.986328125 389.740234375 470.24609375 428.01171875 465.58203125 435.09765625 c 1
EndSplineSet
Validated: 1048613
LCarets2: 1 0
Ligature2: "'liga' Standard Ligatures in Latin lookup 1-1" saas u_saau
EndChar

StartChar: so
Encoding: 83 57379 63
Width: 715
VWidth: 1024
Flags: W
HStem: 420 59.3477<165.582 322.706>
VStem: 356.885 65<268.178 391.151 456.825 506.987>
AnchorPoint: "u_sait" 578 311 basechar 0
AnchorPoint: "pangnau" 786.538 315 basechar 0
AnchorPoint: "saau_maam" 289.538 75 basechar 0
AnchorPoint: "saau" 393.538 399 basechar 0
LayerCount: 3
Fore
SplineSet
421.884765625 797 m 1
 356.884765625 797 l 1
 356.884765625 640.649414062 l 1
 308.538085938 636 298.538085938 635 146.87109375 615.196289062 c 1
 155.538085938 554 l 1
 230.458984375 564.428710938 317.538085938 575.581054688 356.388671875 579 c 1
 356.598632812 445.787109375 l 1
 338.280273438 459.033203125 289.421875 479.231445312 236.092773438 479.34765625 c 0
 179.287109375 479.470703125 132 455 99.197265625 418 c 0
 63.6767578125 377.934570312 59.0791015625 319.623046875 67.4658203125 276.748046875 c 0
 86 182 210 138 313 172 c 0
 372.881835938 191.766601562 410.796875 238.665039062 418.73828125 302 c 0
 420.838867188 318.751953125 421.538085938 382 421.538085938 409 c 1
 457.538085938 371 520.780273438 348.172851562 594.538085938 392 c 0
 663.538085938 433 691.538085938 521 633.487304688 592.278320312 c 0
 599.118164062 634.479492188 525.538085938 655 421.884765625 645.043945312 c 1
 421.884765625 797 l 1
583.538085938 549 m 0
 613.248046875 515.791992188 607.892578125 467.6875 564.603515625 441.229492188 c 0
 529.453125 419.74609375 472.831054688 429.76171875 446.055664062 454.365234375 c 0
 431.841796875 467.424804688 422.001953125 481.1953125 421.884765625 506.987304688 c 2
 421.538085938 583 l 1
 460.19140625 586.240234375 543.951171875 593.247070312 583.538085938 549 c 0
126 297 m 0
 121.171875 321.484375 126.375976562 354.133789062 146 380 c 0
 166.801757812 407.418945312 203.25 420.942382812 239 420 c 0
 285.262695312 418.780273438 336.4921875 394.064453125 356.760742188 377.958984375 c 1
 356.760742188 363.177734375 355.602539062 314.767578125 350.458007812 298 c 0
 340.341796875 265.029296875 319.307617188 240.94921875 283 229.149414062 c 0
 221 209 140 226 126 297 c 0
EndSplineSet
Validated: 1048617
LCarets2: 1 0
Ligature2: "'liga' Standard Ligatures in Latin lookup 1-1" saas o_saau
EndChar

StartChar: ya
Encoding: 84 57380 64
Width: 1000
VWidth: 1024
Flags: W
HStem: 155.501 65.1309<637.463 773.644> 557.604 67.6445<90.166 267.52>
VStem: 551.363 67.7607<318.655 376.993 450.438 463.019 495 589.759> 869.652 65.0039<313.257 519.462>
AnchorPoint: "u_sait" 1112 458 basechar 0
AnchorPoint: "sangau" 553 770 basechar 0
AnchorPoint: "pangnau" 1139 323.933 basechar 0
AnchorPoint: "saau_maam" 437 55.9326 basechar 0
AnchorPoint: "saau" 587 379.933 basechar 0
LayerCount: 3
Fore
SplineSet
441.505859375 680.665039062 m 5
 329.372070312 649.83203125 206.845703125 626.170898438 90 625.249023438 c 5
 90.166015625 557.604492188 l 5
 169.827148438 562.688476562 248.750976562 567.961914062 320.953125 593.659179688 c 5
 296.4140625 538.331054688 311.397460938 477.111328125 323.005859375 453.356445312 c 4
 339.994140625 418.592773438 369.400390625 387.865234375 419.73046875 376.120117188 c 4
 446.83984375 369.793945312 490.833007812 369.177734375 553.10546875 397.204101562 c 5
 552.96875 391.5078125 552.9140625 387.135742188 552.9140625 376.993164062 c 5
 552.9140625 305.44140625 555.68359375 259.287109375 560.94140625 243.418945312 c 4
 576.022460938 197.901367188 623.44140625 155.500976562 696.07421875 155.500976562 c 4
 766.127929688 155.500976562 934.65625 208.456054688 934.65625 406.139648438 c 4
 934.65625 452.1953125 924.40625 548.020507812 851.580078125 647.512695312 c 5
 799.76953125 608.243164062 l 5
 843.725585938 547.834960938 869.65234375 475.267578125 869.65234375 406.379882812 c 4
 869.65234375 366.278320312 860.411132812 326.877929688 839.681640625 296.682617188 c 4
 806.494140625 248.33984375 741.052734375 220.631835938 695.478515625 220.631835938 c 4
 681.393554688 220.631835938 659.063476562 223.372070312 640.951171875 238.120117188 c 4
 621.368164062 254.064453125 620.068359375 305.55859375 619.146484375 318.655273438 c 6
 619.126953125 318.920898438 l 5
 619.124023438 495 l 4
 619.124023438 600.55859375 588.431640625 623.771484375 556.5234375 673.063476562 c 5
 502.349609375 628.379882812 l 5
 523.375 602.583984375 551.201171875 570.631835938 551.201171875 496.756835938 c 4
 551.201171875 473.716796875 551.591796875 481.94140625 551.36328125 463.018554688 c 5
 540.00390625 454.967773438 498.55078125 428.845703125 448.9921875 437.043945312 c 4
 427.930664062 440.528320312 376.411132812 458.619140625 373.771484375 517.309570312 c 4
 373.05859375 533.162109375 374.748046875 549.86328125 381.30078125 564.315429688 c 4
 394.10546875 592.560546875 427.8203125 607.489257812 454.166015625 617.227539062 c 5
 441.505859375 680.665039062 l 5
EndSplineSet
Validated: 1048617
LCarets2: 1 0
Ligature2: "'liga' Standard Ligatures in Latin lookup 1-1" yaai a_saau
EndChar

StartChar: yi
Encoding: 85 57381 65
Width: 767
VWidth: 1024
Flags: W
HStem: 425.312 65.8955<588.514 637> 585.794 67.6445<170.977 348.331> 601.849 20G<365.665 389.494>
VStem: 66 72.4785<399.62 480.058> 637 64<297.129 425.312 479.299 612.801>
AnchorPoint: "u_sait" 804 379 basechar 0
AnchorPoint: "pangnau" 922.479 306 basechar 0
AnchorPoint: "saau_maam" 397.52 46 basechar 0
AnchorPoint: "saau" 671.479 399 basechar 0
LayerCount: 3
Fore
SplineSet
637.333984375 701.251953125 m 5xb8
 583.16015625 656.568359375 l 5
 628.31665405 601.170851925 638.14715309 586.200131342 637 491.20703125 c 5
 625.647460938 483.161132812 579.363627368 457.037248858 529.803710938 465.233398438 c 4
 508.575195312 468.744140625 457.216796875 486.915039062 454.58203125 545.498046875 c 4
 453.869140625 561.350585938 455.559570312 578.051757812 462.112304688 592.50390625 c 4
 474.921875 620.760742188 508.670898438 635.694335938 534.977539062 645.416015625 c 5
 522.318359375 708.854492188 l 5
 410.184570312 678.021484375 287.65625 654.360351562 170.810546875 653.438476562 c 5
 170.9765625 585.793945312 l 5xd8
 250.637695312 590.877929688 329.563476562 596.151367188 401.765625 621.848632812 c 5
 377.22265625 566.52734375 392.208007812 505.303710938 403.818359375 481.545898438 c 4
 421.889648438 444.565429688 463.709909688 397.91948145 555.274414062 406.671875 c 4
 568.995117188 407.983398438 599.421875 408.217773438 637 425.311523438 c 5
 637 334 625.01953125 267.793945312 541.935546875 232.938476562 c 4
 513.478515625 221 368.184570312 177.611328125 262.478515625 246 c 4
 173.4609375 303.591796875 158.478515625 390 138.478515625 499 c 5
 66 478.033203125 l 5
 102.478515625 313 138.478515625 226 247.478515625 171 c 4
 343.421875 122.587890625 500.311180446 131.513437554 597.478515625 184.787109375 c 4
 669 224 698 281 701 375 c 5
 701 523 l 5
 701 596 673 662 637.333984375 701.251953125 c 5xb8
EndSplineSet
Validated: 1048617
LCarets2: 1 0
Ligature2: "'liga' Standard Ligatures in Latin lookup 1-1" yaai i_saau
EndChar

StartChar: yu
Encoding: 86 57382 66
Width: 935
VWidth: 1024
Flags: W
HStem: 160.951 65.0488<632.505 770.564> 417.955 65.0039<621.427 776.857> 593.123 67.6445<70.166 247.52> 696.184 20G<365.439 425.497 512.277 552.479>
VStem: 531 68.127<260.275 345.465 489.486 625.278> 811.676 65.0742<265.878 386.187>
AnchorPoint: "u_sait" 986 350 basechar 0
AnchorPoint: "pangnau" 1081 348.275 basechar 0
AnchorPoint: "saau_maam" 419 70.2754 basechar 0
AnchorPoint: "saau" 569 394.275 basechar 0
LayerCount: 3
Fore
SplineSet
421.505859375 716.18359375 m 5
 434.166015625 652.74609375 l 5
 423.865234375 648.938476562 398.833984375 639.1328125 384.259765625 627.509765625 c 4
 369.1953125 615.497070312 351.774414062 597.227539062 353.771484375 552.828125 c 4
 355.309570312 518.618164062 373.750976562 500.000976562 384.4140625 492.033203125 c 4
 449.837890625 443.146484375 523.705078125 496.829101562 531 502 c 5
 531 532.275390625 l 6
 531 606.150390625 503.375 638.102539062 482.349609375 663.8984375 c 5
 536.525390625 708.58203125 l 5
 568.43359375 659.290039062 599.126953125 636.076171875 599.126953125 530.517578125 c 6
 599.126953125 458.03515625 l 5
 622 467.275390625 657 482.275390625 708.287109375 482.958984375 c 4
 817.822265625 484.418945312 876.75 407.91796875 876.75 328.3515625 c 4
 876.75 250.264648438 812.998046875 160.951171875 698.3984375 160.951171875 c 4
 639.674804688 160.951171875 602.826171875 184.086914062 577 212.109375 c 4
 543 249 533.255859375 292 533.255859375 343.8046875 c 4
 533.255859375 344.358398438 533.254882812 344.911132812 533.25390625 345.46484375 c 5
 509.163085938 327.162109375 467.551757812 292.489257812 440.490234375 267.673828125 c 4
 395.787109375 226.680664062 341.567382812 170.974609375 313.271484375 137.580078125 c 5
 290.884765625 156.353515625 238.7578125 203.232421875 205.18359375 238.556640625 c 4
 175.499023438 269.788085938 133.837890625 319.764648438 112.970703125 339.0078125 c 5
 167.783203125 389.236328125 l 5
 181.514648438 365.928710938 209.12890625 330.702148438 236.978515625 302.23046875 c 4
 257.134765625 281.624023438 294.584960938 242.453125 310.859375 232.546875 c 5
 336.390625 262.157226562 378.626953125 301.94921875 415.927734375 332.806640625 c 4
 450.201171875 361.16015625 501.869140625 400.403320312 532 418.693359375 c 5
 532 439.275390625 l 5
 510 419.275390625 461.522460938 410.14453125 454 409.224609375 c 4
 416.081054688 404.58984375 384.967773438 412.172851562 360 426.927734375 c 4
 325.770507812 447.155273438 308.4609375 477.7109375 303.005859375 488.875 c 4
 291.397460938 512.629882812 276.4140625 573.849609375 300.953125 629.177734375 c 5
 228.750976562 603.48046875 149.827148438 598.20703125 70.166015625 593.123046875 c 5
 70 660.767578125 l 5
 186.845703125 661.689453125 309.372070312 685.350585938 421.505859375 716.18359375 c 5
708.150390625 417.955078125 m 6
 655.284179688 417.955078125 618.927734375 396.126953125 599.958984375 383.275390625 c 5
 599.958984375 340.6875 l 6
 599.958984375 305.830078125 606.497070312 274.920898438 625.619140625 254 c 4
 641.60546875 236.509765625 666.390625 226 703.501953125 226 c 4
 769 226 811.67578125 273.590820312 811.67578125 329.4609375 c 4
 811.67578125 366.8828125 786.305664062 417.955078125 708.15234375 417.955078125 c 6
 708.150390625 417.955078125 l 6
EndSplineSet
Validated: 1048609
LCarets2: 1 0
Ligature2: "'liga' Standard Ligatures in Latin lookup 1-1" yaai u_saau
EndChar

StartChar: yo
Encoding: 87 57383 67
Width: 860
VWidth: 1024
Flags: W
HStem: 573.377 67.6445<60.166 237.52>
VStem: 523 66.9199<258.816 354 510.773 601.966>
AnchorPoint: "u_sait" 930 446 basechar 0
AnchorPoint: "pangnau" 998 333 basechar 0
AnchorPoint: "saau_maam" 390 27 basechar 0
AnchorPoint: "saau" 560.8 351 basechar 0
LayerCount: 3
Fore
SplineSet
411.505859375 696.4375 m 5
 299.372070312 665.604492188 176.845703125 641.943359375 60 641.021484375 c 5
 60.166015625 573.376953125 l 5
 139.827148438 578.4609375 218.750976562 583.734375 290.953125 609.431640625 c 5
 273.254882812 569.526367188 266.469726562 493.288085938 313.85546875 437.408203125 c 5
 312 436 250.64453125 392.51953125 246.296875 309.2734375 c 4
 242 227 298.885742188 182 340 168 c 4
 415.352539062 142.341796875 501.530273438 162.935546875 549.090820312 209 c 4
 578 237 589.919921875 277 589.919921875 335 c 6
 589.919921875 415.697265625 l 5
 641 418 725 390 798 305 c 5
 846 371 l 5
 770 440 701 472 589.919921875 481.068359375 c 4
 589.653789282 481.090085917 589.391601562 480.958984375 589.12890625 480.91015625 c 5
 589.12890625 510.7734375 l 6
 589.12890625 616.33203125 558.435546875 639.543945312 526.52734375 688.8359375 c 5
 472.353515625 644.15234375 l 5
 493.37890625 618.356445312 521.205078125 586.404296875 521.205078125 512.529296875 c 4
 521.205078125 489.489257812 521.595703125 497.713867188 521.3671875 478.791015625 c 5
 446.77734375 425.922851562 347.375 453.03125 343.775390625 533.08203125 c 4
 341.778320312 577.481445312 359.19921875 595.750976562 374.263671875 607.763671875 c 4
 388.836914062 619.38671875 413.869140625 629.192382812 424.169921875 633 c 5
 411.505859375 696.4375 l 5
  Spiro
    411.506 696.438 v
    296.62 668.596 o
    178.025 648.932 o
    60 641.021 v
    60.166 573.377 v
    139.281 579.266 o
    216.808 589.807 o
    290.953 609.432 v
    278.5 559.573 o
    282.941 497.911 o
    313.855 437.408 v
    296.51 422.091 o
    265.303 379.122 o
    246.297 309.273 o
    259.516 239.25 o
    296.522 192.53 o
    340 168 o
    417.053 156.987 o
    490.557 172.222 o
    549.091 209 o
    572.507 241.186 o
    585.767 282.824 o
    589.92 335 [
    589.92 415.697 v
    650.279 406.931 o
    723.035 371.939 o
    798 305 v
    846 371 v
    770.592 428.142 o
    688.703 463.861 o
    589.92 481.068 o
    589.655 481.048 o
    589.391 480.978 o
    589.129 480.91 v
    589.129 510.773 ]
    580.007 592.836 o
    556.911 644.265 o
    526.527 688.836 v
    472.354 644.152 v
    494.342 615.014 o
    513.227 573.705 o
    521.205 512.529 o
    521.298 497.756 o
    521.427 490.821 o
    521.367 478.791 v
    443.051 451.583 o
    374.788 471.722 o
    343.775 533.082 o
    347.436 569.478 o
    359.234 592.948 o
    374.264 607.764 o
    391.372 618.616 o
    409.909 627.355 o
    424.17 633 v
    0 0 z
  EndSpiro
523.10546875 412.9765625 m 5
 522.96875 407.280273438 523 364.142578125 523 354 c 4
 523 289.661132812 521.248046875 261.103515625 470 237.059570312 c 4
 426.536132812 216.666992188 369.743164062 217.125 337 246.237304688 c 4
 321.81640625 259.736328125 311.322265625 279.921875 311.322265625 309.330078125 c 4
 311.322265625 336.08984375 325.73828125 379.481445312 371.966796875 397.068359375 c 5
 408.890625 384.163085938 455.891601562 382.7265625 523.10546875 412.9765625 c 5
  Spiro
    523.105 412.977 v
    523.017 397.431 o
    522.997 372.508 o
    523 354 o
    520.654 300.474 o
    506.494 263.736 o
    470 237.06 o
    423.526 223.912 o
    376.331 226.398 o
    337 246.237 o
    323.606 262.041 o
    314.599 282.926 o
    311.322 309.33 o
    316.76 340.029 o
    335.725 372.482 o
    371.967 397.068 v
    412.58 388.738 o
    462.309 392.551 o
    0 0 z
  EndSpiro
EndSplineSet
Validated: 1048617
LCarets2: 1 0
Ligature2: "'liga' Standard Ligatures in Latin lookup 1-1" yaai o_saau
EndChar

StartChar: wa
Encoding: 88 57384 68
Width: 949
VWidth: 1024
Flags: W
VStem: 313.551 65.1191<436.676 591.952> 515 67.5352<279.509 377 470 574.014> 822 68<319.377 551.946>
AnchorPoint: "u_sait" 1006 380 basechar 0
AnchorPoint: "pangnau" 1078.98 324 basechar 0
AnchorPoint: "saau_maam" 461.978 56 basechar 0
AnchorPoint: "saau" 553.978 380 basechar 0
LayerCount: 3
Fore
SplineSet
675 772 m 5
 640 699 l 5
 666.20172281 689.392701636 707.329313006 669.835183213 745 634 c 4
 784.483398438 596.440429688 817.143554688 542.60546875 822 444 c 4
 825.051757812 382.036132812 813.110950638 321.678127926 778 288 c 4
 732.580078125 244.43359375 654.812263105 239.329283321 616.999998928 265.798960677 c 4
 581 291 582.53515625 342.447698538 582.53515625 376 c 4
 582.53515625 413 582.977539062 444 582.977539062 492 c 5
 582.977539062 560 563.789071375 599.467780791 542.341796875 625.35546875 c 4
 524.629374774 646.735045737 496.877900035 662.345266507 465.000002197 669.714438695 c 4
 423.914284614 679.212170599 375.974061044 675.020487851 333.837890625 651.84765625 c 5
 253.921875 667.154296875 163.033451059 659.458731967 116.903320312 614.146484375 c 4
 63.5859375 561.774414062 54.8017578125 482.837890625 82 422 c 4
 120 337 246.091588303 327.153808128 302 360 c 4
 382 407 378.7421875 485.174804688 378.669921875 601.796875 c 5
 405.620235881 613.567157165 436.337675239 617.023674666 461.999998691 604.2994946 c 4
 493.467407539 588.696972205 515.453125 548.765625 515.453125 470 c 4
 515.453125 433 515.416992188 401.587890625 515 377 c 5
 515 320.305664062 518.328642483 256.194830729 569.752047213 214.000001258 c 4
 638 158 779.836454747 171.231529201 842 256 c 4
 875.631410191 301.861013896 891.133663494 364.873044689 890 430 c 4
 889.33984375 467.924804688 887.748692962 558.361107849 832 642 c 4
 801.091796875 688.37109375 748.307617188 738.959960938 675 772 c 5
313.55078125 589.311523438 m 5
 313.55078125 540 319 444 271.431640625 417.350585938 c 4
 224.986404714 391.330383869 153 404 135.919921875 460.004882812 c 4
 122.979492188 502.435546875 133.585723138 558.774901961 191 584 c 4
 215.91015625 594.944335938 266.357421875 596.913085938 313.55078125 589.311523438 c 5
EndSplineSet
Validated: 1048617
LCarets2: 1 0
Ligature2: "'liga' Standard Ligatures in Latin lookup 1-1" waau a_saau
EndChar

StartChar: wi
Encoding: 89 57385 69
Width: 816
VWidth: 1024
Flags: W
VStem: 122.145 70<354.979 580> 498 64.5137<489.251 646.502> 682.145 65<333.019 509 530 624.473>
AnchorPoint: "u_sait" 864 410 basechar 0
AnchorPoint: "pangnau" 937.145 334 basechar 0
AnchorPoint: "saau_maam" 423.145 68 basechar 0
AnchorPoint: "saau" 720.145 390 basechar 0
LayerCount: 3
Fore
SplineSet
511.1796875 702.994140625 m 5
 468 709 404.767578125 715.3359375 349 690 c 4
 261.717773438 650.346679688 241.000194693 557.000072009 268 484 c 4
 299.006835938 400.166015625 411.948242188 371.931640625 490 418 c 4
 518.946289062 435.084960938 540.522813288 462.934463538 550.8359375 496.967773438 c 4
 560.8359375 529.967773438 566.817382812 559.817382812 562.513671875 657.306640625 c 5
 598.548828125 663.795898438 629 662 659.99999911 625.824536976 c 4
 675.199970615 608.086923334 682.14453125 577.642895614 682.14453125 534 c 6
 682.14453125 484 l 5
 682.14453125 414 689.14453125 310 585.614257812 254.380859375 c 4
 517.139648438 217.594726562 392.14453125 229 356.14453125 237.588867188 c 4
 270.02734375 258.134765625 236.055664062 311.809570312 218.14453125 345 c 4
 188.040039062 400.787109375 186.14453125 491 192.14453125 580 c 5
 122.14453125 581 l 5
 115.14453125 449 125.317382812 386.25 152.083007812 326.498046875 c 4
 179.278320312 265.786132812 229.9296875 205.7890625 312.14453125 179 c 4
 401.14453125 150 560.212890625 157.7109375 640.14453125 209 c 4
 760.14453125 286 747.14453125 411 747.14453125 509 c 5
 747.14453125 530 l 5
 747.14453125 597.533867741 730.466796875 651.026367188 691 682 c 4
 649 714.9609375 594 725 511.1796875 702.994140625 c 5
498 642 m 5
 502.018554688 543.545898438 501.632969877 500.335670899 456.96484375 473.967773438 c 4
 411.125 446.908203125 345.327565203 463.14469086 327 511 c 4
 309 558 322.863184131 609.187724877 378 633 c 4
 388.72265625 637.630859375 440.3671875 658.365234375 498 642 c 5
EndSplineSet
Validated: 1048617
LCarets2: 1 0
Ligature2: "'liga' Standard Ligatures in Latin lookup 1-1" waau i_saau
EndChar

StartChar: wu
Encoding: 90 57386 70
Width: 867
VWidth: 1024
Flags: W
VStem: 297.062 59.0098<504.188 645.649> 481.971 63.5918<275.719 395.154 502.822 618.171>
AnchorPoint: "u_sait" 936 404 basechar 0
AnchorPoint: "pangnau" 998.972 326 basechar 0
AnchorPoint: "saau_maam" 380.97 46 basechar 0
AnchorPoint: "saau" 518.97 370 basechar 0
LayerCount: 3
Fore
SplineSet
399.8828125 716.388671875 m 4
 442.892578125 714.671875 476.5625 697.875 496.5625 676 c 4
 534.626953125 634.366210938 545.970703125 573.467773438 545.970703125 502.822265625 c 5
 599.559570312 525.998046875 668.530273438 526.817382812 720.619140625 508.072265625 c 4
 831.970703125 468 817.427734375 347.893554688 816.599609375 337 c 4
 809.671875 245.865234375 734.5625 181 635.5625 184 c 4
 608.291015625 184.826171875 577.517578125 191.317382812 549.5625 208 c 4
 487.5625 245 481.970703125 313 481.970703125 364 c 6
 481.970703125 393.287109375 l 5
 481.970703125 395.154296875 l 5
 448.821289062 370.634765625 396.505859375 326.0234375 342.412109375 264.931640625 c 4
 308.286132812 226.391601562 266.530273438 171.8984375 246.298828125 144.052734375 c 5
 223.912109375 162.826171875 171.78515625 209.70703125 138.2109375 245.03125 c 4
 108.526367188 276.262695312 66.8671875 326.239257812 46 345.482421875 c 5
 100.810546875 395.708984375 l 5
 114.541992188 372.401367188 142.15625 337.176757812 170.005859375 308.705078125 c 4
 190.162109375 288.098632812 222.110351562 256.72265625 238.384765625 246.81640625 c 5
 265.125 277.209960938 300.051757812 316.026367188 332.8515625 348.736328125 c 4
 381.938476562 397.690429688 429.262695312 440.0546875 481.970703125 476.373046875 c 5
 481.970703125 498 l 6
 481.970703125 573.245117188 468.845703125 612.833984375 449.669921875 633 c 4
 425.521484375 658.395507812 384.5625 657 356.072265625 649.1953125 c 5
 359.0625 566 355.017578125 526.271484375 342.6328125 498.4296875 c 4
 328.178710938 465.938476562 302.505859375 440.126953125 271.5625 427 c 4
 189.0625 392 85.0625 425 62.01171875 511.3671875 c 4
 43.013671875 582.549804688 67.462890625 665.606445312 159.0625 697 c 4
 221.611328125 718.4375 262.0625 710 313.31640625 701.03125 c 5
 344.908203125 713.01953125 374.077148438 717.418945312 399.8828125 716.388671875 c 4
233.529296875 649.734375 m 4
 215.3515625 649.395507812 200.017578125 646.145507812 187.0625 642 c 4
 137.0625 626 109.631835938 582.857421875 118.0625 540 c 4
 130.0625 479 195.0625 460 244.0625 481 c 4
 291.731445312 501.4296875 301.0625 544 297.0625 640 c 5
 272.728515625 647.5 251.70703125 650.073242188 233.529296875 649.734375 c 4
657.970703125 451 m 4
 627.0078125 452.17578125 577.065429688 448.544921875 545.5625 428 c 5
 545.552734375 397.951171875 545.5625 384.408203125 545.5625 371 c 4
 545.5625 315.97265625 549.501953125 286.470703125 578.759765625 265 c 4
 600.5625 249 626.907226562 247.967773438 633.970703125 247.357421875 c 4
 693.791992188 242.186523438 746.177734375 282.8515625 751.453125 341 c 4
 756.11328125 392.374023438 736.970703125 448 657.970703125 451 c 4
EndSplineSet
Validated: 1048609
LCarets2: 1 0
Ligature2: "'liga' Standard Ligatures in Latin lookup 1-1" waau u_saau
EndChar

StartChar: wo
Encoding: 91 57387 71
Width: 866
VWidth: 1024
Flags: W
HStem: 382.688 64<437.133 592.225>
VStem: 333.225 65.1289<472.999 611.703> 592.225 64<245.559 370 503.021 588.169>
AnchorPoint: "u_sait" 932 372 basechar 0
AnchorPoint: "pangnau" 1023.22 368.688 basechar 0
AnchorPoint: "saau_maam" 409.225 26.6882 basechar 0
AnchorPoint: "saau" 629.225 350.688 basechar 0
LayerCount: 3
Fore
SplineSet
353.291992188 671.069335938 m 5
 294 686.021484375 219.499023438 699.412109375 141 649.021484375 c 4
 77.3046875 608.133789062 69.171875 508.791015625 103 454.021484375 c 4
 145 386.021484375 203.42578125 372.350585938 265.909179688 381.763671875 c 4
 334 392.021484375 386 439.021484375 396.20703125 510.01953125 c 4
 401.56640625 547.296875 398.055664062 585.23046875 398.353515625 622.809570312 c 5
 436.643554688 641.435546875 491.4296875 645.891601562 533 623.364257812 c 4
 567.043945312 604.915039062 592.224609375 568.369140625 592.224609375 506.688476562 c 5
 592.224609375 475.793945312 592.162109375 464.114257812 592.224609375 446.688476562 c 5
 547 447.688476562 462 453.6875 387 405.688476562 c 4
 347.637695312 380.497070312 323 334.021484375 319 287.021484375 c 4
 314.4765625 233.875 342.844726562 189.716796875 393 163.423828125 c 4
 444 136.688476562 527 128.688476562 596.081054688 178.688476562 c 4
 653.130859375 219.979492188 656.942382812 292.202148438 656.942382812 370 c 5
 687.0546875 358.716796875 732.728515625 327.311523438 768.271484375 277.126953125 c 5
 821.30859375 314.688476562 l 5
 793.224609375 351 744.684570312 406 656.224609375 438 c 5
 656.16796875 470.716796875 656.224609375 454.354492188 656.224609375 503.021484375 c 5
 656.224609375 594.521484375 621.779296875 643.891601562 573 671.461914062 c 4
 509.278320312 707.479492188 421.096679688 706.538085938 353.291992188 671.069335938 c 5
333.224609375 604.885742188 m 5
 335 576.021484375 339.709960938 526.94140625 323.930664062 491.954101562 c 4
 298.779296875 436.184570312 215.612304688 421.283203125 172 469.021484375 c 4
 135 509.521484375 145.8046875 570.133789062 180.3046875 597.133789062 c 4
 219.8984375 628.120117188 304 618.021484375 333.224609375 604.885742188 c 5
592.224609375 382.688476562 m 5
 592.224609375 377.688476562 592.224609375 346.688476562 592.224609375 326.688476562 c 4
 592.224609375 294.791015625 586.483398438 255.827148438 560.916015625 232.688476562 c 4
 517.36328125 193.2734375 451 206.688476562 426 218.018554688 c 4
 395.340820312 231.9140625 382 257.688476562 382.407226562 283.688476562 c 4
 382.735351562 304.689453125 391 340.688476562 446 366.721679688 c 4
 504.282226562 394.309570312 577.8828125 385.7890625 592.224609375 382.688476562 c 5
EndSplineSet
Validated: 1048617
LCarets2: 1 0
Ligature2: "'liga' Standard Ligatures in Latin lookup 1-1" waau o_saau
EndChar

StartChar: ma
Encoding: 92 57388 72
Width: 820
VWidth: 1024
Flags: W
HStem: 157 65.001<389.885 584.21>
VStem: 278 65.7451<269.098 358.914 420.757 422.324> 683 61<318.187 531.914>
AnchorPoint: "u_sait" 886 380 basechar 0
AnchorPoint: "pangnau" 973 319.914 basechar 0
AnchorPoint: "saau_maam" 351 18.9141 basechar 0
AnchorPoint: "saau" 315 342.914 basechar 0
LayerCount: 3
Fore
SplineSet
87.6689453125 552.997070312 m 1
 50 500.012695312 l 1
 75.1005859375 482.774414062 151.463867188 429.912109375 278 420.756835938 c 1
 278 333 l 17
 278 185 404 157 475.879882812 157 c 1
 505 157.9140625 664 154.9140625 729.352539062 311.721679688 c 0
 748.150390625 356.82421875 756 419.9140625 744 537.9140625 c 1
 683 531.9140625 l 1
 685.401367188 497.5 700.366210938 386.466796875 661.30078125 317.34375 c 0
 656.530273438 308.90234375 617 220.9140625 476.244140625 222.000976562 c 1
 383 222.000976562 343.745117188 264.9140625 343.745117188 358.9140625 c 1
 343.737304688 422.259765625 l 1
 368.133789062 425.26953125 417.728515625 431.387695312 465.524414062 459.700195312 c 0
 589.359375 533.055664062 573.225585938 678.446289062 523.607421875 760.521484375 c 1
 468.978515625 725.220703125 l 1
 496.47265625 678.565429688 524.756835938 570.3359375 432.379882812 515.615234375 c 0
 361.962890625 473.903320312 216.409179688 465.08984375 87.6689453125 552.997070312 c 1
EndSplineSet
Validated: 1048617
LCarets2: 1 0
Ligature2: "'liga' Standard Ligatures in Latin lookup 1-1" maam a_saau
EndChar

StartChar: mi
Encoding: 93 57389 73
Width: 858
VWidth: 1024
Flags: W
HStem: 170.245 65.7549<260.116 482.473> 442.121 64.4189<526.448 531.605 598.4 669.221>
VStem: 97.7939 63.4746<325.587 543.786> 533 65.4004<283.884 370> 749.965 65.002<574.481 745.794>
AnchorPoint: "u_sait" 750 400 basechar 0
AnchorPoint: "pangnau" 928.794 385 basechar 0
AnchorPoint: "saau_maam" 374.794 46 basechar 0
AnchorPoint: "saau" 569.794 370 basechar 0
LayerCount: 3
Fore
SplineSet
366.793945312 236 m 0
 315.76171875 236 216.642578125 251.911132812 178.514648438 333 c 0
 165.314453125 361.073242188 143.444335938 428.423828125 161.268554688 543.786132812 c 1
 97.7939453125 554 l 1
 87.8984375 490.576171875 79.1689453125 377.499023438 126.629882812 292 c 0
 185.17578125 186.532226562 296.369140625 170.245117188 368.793945312 170.245117188 c 0
 568.793945312 170.245117188 598.400390625 288 598.400390625 348 c 9
 598.400390625 443.709960938 l 1
 622.81640625 446.72265625 672.397460938 452.840820312 720.1875 481.150390625 c 0
 768.758789062 509.922851562 814.966796875 560.823242188 814.966796875 650.359375 c 0
 814.966796875 696.6015625 802.204101562 742.3828125 778.270507812 781.971679688 c 1
 723.641601562 746.670898438 l 1
 740.708007812 717.7109375 749.96484375 683.801757812 749.96484375 650.186523438 c 0
 749.96484375 622.176757812 745.211914062 571.522460938 687.04296875 537.065429688 c 0
 669.389648438 526.608398438 626.416992188 506.540039062 556.5078125 506.540039062 c 0
 535.779296875 506.540039062 441.240234375 506.909179688 342.331054688 574.447265625 c 1
 304.662109375 521.462890625 l 1
 333.396484375 501.729492188 413.978043469 453.592050782 526.448242188 442.624023438 c 2
 531.60546875 442.12109375 l 1
 533 370 l 17
 533 276 494.793945312 236 366.793945312 236 c 0
EndSplineSet
Validated: 1048617
LCarets2: 1 0
Ligature2: "'liga' Standard Ligatures in Latin lookup 1-1" maam i_saau
EndChar

StartChar: mu
Encoding: 94 57390 74
Width: 791
VWidth: 1024
Flags: W
HStem: 179.873 326.555<379.171 612.275> 761.859 20G<580.348 623.266>
VStem: 364.689 66.7383<352.171 441.535> 582.992 65.002<574.623 745.682>
AnchorPoint: "u_sait" 826 336 basechar 0
AnchorPoint: "pangnau" 971.689 383 basechar 0
AnchorPoint: "saau_maam" 389.689 46 basechar 0
AnchorPoint: "saau" 401.689 370 basechar 0
LayerCount: 3
Fore
SplineSet
611.298828125 781.859375 m 1
 635.232421875 742.270507812 647.994140625 696.490234375 647.994140625 650.248046875 c 0
 647.994140625 581.991210938 622.862304688 547.911132812 606.646484375 525.921875 c 1
 722.723632812 483.870117188 735.1875 391.297851562 735.1875 353.474609375 c 0
 735.1875 262.049804688 664.471679688 179.873046875 560.078125 179.873046875 c 0
 438.4375 179.873046875 395.919921875 246.969726562 377.119140625 298.8359375 c 1
 361.5 288.892578125 340.106445312 274.08984375 314.484375 249.345703125 c 0
 288.250976562 224.01171875 240.594726562 176.162109375 212.298828125 142.767578125 c 1
 189.912109375 161.541015625 137.78515625 208.419921875 104.2109375 243.744140625 c 0
 74.5263671875 274.975585938 32.8671875 324.954101562 12 344.197265625 c 1
 66.810546875 394.423828125 l 1
 80.5419921875 371.116210938 108.15625 335.889648438 136.005859375 307.41796875 c 0
 156.162109375 286.811523438 193.612304688 247.640625 209.88671875 237.734375 c 1
 235.41796875 267.344726562 264.111328125 293.01171875 289.921875 314.478515625 c 0
 309.154296875 330.474609375 340.774414062 351.739257812 364.787109375 364.90234375 c 0
 364.70703125 368.841796875 364.689453125 372.848632812 364.689453125 377 c 2
 364.689453125 441.53515625 l 1
 357.73828125 442.037109375 l 2
 245.009765625 450.197265625 166.423828125 501.6171875 137.689453125 521.349609375 c 1
 175.359375 574.333984375 l 1
 274.26953125 506.795898438 368.806640625 506.427734375 389.53515625 506.427734375 c 0
 459.444335938 506.427734375 502.416992188 526.49609375 520.0703125 536.953125 c 0
 578.23828125 571.41015625 582.9921875 622.064453125 582.9921875 650.07421875 c 0
 582.9921875 683.689453125 573.735351562 717.598632812 556.669921875 746.55859375 c 1
 611.298828125 781.859375 l 1
541.69140625 474.75390625 m 1
 511.515625 462.684570312 477.4765625 449.278320312 431.427734375 443.59765625 c 1
 431.427734375 394 l 2
 431.427734375 353 431.427734375 305.484375 485.087890625 266.623046875 c 0
 525.455078125 237.393554688 589.536132812 241.166992188 624.66796875 265.93359375 c 0
 665.260742188 294.551757812 672.802734375 333.053710938 670.3984375 364 c 0
 665.317382812 429.427734375 617.689453125 461.000976562 541.69140625 474.75390625 c 1
EndSplineSet
Validated: 1048609
LCarets2: 1 0
Ligature2: "'liga' Standard Ligatures in Latin lookup 1-1" maam u_saau
EndChar

StartChar: mo
Encoding: 95 57391 75
Width: 809
VWidth: 1024
Flags: W
HStem: 647.211 20G<689.91 689.91> 667.209 21G<689.91 689.91>
VStem: 408.343 66.2266<278.594 403> 624.907 65.0029<593.227 755.249> 678.569 71<310.225 354.815>
AnchorPoint: "u_sait" 860 424 basechar 0
AnchorPoint: "pangnau" 958.569 365 basechar 0
AnchorPoint: "saau_maam" 362.569 46 basechar 0
AnchorPoint: "saau" 446.569 369 basechar 0
LayerCount: 3
Fore
SplineSet
689.91015625 667.208984375 m 1x70
 689.91015625 713.451171875 677.147460938 759.232421875 653.213867188 798.821289062 c 1
 598.584960938 763.520507812 l 1
 615.650390625 734.560546875 624.907226562 700.651367188 624.907226562 667.036132812 c 0x70
 624.907226562 533.942382812 478.033203125 523.389648438 431.451171875 523.389648438 c 0
 341.6796875 523.389648438 272.366210938 553.424804688 187.0859375 611.872070312 c 1
 149.6171875 559.16796875 l 1
 192.569335938 534 207.569335938 526 253.290039062 505.951171875 c 1
 194.569335938 482 154.569335938 445 135.432617188 404 c 0
 119.150390625 369.1171875 113.525390625 319.854492188 129.55078125 275 c 0
 140.947265625 243.1015625 163.29296875 213.43359375 200.54296875 192.751953125 c 0
 257.391601562 161.189453125 336.361328125 166.969726562 383.776367188 191.630859375 c 0
 473.34375 238.215820312 474.569335938 325 474.569335938 403 c 9
 474.569335938 460.559570312 l 1
 520.744140625 466.255859375 536.202148438 468.314453125 575.569335938 447.93359375 c 0
 635.977539062 416.66015625 665.069335938 348.751953125 678.569335938 294 c 1
 749.569335938 312 l 1x68
 743.62109375 345.881835938 705.756835938 452.017578125 616.638671875 499.221679688 c 2
 606.2421875 504.728515625 l 1
 635.29296875 526.748046875 689.91015625 568.146484375 689.91015625 667.2109375 c 1xb0
 689.91015625 667.208984375 l 1x70
408.342773438 458.970703125 m 2
 408.342773438 395 l 2
 408.342773438 331.458007812 407.060546875 275.65234375 353.911132812 248.146484375 c 0
 314.998046875 228.0078125 250.958007812 232.490234375 220.017578125 258.094726562 c 0
 178.64453125 292.333984375 182.134674806 362.541163457 212.569335938 407.994140625 c 0
 234 440 283 466 327.903320312 471.971679688 c 1
 365.708984375 463.00390625 408.342773438 458.970703125 408.342773438 458.970703125 c 2
EndSplineSet
Validated: 1048613
LCarets2: 1 0
Ligature2: "'liga' Standard Ligatures in Latin lookup 1-1" maam o_saau
EndChar

